<?xml version="1.0" encoding="utf-8"?>
<!-- Generator: Adobe Illustrator 21.0.0, SVG Export Plug-In . SVG Version: 6.00 Build 0)  -->
<svg version="1.1"
	 id="Calque_1" xmlns:cc="http://creativecommons.org/ns#" xmlns:dc="http://purl.org/dc/elements/1.1/" xmlns:inkscape="http://www.inkscape.org/namespaces/inkscape" xmlns:rdf="http://www.w3.org/1999/02/22-rdf-syntax-ns#" xmlns:sodipodi="http://sodipodi.sourceforge.net/DTD/sodipodi-0.dtd" xmlns:svg="http://www.w3.org/2000/svg"
	 xmlns="http://www.w3.org/2000/svg" xmlns:xlink="http://www.w3.org/1999/xlink" x="0px" y="0px" viewBox="0 0 90 54"
	 style="enable-background:new 0 0 90 54;" xml:space="preserve">
<g transform="translate(0,-952.36218)">
	<path d="M8,952.4c-4.4,0-8,3.6-8,8v38c0,4.4,3.6,8,8,8h74c4.4,0,8-3.6,8-8v-38c0-4.4-3.6-8-8-8L8,952.4L8,952.4z M8,954.4h74
		c1.5,0,2.9,0.6,4,1.5L48.7,985c-2.3,1.8-5,1.8-7.4,0L4,955.9C5.1,954.9,6.5,954.4,8,954.4z M2.8,957.4L40,986.5
		c3,2.3,6.9,2.3,9.9,0l37.3-29.1c0.5,0.9,0.8,1.9,0.8,2.9v38c0,3.3-2.7,6-6,6H8c-3.3,0-6-2.7-6-6v-38C2,959.3,2.3,958.3,2.8,957.4
		L2.8,957.4z"/>
</g>
</svg>
