<?xml version="1.0" encoding="utf-8"?>
<!-- Generator: Adobe Illustrator 21.0.0, SVG Export Plug-In . SVG Version: 6.00 Build 0)  -->
<svg version="1.1" id="Calque_1" xmlns="http://www.w3.org/2000/svg" xmlns:xlink="http://www.w3.org/1999/xlink" x="0px" y="0px"
	 viewBox="0 0 16 16" style="enable-background:new 0 0 16 16;" xml:space="preserve">
<style type="text/css">
	.st0{fill:#51ADD5;}
</style>
<g>
	<path class="st0" d="M12.1,6.3L12.1,6.3L12,4.2c0-2.3-1.9-4-4-4S4,2.1,4,4.3v2.1H3.9c-1.1,0-2,0.9-2,2v5.4c0,1.1,0.9,2,2,2h8.3
		c0.5,0,1-0.2,1.4-0.6c0.4-0.4,0.6-0.9,0.6-1.4V8.2C14.1,7.2,13.2,6.3,12.1,6.3z M4.9,4.6c0-1.7,1.4-3.1,3.1-3.1s3.1,1.4,3.1,3.1
		v1.8H4.9V4.6z M11.8,14.7H4.2c-0.6,0-1.2-0.5-1.2-1.2V8.4c0-0.6,0.5-1.2,1.2-1.2h7.8c0.6,0,1.2,0.5,1.2,1.2v5.1
		C13,14.2,12.5,14.7,11.8,14.7z"/>
	<path class="st0" d="M8,9.1c-0.7,0-1.3,0.6-1.3,1.3c0,0.6,0.3,1,0.8,1.2v2.1h1v-2.1c0.5-0.2,0.8-0.7,0.8-1.2C9.3,9.7,8.7,9.1,8,9.1
		z"/>
</g>
</svg>
