<svg xmlns="http://www.w3.org/2000/svg" xmlns:xlink="http://www.w3.org/1999/xlink" version="1.1" x="0px" y="0px" viewBox="0 0 100 125" enable-background="new 0 0 100 100" xml:space="preserve"><g><path d="M73,10h-6l-2.8,22.4l-23.9-0.5L43,10h-6l-2.7,21.8l-22-0.5l-0.9,5.9l22.1,0.5l-3,23.8L8,61L7.1,67l22.7,0.5L27,90h6   l2.8-22.4l23.9,0.5L57,90h6l2.7-21.8l22,0.5l0.9-5.9l-22.1-0.5l3-23.8L92,39l0.9-5.9l-22.7-0.5L73,10z M60.5,62.1l-23.9-0.5l3-23.8   l23.9,0.5L60.5,62.1z"/></g><text x="0" y="115" fill="#000000" font-size="5px" font-weight="bold" font-family="'Helvetica Neue', Helvetica, Arial-Unicode, Arial, Sans-serif">Created by Guilhem</text><text x="0" y="120" fill="#000000" font-size="5px" font-weight="bold" font-family="'Helvetica Neue', Helvetica, Arial-Unicode, Arial, Sans-serif">from the Noun Project</text></svg>