<svg xmlns:dc="http://purl.org/dc/elements/1.1/" xmlns:cc="http://creativecommons.org/ns#" xmlns:rdf="http://www.w3.org/1999/02/22-rdf-syntax-ns#" xmlns:svg="http://www.w3.org/2000/svg" xmlns="http://www.w3.org/2000/svg" xmlns:sodipodi="http://sodipodi.sourceforge.net/DTD/sodipodi-0.dtd" xmlns:inkscape="http://www.inkscape.org/namespaces/inkscape" version="1.1" x="0px" y="0px" viewBox="0 0 100 125"><g transform="translate(0,-952.36218)"><path style="text-indent:0;text-transform:none;direction:ltr;block-progression:tb;baseline-shift:baseline;color:#000000;enable-background:accumulate;" d="m 38.843736,959.38534 c -7.0558,0.1969 -14.0521,2.26489 -20.4376,6.3125 -0.8533,0.53515 -1.4027,1.52402 -1.4062,2.53125 0,24.70834 0,49.41661 0,74.12501 0,1.6568 1.3432,3 3,3 1.6569,0 3,-1.3432 3,-3 l 0,-36.3125 c 3.7281,-2.1687 16.023,-8.11756 30.8125,-1.7188 8.8327,3.8215 15.5564,4.5992 20.1875,4.3438 4.6311,-0.2555 7.4688,-1.75 7.4688,-1.75 0.9171,-0.515 1.5234,-1.542 1.5312,-2.5938 l 0,-36.12496 c 0.01,-1.03903 -0.5677,-2.06329 -1.4592,-2.59695 -0.8916,-0.53367 -2.0662,-0.55706 -2.9783,-0.0593 0,0 -1.2016,0.75823 -4.8437,0.9375 -3.6423,0.17927 -9.4113,-0.39978 -17.5626,-3.8125 -4.6186,-1.93378 -9.4404,-3.02029 -14.2812,-3.25 -1.0085,-0.0479 -2.0233,-0.0594 -3.0312,-0.0312 z m 0.375,5.9375 c 0.7932,-0.0187 1.5803,-0.008 2.375,0.0312 4.1159,0.20554 8.2453,1.16707 12.25,2.84375 8.8629,3.7108 15.5833,4.50787 20.1874,4.28126 1.2574,-0.0619 1.9999,-0.31175 2.9688,-0.5 l 0,30.21875 c -0.7621,0.1972 -1.719,0.4121 -3.3125,0.5 -3.6368,0.2006 -9.404,-0.3723 -17.5,-3.875 -14.2434,-6.16253 -26.7215,-2.35837 -33.1875,0.59375 l 0,-3.0625 0,-26.375 c 5.1614,-2.96551 10.666,-4.52529 16.2188,-4.65626 z" fill="#000000" fill-opacity="1" stroke="none" marker="none" visibility="visible" display="inline" overflow="visible"/></g><text x="0" y="115" fill="#000000" font-size="5px" font-weight="bold" font-family="'Helvetica Neue', Helvetica, Arial-Unicode, Arial, Sans-serif">Created by Alfa Design</text><text x="0" y="120" fill="#000000" font-size="5px" font-weight="bold" font-family="'Helvetica Neue', Helvetica, Arial-Unicode, Arial, Sans-serif">from the Noun Project</text></svg>