<?xml version="1.0" encoding="utf-8"?>
<!-- Generator: Adobe Illustrator 21.0.0, SVG Export Plug-In . SVG Version: 6.00 Build 0)  -->
<svg version="1.1" id="Calque_1" xmlns="http://www.w3.org/2000/svg" xmlns:xlink="http://www.w3.org/1999/xlink" x="0px" y="0px"
	 viewBox="0 0 16 16" style="enable-background:new 0 0 16 16;" xml:space="preserve">
<style type="text/css">
	.st0{fill:#4BADDC;}
</style>
<g>
	<path class="st0" d="M11.4,9.9c1.3-1,2.1-2.6,2.1-4.2c0-3-2.5-5.4-5.4-5.4S2.6,2.7,2.6,5.6c0,1.8,0.8,3.3,2.1,4.2
		c-2.3,1.2-3.8,3.5-4,6.1h1c0.2-2.5,1.8-4.6,4-5.4c0.7,0.3,1.5,0.5,2.4,0.5s1.7-0.2,2.4-0.5c2.3,0.9,3.8,3,4,5.4h1
		C15.2,13.3,13.6,11.1,11.4,9.9L11.4,9.9z M8,10.1c-2.5,0-4.4-2-4.4-4.4s2-4.4,4.4-4.4s4.4,2,4.4,4.4S10.5,10.1,8,10.1L8,10.1z"/>
</g>
</svg>
