<?xml version="1.0" encoding="utf-8"?>
<!-- Generator: Adobe Illustrator 21.0.0, SVG Export Plug-In . SVG Version: 6.00 Build 0)  -->
<svg version="1.1"
	 id="Calque_1" xmlns:cc="http://creativecommons.org/ns#" xmlns:dc="http://purl.org/dc/elements/1.1/" xmlns:inkscape="http://www.inkscape.org/namespaces/inkscape" xmlns:rdf="http://www.w3.org/1999/02/22-rdf-syntax-ns#" xmlns:sodipodi="http://sodipodi.sourceforge.net/DTD/sodipodi-0.dtd" xmlns:svg="http://www.w3.org/2000/svg"
	 xmlns="http://www.w3.org/2000/svg" xmlns:xlink="http://www.w3.org/1999/xlink" x="0px" y="0px" viewBox="0 0 16 16"
	 style="enable-background:new 0 0 16 16;" xml:space="preserve">
<style type="text/css">
	.st0{fill:#51ADD5;}
</style>
<path class="st0" d="M14.4,3.1H1.6C0.7,3.1,0,3.8,0,4.7v6.6c0,0.9,0.7,1.6,1.6,1.6h12.8c0.9,0,1.6-0.7,1.6-1.6V4.7
	C16,3.8,15.3,3.1,14.4,3.1z M8.5,8.9c-0.3,0.2-0.7,0.2-1,0L1.4,4c0.1,0,0.1,0,0.2,0h12.8c0.1,0,0.2,0,0.3,0.1L8.5,8.9z M0.8,4.8
	c0-0.1,0-0.1,0.1-0.1L7,9.5c0.6,0.5,1.4,0.5,2,0l6.1-4.8c0,0,0,0,0,0.1v6.6c0,0.4-0.4,0.8-0.8,0.8H1.6c-0.4,0-0.8-0.4-0.8-0.8V4.8z"
	/>
</svg>
