<?xml version="1.0" encoding="utf-8"?>
<!-- Generator: Adobe Illustrator 21.0.0, SVG Export Plug-In . SVG Version: 6.00 Build 0)  -->
<svg version="1.1"
	 id="Calque_1" xmlns:cc="http://creativecommons.org/ns#" xmlns:dc="http://purl.org/dc/elements/1.1/" xmlns:inkscape="http://www.inkscape.org/namespaces/inkscape" xmlns:rdf="http://www.w3.org/1999/02/22-rdf-syntax-ns#" xmlns:sodipodi="http://sodipodi.sourceforge.net/DTD/sodipodi-0.dtd" xmlns:svg="http://www.w3.org/2000/svg"
	 xmlns="http://www.w3.org/2000/svg" xmlns:xlink="http://www.w3.org/1999/xlink" x="0px" y="0px" viewBox="0 0 16 16"
	 style="enable-background:new 0 0 16 16;" xml:space="preserve">
<style type="text/css">
	.st0{fill:#51ADD5;}
</style>
<g transform="translate(0,-952.36218)">
	<path class="st0" d="M1.4,955.6c-0.8,0-1.4,0.6-1.4,1.4v6.8c0,0.8,0.6,1.4,1.4,1.4h13.2c0.8,0,1.4-0.6,1.4-1.4V957
		c0-0.8-0.6-1.4-1.4-1.4H1.4L1.4,955.6z M1.4,956h13.2c0.3,0,0.5,0.1,0.7,0.3l-6.6,5.2c-0.4,0.3-0.9,0.3-1.3,0l-6.6-5.2
		C0.9,956,1.2,956,1.4,956z M0.5,956.5l6.6,5.2c0.5,0.4,1.2,0.4,1.8,0l6.6-5.2c0.1,0.2,0.1,0.3,0.1,0.5v6.8c0,0.6-0.5,1.1-1.1,1.1
		H1.4c-0.6,0-1.1-0.5-1.1-1.1V957C0.4,956.8,0.4,956.6,0.5,956.5L0.5,956.5z"/>
</g>
</svg>
