<svg xmlns:dc="http://purl.org/dc/elements/1.1/" xmlns:cc="http://creativecommons.org/ns#" xmlns:rdf="http://www.w3.org/1999/02/22-rdf-syntax-ns#" xmlns:svg="http://www.w3.org/2000/svg" xmlns="http://www.w3.org/2000/svg" xmlns:sodipodi="http://sodipodi.sourceforge.net/DTD/sodipodi-0.dtd" xmlns:inkscape="http://www.inkscape.org/namespaces/inkscape" version="1.1" x="0px" y="0px" viewBox="0 0 100 125"><g transform="translate(0,-952.36218)"><path style="text-indent:0;text-transform:none;direction:ltr;block-progression:tb;baseline-shift:baseline;color:#000000;enable-background:accumulate;" d="m 28.029331,978.38551 c -0.5134,-10e-6 -1.0501,0.17248 -1.4419,0.56416 -0.7832,0.78342 -0.7833,2.06875 0,2.85213 l 20.5604,20.5603 -20.5604,20.5604 c -0.7833,0.7834 -0.7832,2.0687 0,2.8522 0.7835,0.7833 2.0688,0.7833 2.8522,0 l 20.5604,-20.5604 20.5604,20.5604 c 0.7834,0.7833 2.0686,0.7833 2.8521,0 0.7832,-0.7835 0.7834,-2.0688 0,-2.8522 l -20.5603,-20.5604 20.5603,-20.5603 c 0.7834,-0.78338 0.7832,-2.06871 0,-2.85213 -0.7835,-0.78337 -2.0687,-0.78335 -2.8521,0 l -20.5604,20.56037 -20.5604,-20.56037 c -0.3917,-0.39168 -0.897,-0.56415 -1.4103,-0.56416 z" fill="#000000" fill-opacity="1" stroke="none" marker="none" visibility="visible" display="inline" overflow="visible"/></g><text x="0" y="115" fill="#000000" font-size="5px" font-weight="bold" font-family="'Helvetica Neue', Helvetica, Arial-Unicode, Arial, Sans-serif">Created by Zaff Studio</text><text x="0" y="120" fill="#000000" font-size="5px" font-weight="bold" font-family="'Helvetica Neue', Helvetica, Arial-Unicode, Arial, Sans-serif">from the Noun Project</text></svg>