<svg xmlns:dc="http://purl.org/dc/elements/1.1/" xmlns:cc="http://creativecommons.org/ns#" xmlns:rdf="http://www.w3.org/1999/02/22-rdf-syntax-ns#" xmlns:svg="http://www.w3.org/2000/svg" xmlns="http://www.w3.org/2000/svg" xmlns:sodipodi="http://sodipodi.sourceforge.net/DTD/sodipodi-0.dtd" xmlns:inkscape="http://www.inkscape.org/namespaces/inkscape" version="1.1" x="0px" y="0px" viewBox="0 0 100 125"><g transform="translate(0,-952.36218)"><path style="text-indent:0;text-transform:none;direction:ltr;block-progression:tb;baseline-shift:baseline;color:#000000;enable-background:accumulate;" d="m 22,981.36218 c -2.1814,0 -4,1.8186 -4,4 l 0,34.00002 c 0,2.1814 1.8186,4 4,4 l 56,0 c 2.1814,0 4,-1.8186 4,-4 l 0,-34.00002 c 0,-2.1814 -1.8186,-4 -4,-4 l -56,0 z m 3.4062,4 49.1876,0 L 50,1006.7059 25.4062,985.36218 z M 22,987.67468 48.6875,1010.8622 a 2.0001998,2.0001998 0 0 0 2.625,0 L 78,987.67468 l 0,31.68752 -56,0 0,-31.68752 z" fill="#000000" fill-opacity="1" stroke="none" marker="none" visibility="visible" display="inline" overflow="visible"/></g><text x="0" y="115" fill="#000000" font-size="5px" font-weight="bold" font-family="'Helvetica Neue', Helvetica, Arial-Unicode, Arial, Sans-serif">Created by Numero Uno</text><text x="0" y="120" fill="#000000" font-size="5px" font-weight="bold" font-family="'Helvetica Neue', Helvetica, Arial-Unicode, Arial, Sans-serif">from the Noun Project</text></svg>