<?xml version="1.0" encoding="utf-8"?>
<!-- Generator: Adobe Illustrator 21.0.0, SVG Export Plug-In . SVG Version: 6.00 Build 0)  -->
<svg version="1.1" id="Calque_1" xmlns="http://www.w3.org/2000/svg" xmlns:xlink="http://www.w3.org/1999/xlink" x="0px" y="0px"
	 viewBox="0 0 16 16" style="enable-background:new 0 0 16 16;" xml:space="preserve">
<style type="text/css">
	.st0{fill-rule:evenodd;clip-rule:evenodd;fill:#4BADDC;}
</style>
<g>
	<path class="st0" d="M11.4,9.8c1.3-1,2.1-2.6,2.1-4.3C13.5,2.5,11,0,8,0C5,0,2.5,2.5,2.5,5.5c0,1.8,0.8,3.3,2.1,4.3
		C2.3,11,0.7,13.3,0.5,16h1c0.2-2.5,1.8-4.7,4.1-5.5C6.3,10.8,7.1,11,8,11c0.9,0,1.7-0.2,2.4-0.5c2.3,0.9,3.9,3,4.1,5.5h1
		C15.3,13.3,13.7,11,11.4,9.8L11.4,9.8z M8,10c-2.5,0-4.5-2-4.5-4.5C3.5,3,5.5,1,8,1c2.5,0,4.5,2,4.5,4.5C12.5,8,10.5,10,8,10L8,10z
		 M8,10"/>
</g>
</svg>
