<?xml version="1.0" encoding="utf-8"?>
<!-- Generator: Adobe Illustrator 21.0.0, SVG Export Plug-In . SVG Version: 6.00 Build 0)  -->
<svg version="1.1" id="Layer_1" xmlns="http://www.w3.org/2000/svg" xmlns:xlink="http://www.w3.org/1999/xlink" x="0px" y="0px"
	 viewBox="0 0 16 16" style="enable-background:new 0 0 16 16;" xml:space="preserve">
<style type="text/css">
	.st0{fill-rule:evenodd;clip-rule:evenodd;fill:#FFFFFF;}
</style>
<path class="st0" d="M3.8,14l6-6L3.7,1.9l0,0C3.6,1.7,3.4,1.5,3.4,1.1C3.4,0.5,3.9,0,4.6,0c0.3,0,0.6,0.1,0.8,0.3l0,0l6.9,6.9l0,0
	c0.2,0.2,0.3,0.5,0.3,0.8c0,0,0,0,0,0c0,0,0,0,0,0c0,0.3-0.1,0.6-0.3,0.8l0,0l-6.9,6.9l0,0C5.2,15.9,4.9,16,4.6,16
	c-0.6,0-1.1-0.5-1.1-1.1C3.4,14.5,3.6,14.2,3.8,14"/>
</svg>
