<svg xmlns="http://www.w3.org/2000/svg" xmlns:xlink="http://www.w3.org/1999/xlink" version="1.1" x="0px" y="0px" viewBox="0 0 100 125" enable-background="new 0 0 100 100" xml:space="preserve"><g display="none"><rect x="-533" y="-437" display="inline" fill="#000000" width="1596" height="1700"/></g><g><path d="M59,87c-0.512,0-1.024-0.195-1.414-0.586l-36-36C21.211,50.039,21,49.53,21,49V23c0-1.104,0.896-2,2-2h26   c0.53,0,1.039,0.211,1.414,0.586l36,36c0.781,0.781,0.781,2.047,0,2.828l-26,26C60.024,86.805,59.512,87,59,87z M25,48.171l34,34   L82.171,59l-34-34H25V48.171z M35.999,41c2.761-0.001,5-2.238,5.002-5C41,33.238,38.761,31,36,30.998c-2.762,0.002-5,2.24-5,5.002   C31,38.761,33.239,41,35.999,41z"/></g><text x="0" y="115" fill="#000000" font-size="5px" font-weight="bold" font-family="'Helvetica Neue', Helvetica, Arial-Unicode, Arial, Sans-serif">Created by Setyo Ari Wibowo</text><text x="0" y="120" fill="#000000" font-size="5px" font-weight="bold" font-family="'Helvetica Neue', Helvetica, Arial-Unicode, Arial, Sans-serif">from the Noun Project</text></svg>