<svg xmlns="http://www.w3.org/2000/svg" xmlns:xlink="http://www.w3.org/1999/xlink" viewBox="0 0 22 27.5" version="1.1" x="0px" y="0px"><title>ic_comunication@3x</title><desc>Created with Sketch.</desc><g stroke="none" stroke-width="1" fill="none" fill-rule="evenodd"><g fill="#000000"><path d="M16.8691409,22 C16.7594165,22 16.6480297,21.9960106 16.5346479,21.9890292 C15.1807162,21.896941 13.8251221,21.4980027 12.1360324,20.6961369 C9.15119826,19.2376852 6.55006673,17.200773 4.39780744,14.6385922 L4.39680995,14.6375948 C2.67580052,12.5804033 1.41796074,10.4773339 0.657537907,8.38756245 C0.278490235,7.34500386 -0.093574981,6.09366759 0.0211368147,4.71400619 C0.0603715738,3.84398838 0.431771794,3.04311987 1.09377523,2.42243846 L2.77421991,0.741578689 C3.75841387,-0.24313386 5.10802308,-0.247788139 6.1314518,0.731272784 C6.44599487,1.02316259 6.75422048,1.33932115 7.05247115,1.64484135 C7.20143023,1.79710277 7.35138681,1.95102644 7.50533337,2.10495011 L8.8353252,3.43474424 C9.85409895,4.49758219 9.85409895,5.80543471 8.84530014,6.85829921 C8.55103945,7.15251616 8.26675369,7.42844844 7.98246794,7.70438072 C7.74107442,7.93875694 7.4996809,8.1728007 7.25828738,8.41216364 C7.54656311,9.06176807 7.97049801,9.71236985 8.61354906,10.4982782 C9.9588358,12.1342574 11.2595678,13.3144497 12.7052689,14.2110634 L12.7361913,14.2313427 C12.9174026,14.3580056 13.1398438,14.4693759 13.3752523,14.5867302 C13.4397569,14.6189777 13.5042615,14.6512252 13.5681011,14.6838052 L15.1434765,13.1089965 C15.6295885,12.6229567 16.2117924,12.3656416 16.8269136,12.3656416 C17.4420349,12.3656416 18.0245713,12.6226243 18.5106833,13.108664 L21.2371666,15.8350744 C22.2542778,16.8520345 22.2542778,18.218398 21.2371666,19.2356905 C21.0579502,19.4148802 20.8787338,19.5900806 20.7011798,19.7642836 C20.346737,20.1110274 20.0122441,20.4384893 19.6893886,20.7825735 C18.9861554,21.5870989 18.0345462,22 16.8691409,22 L16.8691409,22 Z M5.41658119,13.783867 C7.44847621,16.2024301 9.90364114,18.1253124 12.7132489,19.4979924 C14.237752,20.2217328 15.4453846,20.5817746 16.6227599,20.6618947 C17.5314768,20.7207381 18.1921503,20.4750586 18.7041971,19.8899492 C19.0616324,19.5082983 19.4220602,19.1552379 19.7708506,18.8141457 C19.945412,18.6432672 20.1216359,18.4713913 20.2971948,18.2951936 C20.8015942,17.7908691 20.8015942,17.2795633 20.2971948,16.7755713 L17.5707116,14.0494934 C17.1075419,13.5863926 16.5469504,13.5863926 16.0837807,14.0494934 L14.3877086,15.7453133 C14.249057,15.8839444 13.8271171,16.3048242 13.1548062,15.9697161 C13.0181495,15.8955801 12.8991153,15.8364042 12.7804135,15.7768959 C12.5174076,15.6452463 12.2460893,15.5096073 11.9894008,15.3324123 C10.4220055,14.3580056 9.02218905,13.0897145 7.58513288,11.342365 C6.79545022,10.3775994 6.29271331,9.5763984 5.95356539,8.74427973 C5.70618691,8.12625791 6.03103742,7.73430109 6.21923126,7.57106886 C6.49819705,7.29247699 6.77716284,7.02186389 7.05612862,6.75091833 C7.33575941,6.47964033 7.61539019,6.20836233 7.89468847,5.92877312 C8.40607034,5.39486078 8.40607034,4.90981837 7.88471354,4.36560012 L6.56469664,3.04577946 C6.40709261,2.88819885 6.25314605,2.73061825 6.10052949,2.57436744 C5.80028383,2.26685255 5.51666307,1.97629253 5.2190774,1.7000278 C4.85997961,1.35660847 4.31501545,1.08200598 3.71485664,1.68274048 L2.01911705,3.37822799 C1.59385216,3.77716622 1.37373851,4.25057293 1.34846867,4.79977791 C1.25337425,5.9450631 1.56126736,6.98097272 1.90739773,7.93343776 C2.61462089,9.87726432 3.79532114,11.8456921 5.41658119,13.783867 L5.41658119,13.783867 Z"/></g></g><text x="0" y="37" fill="#000000" font-size="5px" font-weight="bold" font-family="'Helvetica Neue', Helvetica, Arial-Unicode, Arial, Sans-serif">Created by Тимур Минвалеев</text><text x="0" y="42" fill="#000000" font-size="5px" font-weight="bold" font-family="'Helvetica Neue', Helvetica, Arial-Unicode, Arial, Sans-serif">from the Noun Project</text></svg>