<svg xmlns="http://www.w3.org/2000/svg" xmlns:xlink="http://www.w3.org/1999/xlink" version="1.1" x="0px" y="0px" viewBox="0 0 60 63.737500000000004" enable-background="new 0 0 60 50.99" xml:space="preserve"><path d="M59.42,7.09l-15-7c-0.02-0.01-0.03-0.01-0.05-0.02c-0.04-0.02-0.08-0.03-0.13-0.04c-0.04-0.01-0.07-0.02-0.11-0.02  C44.09,0,44.05,0,44,0c-0.04,0-0.07,0-0.11,0c-0.04,0-0.08,0.01-0.13,0.02c-0.04,0.01-0.08,0.02-0.12,0.03  c-0.01,0.01-0.03,0.01-0.04,0.01L30,5.91L16.39,0.07c-0.01,0-0.02,0-0.03-0.01c-0.04-0.02-0.08-0.02-0.12-0.04  c-0.04-0.01-0.08-0.02-0.11-0.03C16.09,0,16.05,0,16.01,0c-0.04,0-0.08,0-0.12,0c-0.04,0-0.08,0.02-0.13,0.03  c-0.04,0.01-0.07,0.02-0.11,0.03c-0.01,0-0.02,0-0.02,0.01l-15,6C0.25,6.22,0,6.58,0,6.99v43c0,0.33,0.16,0.64,0.44,0.83  C0.61,50.94,0.8,50.99,1,50.99c0.13,0,0.25-0.02,0.37-0.07l14.62-5.85l13.62,5.84c0.01,0.01,0.03,0,0.04,0.01  c0.11,0.04,0.23,0.07,0.35,0.07s0.24-0.03,0.35-0.07c0.01-0.01,0.03,0,0.04-0.01l13.62-5.84l14.62,5.85  c0.12,0.05,0.25,0.07,0.37,0.07c0.2,0,0.39-0.06,0.56-0.17c0.27-0.19,0.44-0.5,0.44-0.83v-42C60,7.61,59.77,7.25,59.42,7.09z   M2,7.67l13-5.2v40.85l-13,5.2V7.67z M17,2.51l12,5.14v40.82l-12-5.14V2.51z M31,7.65l12-5.14v40.82l-12,5.14V7.65z M58,48.52  l-13-5.2V2.56l13,6.07V48.52z"/><text x="0" y="65.99000000000001" fill="#000000" font-size="5px" font-weight="bold" font-family="'Helvetica Neue', Helvetica, Arial-Unicode, Arial, Sans-serif">Created by Oliviu Stoian</text><text x="0" y="70.99000000000001" fill="#000000" font-size="5px" font-weight="bold" font-family="'Helvetica Neue', Helvetica, Arial-Unicode, Arial, Sans-serif">from the Noun Project</text></svg>