<svg xmlns="http://www.w3.org/2000/svg" xmlns:xlink="http://www.w3.org/1999/xlink" version="1.1" x="0px" y="0px" viewBox="0 0 24 30" style="enable-background:new 0 0 24 24;" xml:space="preserve"><g><path d="M6.83,3.474v17.053c0,0.692,0.563,1.255,1.255,1.255h7.83c0.692,0,1.255-0.563,1.255-1.255V3.474   c0-0.692-0.563-1.255-1.255-1.255h-7.83C7.393,2.218,6.83,2.781,6.83,3.474z M16.28,17.849H7.72V5.509h8.56V17.849z M15.915,20.891   h-7.83c-0.201,0-0.365-0.163-0.365-0.364V18.74h8.56v1.787C16.28,20.728,16.116,20.891,15.915,20.891z M16.28,3.474v1.145H7.72   V3.474c0-0.201,0.164-0.365,0.365-0.365h7.83C16.116,3.109,16.28,3.272,16.28,3.474z"/><path d="M12.472,19.399h-0.945c-0.246,0-0.445,0.199-0.445,0.445c0,0.246,0.199,0.445,0.445,0.445h0.945   c0.246,0,0.445-0.199,0.445-0.445C12.918,19.599,12.718,19.399,12.472,19.399z"/></g><text x="0" y="39" fill="#000000" font-size="5px" font-weight="bold" font-family="'Helvetica Neue', Helvetica, Arial-Unicode, Arial, Sans-serif">Created by AlePio</text><text x="0" y="44" fill="#000000" font-size="5px" font-weight="bold" font-family="'Helvetica Neue', Helvetica, Arial-Unicode, Arial, Sans-serif">from the Noun Project</text></svg>