<?xml version="1.0" encoding="utf-8"?>
<!-- Generator: Adobe Illustrator 21.0.0, SVG Export Plug-In . SVG Version: 6.00 Build 0)  -->
<svg version="1.1" id="Layer_1" xmlns="http://www.w3.org/2000/svg" xmlns:xlink="http://www.w3.org/1999/xlink" x="0px" y="0px"
	 viewBox="0 0 512 512" style="enable-background:new 0 0 512 512;" xml:space="preserve">
<style type="text/css">
	.st0{fill:#FFFFFF;}
</style>
<path class="st0" d="M256,418.1c-15.7,0-28.4,12.7-28.4,28.4s12.7,28.4,28.4,28.4s28.4-12.7,28.4-28.4S271.7,418.1,256,418.1z
	 M256,455.3c-4.8,0-8.7-3.9-8.7-8.7s3.9-8.7,8.7-8.7c4.8,0,8.7,3.9,8.7,8.7C264.7,451.4,260.8,455.3,256,455.3z"/>
<path class="st0" d="M252.2,61.2h50.4c5.7,0,10.4-4.6,10.4-10.4c0-5.7-4.6-10.4-10.4-10.4h-50.4c-5.7,0-10.4,4.6-10.4,10.4
	C241.8,56.6,246.5,61.2,252.2,61.2z"/>
<circle class="st0" cx="220.3" cy="51.1" r="10.9"/>
<path class="st0" d="M377.1,0H134.9c-18.1,0-32.8,14.7-32.8,32.8v446.4c0,18.1,14.7,32.8,32.8,32.8h242.2
	c18.1,0,32.8-14.7,32.8-32.8V32.8C409.9,14.7,395.2,0,377.1,0z M388,479.2c0,6-4.9,10.9-10.9,10.9H134.9c-6,0-10.9-4.9-10.9-10.9
	V32.8c0-6,4.9-10.9,10.9-10.9h242.2c6,0,10.9,4.9,10.9,10.9V479.2z"/>
<path class="st0" d="M214.2,276.4c2.8,0,5.6-1.1,7.7-3.2l52.5-52.5c4.3-4.3,4.3-11.2,0-15.5c-4.3-4.3-11.2-4.3-15.5,0l-52.5,52.5
	c-4.3,4.3-4.3,11.2,0,15.5C208.6,275.3,211.4,276.4,214.2,276.4z"/>
<path class="st0" d="M269.2,272c2.1,2.1,4.9,3.2,7.7,3.2c2.8,0,5.6-1.1,7.7-3.2l20.9-20.9c4.3-4.3,4.3-11.2,0-15.5
	c-4.3-4.3-11.2-4.3-15.5,0l-20.9,20.9C264.9,260.8,264.9,267.7,269.2,272z"/>
<path class="st0" d="M355.4,80.9H156.6c-5.4,0-9.8,4.4-9.8,9.8V392c0,5.4,4.4,9.8,9.8,9.8h198.7c5.4,0,9.8-4.4,9.8-9.8V90.7
	C365.2,85.3,360.8,80.9,355.4,80.9z M345.5,382.2H166.5V100.6h179.1V382.2L345.5,382.2z"/>
</svg>
