<?xml version="1.0" encoding="utf-8"?>
<!-- Generator: Adobe Illustrator 21.0.0, SVG Export Plug-In . SVG Version: 6.00 Build 0)  -->
<svg version="1.1" id="Calque_1" xmlns="http://www.w3.org/2000/svg" xmlns:xlink="http://www.w3.org/1999/xlink" x="0px" y="0px"
	 viewBox="0 0 72 72" style="enable-background:new 0 0 72 72;" xml:space="preserve">
<style type="text/css">
	.st0{fill:#FFFFFF;}
</style>
<g>
	<path class="st0" d="M64.8,0H7.2C3.1,0,0,3.1,0,7.2v57.6c0,4,3.1,7.2,7.2,7.2h57.6c4,0,7.2-3.2,7.2-7.2V7.2C72,3.1,68.8,0,64.8,0
		L64.8,0z M21.6,61.2H10.8V28.8h10.8V61.2z M16.2,22.5c-3.6,0-6.3-2.7-6.3-6.3s2.7-6.3,6.3-6.3c3.6,0,6.3,2.7,6.3,6.3
		S19.8,22.5,16.2,22.5L16.2,22.5z M61.2,61.2H50.4V42.3c0-2.7-2.7-5.4-5.4-5.4s-5.4,2.7-5.4,5.4v18.9H28.8V28.8h10.8v4.5
		c1.8-2.7,5.8-4.9,9-4.9c6.8,0,12.6,5.9,12.6,12.6V61.2L61.2,61.2z"/>
</g>
</svg>
