<?xml version="1.0" encoding="utf-8"?>
<!-- Generator: Adobe Illustrator 21.0.0, SVG Export Plug-In . SVG Version: 6.00 Build 0)  -->
<svg version="1.1" id="Calque_1" xmlns="http://www.w3.org/2000/svg" xmlns:xlink="http://www.w3.org/1999/xlink" x="0px" y="0px"
	 viewBox="0 0 100 100" style="enable-background:new 0 0 100 100;" xml:space="preserve">
<style type="text/css">
	.st0{fill:#A273D4;}
</style>
<g>
	<path class="st0" d="M76.8,3.4h-7l-3.3,26.1l-27.9-0.6l3.1-25.5h-7l-3.1,25.4L6.1,28.2l-1,6.9l25.8,0.6l-3.5,27.7L1,62.8l-1,7
		l26.5,0.6l-3.3,26.2h7l3.3-26.1l27.9,0.6l-3.1,25.5h7l3.1-25.4l25.6,0.6l1-6.9l-25.8-0.6l3.5-27.7L99,37.2l1-6.9l-26.5-0.6
		L76.8,3.4z M62.2,64.1l-27.9-0.6l3.5-27.7l27.9,0.6L62.2,64.1z"/>
</g>
</svg>
