<?xml version="1.0" encoding="utf-8"?>
<!-- Generator: Adobe Illustrator 21.0.0, SVG Export Plug-In . SVG Version: 6.00 Build 0)  -->
<svg version="1.1"
	 id="Calque_1" xmlns:cc="http://creativecommons.org/ns#" xmlns:dc="http://purl.org/dc/elements/1.1/" xmlns:inkscape="http://www.inkscape.org/namespaces/inkscape" xmlns:rdf="http://www.w3.org/1999/02/22-rdf-syntax-ns#" xmlns:sodipodi="http://sodipodi.sourceforge.net/DTD/sodipodi-0.dtd" xmlns:svg="http://www.w3.org/2000/svg"
	 xmlns="http://www.w3.org/2000/svg" xmlns:xlink="http://www.w3.org/1999/xlink" x="0px" y="0px" viewBox="0 0 100 100"
	 style="enable-background:new 0 0 100 100;" xml:space="preserve">
<style type="text/css">
	.st0{fill:#4BADDC;}
</style>
<g transform="translate(0,-952.36218)">
	<path class="st0" d="M96.5,966.9c-0.9,0.1-1.7,0.4-2.3,1.1c-20,20.7-39.9,41.3-59.9,62l-28.7-24.6c-1.3-1.3-3.4-1.3-4.7,0.1
		c-1.3,1.3-1.3,3.4,0.1,4.7c0.1,0.1,0.2,0.2,0.4,0.3l31,26.6c1.3,1.1,3.3,1,4.5-0.2c20.7-21.5,41.4-42.8,62.1-64.3
		c1.3-1.3,1.3-3.4,0-4.7C98.4,967.2,97.4,966.8,96.5,966.9L96.5,966.9z"/>
</g>
</svg>
