<?xml version="1.0" encoding="utf-8"?>
<!-- Generator: Adobe Illustrator 21.0.0, SVG Export Plug-In . SVG Version: 6.00 Build 0)  -->
<svg version="1.1" id="Calque_1" xmlns="http://www.w3.org/2000/svg" xmlns:xlink="http://www.w3.org/1999/xlink" x="0px" y="0px"
	 viewBox="0 0 100 100" style="enable-background:new 0 0 100 100;" xml:space="preserve">
<style type="text/css">
	.st0{display:none;}
	.st1{display:inline;}
	.st2{fill:#A273D4;}
</style>
<g class="st0">
	<rect x="-533" y="-449.5" class="st1" width="1596" height="1700"/>
</g>
<g>
	<path class="st2" d="M57.6,100c-0.8,0-1.6-0.3-2.1-0.9L0.9,44.6C0.3,44,0,43.2,0,42.4V3c0-1.7,1.4-3,3-3h39.4
		c0.8,0,1.6,0.3,2.1,0.9l54.5,54.5c1.2,1.2,1.2,3.1,0,4.3L59.7,99.1C59.1,99.7,58.4,100,57.6,100z M6.1,41.2l51.5,51.5l35.1-35.1
		L41.2,6.1H6.1V41.2z M22.7,30.3c4.2,0,7.6-3.4,7.6-7.6c0-4.2-3.4-7.6-7.6-7.6c-4.2,0-7.6,3.4-7.6,7.6
		C15.2,26.9,18.5,30.3,22.7,30.3z"/>
</g>
</svg>
