<?xml version="1.0" encoding="utf-8"?>
<!-- Generator: Adobe Illustrator 21.0.0, SVG Export Plug-In . SVG Version: 6.00 Build 0)  -->
<svg version="1.1"
	 id="Calque_1" xmlns:cc="http://creativecommons.org/ns#" xmlns:dc="http://purl.org/dc/elements/1.1/" xmlns:inkscape="http://www.inkscape.org/namespaces/inkscape" xmlns:rdf="http://www.w3.org/1999/02/22-rdf-syntax-ns#" xmlns:sodipodi="http://sodipodi.sourceforge.net/DTD/sodipodi-0.dtd" xmlns:svg="http://www.w3.org/2000/svg"
	 xmlns="http://www.w3.org/2000/svg" xmlns:xlink="http://www.w3.org/1999/xlink" x="0px" y="0px" viewBox="0 0 100 100"
	 style="enable-background:new 0 0 100 100;" xml:space="preserve">
<style type="text/css">
	.st0{fill:#A273D4;}
</style>
<g transform="translate(0,-952.36218)">
	<path class="st0" d="M8.9,972.4c-4.9,0-8.9,4-8.9,8.9v42.2c0,4.9,4,8.9,8.9,8.9h82.2c4.9,0,8.9-4,8.9-8.9v-42.2
		c0-4.9-4-8.9-8.9-8.9L8.9,972.4L8.9,972.4z M8.9,974.6h82.2c1.7,0,3.2,0.6,4.4,1.7l-41.5,32.3c-2.6,2-5.6,2-8.2,0L4.5,976.3
		C5.7,975.2,7.2,974.6,8.9,974.6z M3.1,978l41.4,32.3c3.3,2.6,7.7,2.6,11,0L96.9,978c0.5,1,0.8,2.1,0.8,3.3v42.2
		c0,3.7-3,6.7-6.7,6.7H8.9c-3.7,0-6.7-3-6.7-6.7v-42.2C2.2,980.1,2.5,978.9,3.1,978L3.1,978z"/>
</g>
</svg>
