<?xml version="1.0" encoding="utf-8"?>
<!-- Generator: Adobe Illustrator 21.0.0, SVG Export Plug-In . SVG Version: 6.00 Build 0)  -->
<svg version="1.1" id="Calque_1" xmlns="http://www.w3.org/2000/svg" xmlns:xlink="http://www.w3.org/1999/xlink" x="0px" y="0px"
	 viewBox="0 0 100 100" style="enable-background:new 0 0 100 100;" xml:space="preserve">
<style type="text/css">
	.st0{fill:#4BADDC;}
</style>
<path class="st0" d="M14.9,26.5c6.2,0,11.2-5,11.2-11.2C26.1,9,21.1,4,14.9,4C8.7,4,3.6,9,3.6,15.2C3.6,21.5,8.7,26.5,14.9,26.5z
	 M14.9,9.1c3.4,0,6.1,2.7,6.1,6.1c0,3.4-2.7,6.1-6.1,6.1c-3.4,0-6.1-2.7-6.1-6.1C8.8,11.9,11.5,9.1,14.9,9.1z"/>
<path class="st0" d="M14.9,61.2c6.2,0,11.2-5,11.2-11.2c0-6.2-5-11.2-11.2-11.2c-6.2,0-11.2,5-11.2,11.2
	C3.6,56.2,8.7,61.2,14.9,61.2z M14.9,43.9c3.4,0,6.1,2.7,6.1,6.1c0,3.4-2.7,6.1-6.1,6.1c-3.4,0-6.1-2.7-6.1-6.1
	C8.8,46.6,11.5,43.9,14.9,43.9z"/>
<path class="st0" d="M14.9,96c6.2,0,11.2-5,11.2-11.2s-5-11.2-11.2-11.2c-6.2,0-11.2,5-11.2,11.2S8.7,96,14.9,96z M14.9,78.6
	c3.4,0,6.1,2.7,6.1,6.1c0,3.4-2.7,6.1-6.1,6.1c-3.4,0-6.1-2.7-6.1-6.1C8.8,81.4,11.5,78.6,14.9,78.6z"/>
<path class="st0" d="M36.6,17.8h57.2c1.4,0,2.6-1.1,2.6-2.6s-1.1-2.6-2.6-2.6H36.6c-1.4,0-2.6,1.1-2.6,2.6S35.2,17.8,36.6,17.8z"/>
<path class="st0" d="M36.6,87.3h57.2c1.4,0,2.6-1.1,2.6-2.6s-1.1-2.6-2.6-2.6H36.6c-1.4,0-2.6,1.1-2.6,2.6
	C34,86.2,35.2,87.3,36.6,87.3z"/>
<path class="st0" d="M36.6,52.6h57.2c1.4,0,2.6-1.1,2.6-2.6s-1.1-2.6-2.6-2.6H36.6c-1.4,0-2.6,1.1-2.6,2.6S35.2,52.6,36.6,52.6z"/>
</svg>
