<?xml version="1.0" encoding="utf-8"?>
<!-- Generator: Adobe Illustrator 21.0.0, SVG Export Plug-In . SVG Version: 6.00 Build 0)  -->
<svg version="1.1" id="Calque_1" xmlns="http://www.w3.org/2000/svg" xmlns:xlink="http://www.w3.org/1999/xlink" x="0px" y="0px"
	 viewBox="0 0 100 100" style="enable-background:new 0 0 100 100;" xml:space="preserve">
<style type="text/css">
	.st0{fill:#4BADDC;}
</style>
<title>Clothes Copy</title>
<desc>Created with Sketch.</desc>
<g>
	<g>
		<path class="st0" d="M91.4,76.6c0,1.6-1.3,3-2.9,3h-8.9V32.3v0h8.9c1.6,0,2.9,1.3,2.9,3V76.6L91.4,76.6z M8.6,76.6V35.2
			c0-1.6,1.3-3,2.9-3h8.9v0v47.3h-8.9C9.9,79.6,8.6,78.2,8.6,76.6L8.6,76.6z M67.7,32.3h5.9v0v47.3H26.4V32.3v0h5.9H67.7L67.7,32.3z
			 M38.2,23.4c0-1.6,1.3-3,2.9-3h17.8c1.6,0,2.9,1.3,2.9,3v3H38.2V23.4L38.2,23.4z M88.4,26.4H67.7v-3c0-4.9-4-8.9-8.9-8.9H41.1
			c-4.9,0-8.9,4-8.9,8.9v3H11.6c-4.9,0-8.9,4-8.9,8.9v41.4c0,4.9,4,8.9,8.9,8.9h76.9c4.9,0,8.9-4,8.9-8.9V35.2
			C97.3,30.3,93.3,26.4,88.4,26.4L88.4,26.4z"/>
	</g>
</g>
</svg>
