<?xml version="1.0" encoding="utf-8"?>
<!-- Generator: Adobe Illustrator 21.0.0, SVG Export Plug-In . SVG Version: 6.00 Build 0)  -->
<svg version="1.1" id="Calque_1" xmlns="http://www.w3.org/2000/svg" xmlns:xlink="http://www.w3.org/1999/xlink" x="0px" y="0px"
	 viewBox="0 0 100 100" style="enable-background:new 0 0 100 100;" xml:space="preserve">
<style type="text/css">
	.st0{fill:#A273D4;}
</style>
<title>ic_comunication@3x</title>
<desc>Created with Sketch.</desc>
<g>
	<g>
		<path class="st0" d="M76.7,100c-0.5,0-1,0-1.5,0c-6.2-0.4-12.3-2.2-20-5.9C41.6,87.4,29.8,78.2,20,66.5l0,0
			C12.2,57.2,6.4,47.6,3,38.1c-1.7-4.7-3.4-10.4-2.9-16.7C0.3,17.5,2,13.8,5,11l7.6-7.6c4.5-4.5,10.6-4.5,15.3,0
			c1.4,1.3,2.8,2.8,4.2,4.2c0.7,0.7,1.4,1.4,2.1,2.1l6,6c4.6,4.8,4.6,10.8,0,15.6c-1.3,1.3-2.6,2.6-3.9,3.8
			c-1.1,1.1-2.2,2.1-3.3,3.2c1.3,3,3.2,5.9,6.2,9.5c6.1,7.4,12,12.8,18.6,16.9l0.1,0.1c0.8,0.6,1.8,1.1,2.9,1.6
			c0.3,0.1,0.6,0.3,0.9,0.4l7.2-7.2c2.2-2.2,4.9-3.4,7.7-3.4c2.8,0,5.4,1.2,7.7,3.4L96.5,72c4.6,4.6,4.6,10.8,0,15.5
			c-0.8,0.8-1.6,1.6-2.4,2.4c-1.6,1.6-3.1,3.1-4.6,4.6C86.3,98.1,82,100,76.7,100L76.7,100z M24.6,62.7c9.2,11,20.4,19.7,33.2,26
			c6.9,3.3,12.4,4.9,17.8,5.3c4.1,0.3,7.1-0.8,9.5-3.5c1.6-1.7,3.3-3.3,4.8-4.9c0.8-0.8,1.6-1.6,2.4-2.4c2.3-2.3,2.3-4.6,0-6.9
			L79.9,63.9c-2.1-2.1-4.7-2.1-6.8,0l-7.7,7.7c-0.6,0.6-2.5,2.5-5.6,1c-0.6-0.3-1.2-0.6-1.7-0.9c-1.2-0.6-2.4-1.2-3.6-2
			c-7.1-4.4-13.5-10.2-20-18.1c-3.6-4.4-5.9-8-7.4-11.8c-1.1-2.8,0.4-4.6,1.2-5.3c1.3-1.3,2.5-2.5,3.8-3.7c1.3-1.2,2.5-2.5,3.8-3.7
			c2.3-2.4,2.3-4.6,0-7.1l-6-6c-0.7-0.7-1.4-1.4-2.1-2.1c-1.4-1.4-2.7-2.7-4-4c-1.6-1.6-4.1-2.8-6.8-0.1l-7.7,7.7
			c-1.9,1.8-2.9,4-3,6.5c-0.4,5.2,1,9.9,2.5,14.2C11.9,44.9,17.3,53.8,24.6,62.7L24.6,62.7z"/>
	</g>
</g>
</svg>
