<?xml version="1.0" encoding="utf-8"?>
<!-- Generator: Adobe Illustrator 21.0.0, SVG Export Plug-In . SVG Version: 6.00 Build 0)  -->
<svg version="1.1" id="Calque_1" xmlns="http://www.w3.org/2000/svg" xmlns:xlink="http://www.w3.org/1999/xlink" x="0px" y="0px"
	 viewBox="0 0 100 100" style="enable-background:new 0 0 100 100;" xml:space="preserve">
<style type="text/css">
	.st0{fill:#A273D4;}
</style>
<g>
	<path class="st0" d="M23.6,6.4v87.2c0,3.5,2.9,6.4,6.4,6.4h40c3.5,0,6.4-2.9,6.4-6.4V6.4C76.4,2.9,73.5,0,70,0H30
		C26.5,0,23.6,2.9,23.6,6.4z M71.9,79.9H28.1V16.8h43.8V79.9z M70,95.4H30c-1,0-1.9-0.8-1.9-1.9v-9.1h43.8v9.1
		C71.9,94.6,71,95.4,70,95.4z M71.9,6.4v5.9H28.1V6.4c0-1,0.8-1.9,1.9-1.9h40C71,4.5,71.9,5.4,71.9,6.4z"/>
	<path class="st0" d="M52.4,87.8h-4.8c-1.3,0-2.3,1-2.3,2.3s1,2.3,2.3,2.3h4.8c1.3,0,2.3-1,2.3-2.3C54.7,88.8,53.7,87.8,52.4,87.8z"
		/>
</g>
</svg>
