<?xml version="1.0" encoding="utf-8"?>
<!-- Generator: Adobe Illustrator 21.0.0, SVG Export Plug-In . SVG Version: 6.00 Build 0)  -->
<svg version="1.1"
	 id="Calque_1" xmlns:cc="http://creativecommons.org/ns#" xmlns:dc="http://purl.org/dc/elements/1.1/" xmlns:inkscape="http://www.inkscape.org/namespaces/inkscape" xmlns:rdf="http://www.w3.org/1999/02/22-rdf-syntax-ns#" xmlns:sodipodi="http://sodipodi.sourceforge.net/DTD/sodipodi-0.dtd" xmlns:svg="http://www.w3.org/2000/svg"
	 xmlns="http://www.w3.org/2000/svg" xmlns:xlink="http://www.w3.org/1999/xlink" x="0px" y="0px" viewBox="0 0 100 100"
	 style="enable-background:new 0 0 100 100;" xml:space="preserve">
<style type="text/css">
	.st0{fill:#A273D4;}
</style>
<g transform="translate(0,-952.36218)">
	<path class="st0" d="M50,952.4c-17.3,0-31.4,14.1-31.4,31.4c0,4.1,1.1,8.9,2.5,12.5c9,18.3,17.9,36.6,26.9,54.9
		c0.4,0.8,1.2,1.3,2.1,1.3s1.7-0.5,2.1-1.3c9.1-18.2,17.8-36.7,26.9-54.9c1.4-3.5,2.5-8.3,2.5-12.5C81.4,966.4,67.3,952.4,50,952.4
		L50,952.4z M50,957c14.8,0,26.8,11.9,26.8,26.8c0,3.2-1,7.8-2.2,10.8L50,1044.8l-24.6-50.2c-1.1-3-2.2-7.6-2.2-10.8
		C23.2,968.9,35.2,957,50,957z M50,966.3c-9.6,0-17.4,7.8-17.4,17.4c0,9.6,7.8,17.4,17.4,17.4c9.6,0,17.5-7.8,17.5-17.4
		C67.4,974.1,59.6,966.3,50,966.3z M50,971c7.1,0,12.8,5.7,12.8,12.8s-5.7,12.8-12.8,12.8c-7.1,0-12.8-5.7-12.8-12.8
		C37.2,976.7,42.9,971,50,971z"/>
</g>
</svg>
