<?xml version="1.0" encoding="utf-8"?>
<!-- Generator: Adobe Illustrator 21.0.0, SVG Export Plug-In . SVG Version: 6.00 Build 0)  -->
<svg version="1.1"
	 id="Calque_1" xmlns:cc="http://creativecommons.org/ns#" xmlns:dc="http://purl.org/dc/elements/1.1/" xmlns:inkscape="http://www.inkscape.org/namespaces/inkscape" xmlns:rdf="http://www.w3.org/1999/02/22-rdf-syntax-ns#" xmlns:sodipodi="http://sodipodi.sourceforge.net/DTD/sodipodi-0.dtd" xmlns:svg="http://www.w3.org/2000/svg"
	 xmlns="http://www.w3.org/2000/svg" xmlns:xlink="http://www.w3.org/1999/xlink" x="0px" y="0px" viewBox="0 0 100 100"
	 style="enable-background:new 0 0 100 100;" xml:space="preserve">
<style type="text/css">
	.st0{fill:#A273D4;}
</style>
<g transform="translate(0,-952.36218)">
	<path class="st0" d="M37,952.4c-8.2,0.2-16.3,2.6-23.8,7.3c-1,0.6-1.6,1.8-1.6,2.9c0,28.7,0,57.5,0,86.2c0,1.9,1.6,3.5,3.5,3.5
		c1.9,0,3.5-1.6,3.5-3.5v-42.2c4.3-2.5,18.6-9.4,35.8-2c10.3,4.4,18.1,5.3,23.5,5.1c5.4-0.3,8.7-2,8.7-2c1.1-0.6,1.8-1.8,1.8-3v-42
		c0-1.2-0.7-2.4-1.7-3c-1-0.6-2.4-0.6-3.5-0.1c0,0-1.4,0.9-5.6,1.1c-4.2,0.2-10.9-0.5-20.4-4.4c-5.4-2.2-11-3.5-16.6-3.8
		C39.4,952.4,38.2,952.3,37,952.4L37,952.4z M37.5,959.3c0.9,0,1.8,0,2.8,0c4.8,0.2,9.6,1.4,14.2,3.3c10.3,4.3,18.1,5.2,23.5,5
		c1.5-0.1,2.3-0.4,3.5-0.6v35.1c-0.9,0.2-2,0.5-3.9,0.6c-4.2,0.2-10.9-0.4-20.4-4.5c-16.6-7.2-31.1-2.7-38.6,0.7v-3.6v-30.7
		C24.6,961.3,31,959.4,37.5,959.3L37.5,959.3z"/>
</g>
</svg>
