<?xml version="1.0" encoding="utf-8"?>
<!-- Generator: Adobe Illustrator 21.0.0, SVG Export Plug-In . SVG Version: 6.00 Build 0)  -->
<svg version="1.1"
	 id="Calque_1" xmlns:cc="http://creativecommons.org/ns#" xmlns:dc="http://purl.org/dc/elements/1.1/" xmlns:inkscape="http://www.inkscape.org/namespaces/inkscape" xmlns:rdf="http://www.w3.org/1999/02/22-rdf-syntax-ns#" xmlns:sodipodi="http://sodipodi.sourceforge.net/DTD/sodipodi-0.dtd" xmlns:svg="http://www.w3.org/2000/svg"
	 xmlns="http://www.w3.org/2000/svg" xmlns:xlink="http://www.w3.org/1999/xlink" x="0px" y="0px" viewBox="0 0 100 100"
	 style="enable-background:new 0 0 100 100;" xml:space="preserve">
<style type="text/css">
	.st0{fill:#A273D4;}
</style>
<g>
	<path class="st0" d="M5.6,92.8h88.7c1.1,0,2-0.9,2-2s-0.9-2-2-2h-22V32.5c0-1.1-0.9-2-2-2H61v-18c0-1.1-0.9-2-2-2h-7V2
		c0-1.1-0.9-2-2-2s-2,0.9-2,2v8.4h-7c-1.1,0-2,0.9-2,2v18h-9.3c-1.1,0-2,0.9-2,2v56.2h-22c-1.1,0-2,0.9-2,2
		C3.6,91.9,4.5,92.8,5.6,92.8z M43,14.5h14v16H43V14.5L43,14.5z M31.7,34.5h36.6v54.2H31.7V34.5z"/>
	<path class="st0" d="M19.9,95.9c-1.1,0-2,0.9-2,2s0.9,2,2,2h60.3c1.1,0,2-0.9,2-2s-0.9-2-2-2H19.9z"/>
	<path class="st0" d="M41,38.3c-1.1,0-2,0.9-2,2v42.5c0,1.1,0.9,2,2,2s2-0.9,2-2V40.4C43,39.3,42.1,38.3,41,38.3z"/>
	<path class="st0" d="M50,38.3c-1.1,0-2,0.9-2,2v42.5c0,1.1,0.9,2,2,2s2-0.9,2-2V40.4C52,39.3,51.1,38.3,50,38.3z"/>
	<path class="st0" d="M53.6,17.1h-7.2c-1.1,0-2,0.9-2,2s0.9,2,2,2h7.2c1.1,0,2-0.9,2-2S54.7,17.1,53.6,17.1z"/>
	<path class="st0" d="M53.6,23.6h-7.2c-1.1,0-2,0.9-2,2s0.9,2,2,2h7.2c1.1,0,2-0.9,2-2S54.7,23.6,53.6,23.6z"/>
	<path class="st0" d="M59,38.3c-1.1,0-2,0.9-2,2v42.5c0,1.1,0.9,2,2,2s2-0.9,2-2V40.4C61.1,39.3,60.2,38.3,59,38.3z"/>
</g>
</svg>
