<?xml version="1.0" encoding="utf-8"?>
<!-- Generator: Adobe Illustrator 21.0.0, SVG Export Plug-In . SVG Version: 6.00 Build 0)  -->
<svg version="1.1"
	 id="Calque_1" xmlns:cc="http://creativecommons.org/ns#" xmlns:dc="http://purl.org/dc/elements/1.1/" xmlns:inkscape="http://www.inkscape.org/namespaces/inkscape" xmlns:rdf="http://www.w3.org/1999/02/22-rdf-syntax-ns#" xmlns:sodipodi="http://sodipodi.sourceforge.net/DTD/sodipodi-0.dtd" xmlns:svg="http://www.w3.org/2000/svg"
	 xmlns="http://www.w3.org/2000/svg" xmlns:xlink="http://www.w3.org/1999/xlink" x="0px" y="0px" viewBox="0 0 100 100"
	 style="enable-background:new 0 0 100 100;" xml:space="preserve">
<style type="text/css">
	.st0{fill:#4BADDC;}
</style>
<g transform="translate(0,-952.36218)">
	<path class="st0" d="M29.8,967.4c-7.5,0-15.1,2.7-22.8,7.9c-0.5,0.4-0.9,1-0.9,1.7v57.8c-0.4,1.2,0.7,2.7,2,2.6H92
		c0.8,0,1.6-0.6,1.9-1.4c0.1-0.3,0.2-0.7,0.1-1c0-26.4,0-31.4,0-58.1c0-0.6-0.3-1.3-0.8-1.6c-7.2-5.2-14.7-7.8-22.1-7.8
		c-7.1,0-14.1,2.4-21,7C42,969.4,37,967.4,29.8,967.4L29.8,967.4z M71,971.3c6.3,0,12.5,2.3,19,6.7c0,24,0,31.4,0,53.8
		c-6.8-3.9-12.9-6.1-19-6.1c-6.1,0-12.1,2.2-19,6.1v-54C58.5,973.5,64.8,971.3,71,971.3z M29.8,971.4c6.2,0,12.3,2.2,18.2,6.6v53.9
		c-7.1-4-13.9-6.2-20.5-6.2c-6.2,0-12.1,2-17.5,5.7V978C17,973.6,23.6,971.4,29.8,971.4L29.8,971.4z M27.6,1029.7
		c4.6,0,9.5,1.3,14.8,3.7H14.2C18.4,1030.8,22.8,1029.7,27.6,1029.7z M71,1029.8c4.2,0,8.5,1.2,13.4,3.6H57.6
		C62.5,1030.9,66.8,1029.8,71,1029.8z"/>
</g>
</svg>
