<?xml version="1.0" encoding="utf-8"?>
<!-- Generator: Adobe Illustrator 21.0.0, SVG Export Plug-In . SVG Version: 6.00 Build 0)  -->
<svg version="1.1" id="Calque_1" xmlns="http://www.w3.org/2000/svg" xmlns:xlink="http://www.w3.org/1999/xlink" x="0px" y="0px"
	 viewBox="0 0 100 100" style="enable-background:new 0 0 100 100;" xml:space="preserve">
<style type="text/css">
	.st0{fill:#A273D4;}
</style>
<path class="st0" d="M99,19.3L74,7.7c0,0-0.1,0-0.1,0c-0.1,0-0.1-0.1-0.2-0.1c-0.1,0-0.1,0-0.2,0c-0.1,0-0.1,0-0.2,0
	c-0.1,0-0.1,0-0.2,0c-0.1,0-0.1,0-0.2,0c-0.1,0-0.1,0-0.2,0c0,0,0,0-0.1,0L50,17.4L27.3,7.6c0,0,0,0-0.1,0c-0.1,0-0.1,0-0.2-0.1
	c-0.1,0-0.1,0-0.2-0.1c-0.1,0-0.1,0-0.2,0c-0.1,0-0.1,0-0.2,0c-0.1,0-0.1,0-0.2,0c-0.1,0-0.1,0-0.2,0.1c0,0,0,0,0,0l-25,10
	C0.4,17.9,0,18.5,0,19.2v71.7c0,0.6,0.3,1.1,0.7,1.4c0.3,0.2,0.6,0.3,0.9,0.3c0.2,0,0.4,0,0.6-0.1l24.4-9.8l22.7,9.7c0,0,0,0,0.1,0
	c0.2,0.1,0.4,0.1,0.6,0.1s0.4,0,0.6-0.1c0,0,0.1,0,0.1,0l22.7-9.7l24.4,9.8c0.2,0.1,0.4,0.1,0.6,0.1c0.3,0,0.6-0.1,0.9-0.3
	c0.4-0.3,0.7-0.8,0.7-1.4v-70C100,20.2,99.6,19.6,99,19.3z M3.3,20.3L25,11.6v68.1L3.3,88.4V20.3z M28.3,11.7l20,8.6v68l-20-8.6
	V11.7z M51.7,20.3l20-8.6v68l-20,8.6V20.3z M96.7,88.4L75,79.7V11.8l21.7,10.1V88.4z"/>
</svg>
