<?xml version="1.0" encoding="utf-8"?>
<!-- Generator: Adobe Illustrator 21.0.0, SVG Export Plug-In . SVG Version: 6.00 Build 0)  -->
<svg version="1.1" id="Calque_1" xmlns="http://www.w3.org/2000/svg" xmlns:xlink="http://www.w3.org/1999/xlink" x="0px" y="0px"
	 viewBox="0 0 100 100" style="enable-background:new 0 0 100 100;" xml:space="preserve">
<style type="text/css">
	.st0{display:none;}
	.st1{display:inline;}
	.st2{fill:#4BADDC;}
</style>
<g class="st0">
	<path class="st1" d="M1188.8,714.7H-49c-2.1,0-3.8-1.7-3.8-3.8V-476.2c0-2.1,1.7-3.8,3.8-3.8h1237.8c2.1,0,3.8,1.7,3.8,3.8V711
		C1192.6,713,1190.9,714.7,1188.8,714.7z"/>
</g>
<g>
	<g>
		<path class="st2" d="M66.6,47.7V25.1c0-9.1-7.4-16.6-16.6-16.6s-16.6,7.4-16.6,16.6v22.6c0,9.1,7.4,16.6,16.6,16.6
			S66.6,56.8,66.6,47.7z M36.5,49.2H45v-3h-8.5v-7H45v-3h-8.5v-7H45v-3h-8.5v-1c0-7.5,6.1-13.6,13.6-13.6s13.6,6.1,13.6,13.6v1H55v3
			h8.5v7H55v3h8.5v7H55v3h8.5C62.7,55.9,57,61.2,50,61.2S37.3,55.9,36.5,49.2z"/>
		<g>
			<rect x="34.9" y="87.5" class="st2" width="30.1" height="3"/>
			<path class="st2" d="M73.6,37.6v10c0,13-10.6,23.6-23.6,23.6S26.4,60.7,26.4,47.7v-10h-3v10c0,14.2,11.1,25.8,25.1,26.6v13.1h3
				V74.2c14-0.8,25.1-12.4,25.1-26.6v-10H73.6z"/>
		</g>
	</g>
</g>
</svg>
