<?xml version="1.0" encoding="utf-8"?>
<!-- Generator: Adobe Illustrator 21.0.0, SVG Export Plug-In . SVG Version: 6.00 Build 0)  -->
<svg version="1.1" id="Calque_1" xmlns="http://www.w3.org/2000/svg" xmlns:xlink="http://www.w3.org/1999/xlink" x="0px" y="0px"
	 viewBox="0 0 100 100" style="enable-background:new 0 0 100 100;" xml:space="preserve">
<style type="text/css">
	.st0{fill:#4BADDC;}
</style>
<g>
	<path class="st0" d="M90.1,97.4V2.6c0-1.4-1.1-2.6-2.6-2.6H31.8c-0.2,0-0.3,0-0.5,0.1c-0.1,0-0.2,0.1-0.3,0.1c-0.1,0-0.1,0-0.2,0.1
		c-0.1,0-0.2,0.1-0.3,0.2c0,0-0.1,0-0.1,0.1c-0.1,0.1-0.3,0.2-0.4,0.3L10.7,20.1c-0.1,0.1-0.2,0.2-0.3,0.4c0,0,0,0.1-0.1,0.1
		c-0.1,0.1-0.1,0.2-0.2,0.3c0,0,0,0.1,0,0.1c0,0.1-0.1,0.2-0.1,0.3c0,0.2-0.1,0.3-0.1,0.5v75.6c0,1.4,1.1,2.6,2.6,2.6h75
		C88.9,100,90.1,98.9,90.1,97.4z M29.3,8.7v10.6H18.7L29.3,8.7z M85,94.9H15V24.4h16.8c1.4,0,2.6-1.1,2.6-2.6V5.1h50.6L85,94.9
		L85,94.9z"/>
	<path class="st0" d="M27.6,40.8c-1.4,0-2.6,1.1-2.6,2.6s1.1,2.6,2.6,2.6h44.8c1.4,0,2.6-1.1,2.6-2.6s-1.1-2.6-2.6-2.6H27.6z"/>
	<path class="st0" d="M72.4,57.8H27.6c-1.4,0-2.6,1.1-2.6,2.6c0,1.4,1.1,2.6,2.6,2.6h44.8c1.4,0,2.6-1.1,2.6-2.6
		C75,58.9,73.8,57.8,72.4,57.8z"/>
	<path class="st0" d="M72.4,74.8H27.6c-1.4,0-2.6,1.1-2.6,2.6s1.1,2.6,2.6,2.6h44.8c1.4,0,2.6-1.1,2.6-2.6S73.8,74.8,72.4,74.8z"/>
</g>
</svg>
