<?xml version="1.0" encoding="utf-8"?>
<!-- Generator: Adobe Illustrator 21.0.0, SVG Export Plug-In . SVG Version: 6.00 Build 0)  -->
<svg version="1.1" id="Calque_1" xmlns="http://www.w3.org/2000/svg" xmlns:xlink="http://www.w3.org/1999/xlink" x="0px" y="0px"
	 viewBox="0 0 100 100" style="enable-background:new 0 0 100 100;" xml:space="preserve">
<style type="text/css">
	.st0{fill:#A273D4;}
</style>
<g>
	<path class="st0" d="M13.2,16H18c1.5,0,2.8-1.2,2.8-2.8s-1.2-2.8-2.8-2.8h-4.8c-1.5,0-2.8,1.2-2.8,2.8S11.7,16,13.2,16z"/>
	<path class="st0" d="M29.6,16h4.8c1.5,0,2.8-1.2,2.8-2.8s-1.2-2.8-2.8-2.8h-4.8c-1.5,0-2.8,1.2-2.8,2.8S28.1,16,29.6,16z"/>
	<path class="st0" d="M46.1,16h4.8c1.5,0,2.8-1.2,2.8-2.8s-1.2-2.8-2.8-2.8h-4.8c-1.5,0-2.8,1.2-2.8,2.8C43.3,14.8,44.6,16,46.1,16z
		"/>
	<path class="st0" d="M13.2,29.1H18c1.5,0,2.8-1.2,2.8-2.8c0-1.5-1.2-2.8-2.8-2.8h-4.8c-1.5,0-2.8,1.2-2.8,2.8
		C10.4,27.8,11.7,29.1,13.2,29.1z"/>
	<path class="st0" d="M29.6,29.1h4.8c1.5,0,2.8-1.2,2.8-2.8c0-1.5-1.2-2.8-2.8-2.8h-4.8c-1.5,0-2.8,1.2-2.8,2.8
		C26.9,27.8,28.1,29.1,29.6,29.1z"/>
	<path class="st0" d="M46.1,29.1h4.8c1.5,0,2.8-1.2,2.8-2.8c0-1.5-1.2-2.8-2.8-2.8h-4.8c-1.5,0-2.8,1.2-2.8,2.8
		C43.3,27.8,44.6,29.1,46.1,29.1z"/>
	<path class="st0" d="M13.2,42.1H18c1.5,0,2.8-1.2,2.8-2.8s-1.2-2.8-2.8-2.8h-4.8c-1.5,0-2.8,1.2-2.8,2.8S11.7,42.1,13.2,42.1z"/>
	<path class="st0" d="M29.6,42.1h4.8c1.5,0,2.8-1.2,2.8-2.8s-1.2-2.8-2.8-2.8h-4.8c-1.5,0-2.8,1.2-2.8,2.8S28.1,42.1,29.6,42.1z"/>
	<path class="st0" d="M46.1,42.1h4.8c1.5,0,2.8-1.2,2.8-2.8s-1.2-2.8-2.8-2.8h-4.8c-1.5,0-2.8,1.2-2.8,2.8S44.6,42.1,46.1,42.1z"/>
	<path class="st0" d="M13.2,55.1H18c1.5,0,2.8-1.2,2.8-2.8c0-1.5-1.2-2.8-2.8-2.8h-4.8c-1.5,0-2.8,1.2-2.8,2.8
		C10.4,53.8,11.7,55.1,13.2,55.1z"/>
	<path class="st0" d="M29.6,55.1h4.8c1.5,0,2.8-1.2,2.8-2.8c0-1.5-1.2-2.8-2.8-2.8h-4.8c-1.5,0-2.8,1.2-2.8,2.8
		C26.9,53.8,28.1,55.1,29.6,55.1z"/>
	<path class="st0" d="M46.1,55.1h4.8c1.5,0,2.8-1.2,2.8-2.8c0-1.5-1.2-2.8-2.8-2.8h-4.8c-1.5,0-2.8,1.2-2.8,2.8
		C43.3,53.8,44.6,55.1,46.1,55.1z"/>
	<path class="st0" d="M20.7,65.3c0-1.5-1.2-2.8-2.8-2.8h-4.8c-1.5,0-2.8,1.2-2.8,2.8c0,1.5,1.2,2.8,2.8,2.8H18
		C19.5,68.1,20.7,66.8,20.7,65.3z"/>
	<path class="st0" d="M29.6,68.1h4.8c1.5,0,2.8-1.2,2.8-2.8c0-1.5-1.2-2.8-2.8-2.8h-4.8c-1.5,0-2.8,1.2-2.8,2.8S28.1,68.1,29.6,68.1
		z"/>
	<path class="st0" d="M46.1,68.1h4.8c1.5,0,2.8-1.2,2.8-2.8c0-1.5-1.2-2.8-2.8-2.8h-4.8c-1.5,0-2.8,1.2-2.8,2.8
		C43.3,66.8,44.6,68.1,46.1,68.1z"/>
	<path class="st0" d="M97.2,31.8H64.1v-29c0-1.5-1.2-2.8-2.8-2.8H2.8C1.2,0,0,1.2,0,2.8v94.4c0,1.5,1.2,2.8,2.8,2.8h94.4
		c1.5,0,2.8-1.2,2.8-2.8V34.6C100,33.1,98.8,31.8,97.2,31.8z M5.6,5.6h53v88.9h-15V76.5c0-1.5-1.2-2.8-2.8-2.8H23.3
		c-1.5,0-2.8,1.2-2.8,2.8v17.9h-15V5.6z M26.1,94.4V79.3H38v15.1H26.1z M94.4,94.4H64.1V37.4h30.4V94.4z"/>
	<path class="st0" d="M71.8,48.6h14.9c1.5,0,2.8-1.2,2.8-2.8c0-1.5-1.2-2.8-2.8-2.8H71.8c-1.5,0-2.8,1.2-2.8,2.8
		C69,47.3,70.3,48.6,71.8,48.6z"/>
	<path class="st0" d="M71.8,62h14.9c1.5,0,2.8-1.2,2.8-2.8c0-1.5-1.2-2.8-2.8-2.8H71.8c-1.5,0-2.8,1.2-2.8,2.8
		C69,60.7,70.3,62,71.8,62z"/>
	<path class="st0" d="M71.8,75.4h14.9c1.5,0,2.8-1.2,2.8-2.8c0-1.5-1.2-2.8-2.8-2.8H71.8c-1.5,0-2.8,1.2-2.8,2.8
		C69,74.1,70.3,75.4,71.8,75.4z"/>
	<path class="st0" d="M71.8,88.8h14.9c1.5,0,2.8-1.2,2.8-2.8c0-1.5-1.2-2.8-2.8-2.8H71.8c-1.5,0-2.8,1.2-2.8,2.8
		S70.3,88.8,71.8,88.8z"/>
</g>
</svg>
