<?xml version="1.0" encoding="utf-8"?>
<!-- Generator: Adobe Illustrator 21.0.0, SVG Export Plug-In . SVG Version: 6.00 Build 0)  -->
<svg version="1.1" id="Calque_1" xmlns="http://www.w3.org/2000/svg" xmlns:xlink="http://www.w3.org/1999/xlink" x="0px" y="0px"
	 viewBox="0 0 100 100" style="enable-background:new 0 0 100 100;" xml:space="preserve">
<style type="text/css">
	.st0{fill:#4BADDC;}
</style>
<title>Artboard 17</title>
<path class="st0" d="M59.3,95.6h22.2c1.7,0,3-1.3,3-3V44.5l6,5.8c1.2,1.2,3.1,1.1,4.3-0.1c1.2-1.2,1.1-3.1-0.1-4.3L52.1,5.2
	c-1.2-1.1-3-1.1-4.2,0L5.3,46c-1.2,1.1-1.2,3-0.1,4.2c1.1,1.2,3,1.2,4.2,0.1l0,0l6-5.8v48c0,1.7,1.3,3,3,3l0,0h22.3c1.7,0,3-1.3,3-3
	V73.4h12.5v19.2C56.3,94.3,57.6,95.6,59.3,95.6z M40.7,67.4c-1.7,0-3,1.3-3,3v19.2H21.5V38.8L50,11.5l28.5,27.3v50.8H62.3V70.4
	c0-1.7-1.3-3-3-3H40.7z"/>
</svg>
