<?xml version="1.0" encoding="utf-8"?>
<!-- Generator: Adobe Illustrator 21.0.0, SVG Export Plug-In . SVG Version: 6.00 Build 0)  -->
<svg version="1.1" id="Calque_1" xmlns="http://www.w3.org/2000/svg" xmlns:xlink="http://www.w3.org/1999/xlink" x="0px" y="0px"
	 viewBox="0 0 100 100" style="enable-background:new 0 0 100 100;" xml:space="preserve">
<style type="text/css">
	.st0{fill:#A273D4;}
</style>
<g>
	<g>
		<path class="st0" d="M89.6,43.8H60.4c-1.2,0-2.1,0.9-2.1,2.1c0,1.2,0.9,2.1,2.1,2.1h29.2c1.1,0,2.1-0.9,2.1-2.1
			C91.7,44.7,90.7,43.8,89.6,43.8z M89.6,27.1H62.5v-6.2c0-5.7-4.7-10.4-10.4-10.4s-10.4,4.7-10.4,10.4v6.2H10.4
			C4.7,27.1,0,31.8,0,37.5v41.7c0,5.7,4.7,10.4,10.4,10.4h79.2c5.7,0,10.4-4.7,10.4-10.4V37.5C100,31.8,95.3,27.1,89.6,27.1z
			 M45.8,20.8c0-3.4,2.8-6.3,6.2-6.3c3.4,0,6.2,2.8,6.2,6.3v10.4H45.8V20.8z M95.8,79.2c0,3.4-2.8,6.2-6.2,6.2H10.4
			c-3.4,0-6.3-2.8-6.3-6.2V37.5c0-3.4,2.8-6.2,6.3-6.2h31.2v2.1c0,1.2,0.9,2.1,2.1,2.1h16.7c1.1,0,2.1-0.9,2.1-2.1v-2.1h27.1
			c3.4,0,6.2,2.8,6.2,6.2V79.2z M52.1,18.8c-1.1,0-2.1,0.9-2.1,2.1c0,1.1,0.9,2.1,2.1,2.1c1.2,0,2.1-0.9,2.1-2.1
			C54.2,19.7,53.2,18.8,52.1,18.8z M45.6,68.1l-6.3-1.6l-0.3-1c1.6-1.8,2.8-4.1,3.3-6.5c1.1-0.6,1.9-1.7,2.1-3l0.4-3.6
			c0.1-1.1-0.2-2.2-0.9-3c-0.2-0.3-0.5-0.5-0.8-0.7l0.1-2.2l0.4-0.4c1.1-1.1,2.5-3.6,0.2-7.1c-1.1-1.7-3.3-3.7-7.9-3.7
			c-1.3,0-4.3,0-7.2,1.8c-8.6,0.3-9.6,4.9-9.6,8.4c0,0.7,0.1,2,0.2,3.1c-0.3,0.2-0.6,0.4-0.8,0.7c-0.7,0.8-1.1,2-0.9,3.1l0.5,3.6
			c0.2,1.4,1,2.5,2.3,3c0.5,2.3,1.6,4.5,3.1,6.2l-0.3,1.2l-6.3,1.6c-5.1,1.3-8.6,5.8-8.6,11c0,0.6,0.2,1.1,0.6,1.5
			c0.4,0.4,0.9,0.6,1.5,0.6l41.7,0c1.2,0,2.1-0.9,2.1-2.1C54.2,73.9,50.6,69.4,45.6,68.1z M12.8,77.1c0.7-2.4,2.6-4.3,5.2-4.9
			l7.5-1.9c0.7-0.2,1.3-0.8,1.5-1.5l0.9-3.6c0.2-0.7,0-1.5-0.6-2c-1.6-1.5-2.7-3.8-2.9-6c-0.1-1.1-1-1.7-2.1-1.7l-0.5-3.3
			c0.6,0,1.2-0.3,1.6-0.7c0.4-0.4,0.6-1,0.5-1.6c-0.2-1.3-0.4-3.5-0.4-4.3c0-2.2,0-4.2,6.1-4.3c0.4,0,0.8-0.1,1.2-0.4
			c2-1.4,4.3-1.4,5.4-1.4c2.2,0,3.6,0.6,4.4,1.8c0.8,1.3,0.5,1.7,0.3,1.9l-0.9,0.9c-0.4,0.4-0.6,0.9-0.6,1.4l-0.2,4.5
			c0,0.6,0,1,0.4,1.4c0.4,0.4,0.8,0.5,1.4,0.5l-0.3,3.4c-1.1,0-2,0.8-2.1,1.9c-0.2,2.2-1.3,4.6-3,6.1c-0.6,0.5-0.8,1.3-0.6,2.1
			l0.9,3.4c0.2,0.7,0.8,1.3,1.5,1.5l7.5,1.9c2.5,0.6,4.4,2.5,5.1,4.9L12.8,77.1z M89.6,56.2H60.4c-1.2,0-2.1,0.9-2.1,2.1
			c0,1.2,0.9,2.1,2.1,2.1h29.2c1.1,0,2.1-0.9,2.1-2.1C91.7,57.2,90.7,56.2,89.6,56.2z M89.6,68.8H60.4c-1.2,0-2.1,0.9-2.1,2.1
			c0,1.1,0.9,2.1,2.1,2.1h29.2c1.1,0,2.1-0.9,2.1-2.1C91.7,69.7,90.7,68.8,89.6,68.8z"/>
	</g>
</g>
</svg>
