<?xml version="1.0" encoding="utf-8"?>
<!-- Generator: Adobe Illustrator 21.0.0, SVG Export Plug-In . SVG Version: 6.00 Build 0)  -->
<svg version="1.1"
	 id="Calque_1" xmlns:cc="http://creativecommons.org/ns#" xmlns:dc="http://purl.org/dc/elements/1.1/" xmlns:inkscape="http://www.inkscape.org/namespaces/inkscape" xmlns:rdf="http://www.w3.org/1999/02/22-rdf-syntax-ns#" xmlns:sodipodi="http://sodipodi.sourceforge.net/DTD/sodipodi-0.dtd" xmlns:svg="http://www.w3.org/2000/svg"
	 xmlns="http://www.w3.org/2000/svg" xmlns:xlink="http://www.w3.org/1999/xlink" x="0px" y="0px" viewBox="0 0 100 100"
	 style="enable-background:new 0 0 100 100;" xml:space="preserve">
<style type="text/css">
	.st0{fill:#4BADDC;}
</style>
<g transform="translate(0,-952.36218)">
	<path class="st0" d="M22,957.4c-2.1,0-4,2-4,4v8h6v-6h60v78H24v-6h-6v8c0,2,1.9,4,4,4h64c2.1,0,4-2,4-4v-82c0-2-1.9-4-4-4H22z
		 M13,971.4c-1.7,0-3,1.3-3,3v2c0,1.7,1.3,3,3,3h16c1.7,0,3-1.3,3-3v-2c0-1.7-1.3-3-3-3H13z M58,976.4c-6,0-11,5-11,11s5,11,11,11
		s11-5,11-11S64,976.4,58,976.4z M18,981.4v6h6v-6H18z M57.5,982.4c0.2,0,0.4,0,0.5,0c2.8,0,5,2.2,5,5s-2.2,5-5,5s-5-2.2-5-5
		C53,984.7,54.9,982.6,57.5,982.4z M13,989.4c-1.7,0-3,1.3-3,3v2c0,1.7,1.3,3,3,3h16c1.7,0,3-1.3,3-3v-2c0-1.7-1.3-3-3-3H13z
		 M18,999.4v6h6v-6H18z M58,999.4c-5.7,0-10.9,1.3-14.9,3.6c-4,2.3-7.1,6-7.1,10.4v12c0,1.6,1.4,3,3,3h38c1.6,0,3-1.4,3-3v-12
		c0-4.5-3-8.1-7.1-10.4C68.9,1000.6,63.7,999.4,58,999.4z M58,1005.4c4.8,0,9.1,1.1,11.9,2.8c2.9,1.6,4.1,3.5,4.1,5.2v9H42v-9
		c0-1.7,1.2-3.6,4.1-5.2C48.9,1006.5,53.2,1005.4,58,1005.4z M13,1007.4c-1.7,0-3,1.3-3,3v2c0,1.7,1.3,3,3,3h16c1.7,0,3-1.3,3-3v-2
		c0-1.7-1.3-3-3-3H13z M18,1017.4v6h6v-6H18z M13,1025.4c-1.7,0-3,1.3-3,3v2c0,1.7,1.3,3,3,3h16c1.7,0,3-1.3,3-3v-2c0-1.7-1.3-3-3-3
		H13z"/>
</g>
</svg>
