<?xml version="1.0" encoding="utf-8"?>
<!-- Generator: Adobe Illustrator 21.0.0, SVG Export Plug-In . SVG Version: 6.00 Build 0)  -->
<svg version="1.1" id="Calque_1" xmlns="http://www.w3.org/2000/svg" xmlns:xlink="http://www.w3.org/1999/xlink" x="0px" y="0px"
	 viewBox="0 0 100 100" style="enable-background:new 0 0 100 100;" xml:space="preserve">
<style type="text/css">
	.st0{display:none;stroke:#000000;stroke-miterlimit:10;}
	.st1{fill:#A273D4;}
</style>
<rect x="-100" y="-113.1" class="st0" width="100" height="100"/>
<rect y="-113.1" class="st0" width="100" height="100"/>
<rect x="100" y="-113.1" class="st0" width="100" height="100"/>
<rect x="-100" y="-13.1" class="st0" width="100" height="100"/>
<rect y="-13.1" class="st0" width="100" height="100"/>
<rect x="100" y="-13.1" class="st0" width="100" height="100"/>
<rect x="-100" y="86.9" class="st0" width="100" height="100"/>
<rect y="86.9" class="st0" width="100" height="100"/>
<rect x="100" y="86.9" class="st0" width="100" height="100"/>
<path class="st1" d="M2.1,22.2C-0.7,25-0.7,29.4,2,32.2l0,0l0,0c0,0,0,0.1,0.1,0.1c0,0,0.1,0,0.1,0.1l47.6,47.6l0.2-0.2l0.2,0.2
	l47.8-47.8l0,0c2.8-2.8,2.8-7.3,0-10c-2.8-2.8-7.3-2.8-10,0l0,0L50,60L12,22.1l0,0C9.2,19.5,4.8,19.5,2.1,22.2z"/>
</svg>
