<?xml version="1.0" encoding="utf-8"?>
<!-- Generator: Adobe Illustrator 21.0.0, SVG Export Plug-In . SVG Version: 6.00 Build 0)  -->
<svg version="1.1" id="Calque_1" xmlns="http://www.w3.org/2000/svg" xmlns:xlink="http://www.w3.org/1999/xlink" x="0px" y="0px"
	 viewBox="0 0 100 100" style="enable-background:new 0 0 100 100;" xml:space="preserve">
<style type="text/css">
	.st0{fill:#32425B;}
</style>
<path class="st0" d="M9.8,80.3v-8.2c19.2-6.2,8.6-41.1,27-51.7c2.5-1.5,4.1-4.1,4.1-7.1l0,0c0-4.5,3.7-8.2,8.2-8.2s8.2,3.7,8.2,8.2
	l0,0c0,2.9,1.6,5.6,4.1,7.1c18.3,10.5,7.8,45.5,27,51.7v8.2H9.8z M49.3,98.3c-6.2,0-11.2-5-11.2-11.2c0,0,0,0,0,0h22.5
	C60.5,93.3,55.5,98.3,49.3,98.3L49.3,98.3z"/>
</svg>
