<?xml version="1.0" encoding="utf-8"?>
<!-- Generator: Adobe Illustrator 21.0.0, SVG Export Plug-In . SVG Version: 6.00 Build 0)  -->
<svg version="1.1" id="Layer_1" xmlns="http://www.w3.org/2000/svg" xmlns:xlink="http://www.w3.org/1999/xlink" x="0px" y="0px"
	 viewBox="0 0 512 512" style="enable-background:new 0 0 512 512;" xml:space="preserve">
<style type="text/css">
	.st0{fill:#FFFFFF;}
</style>
<path class="st0" d="M411.8,309.9c0,6.1,4.9,11,11,11s11-4.9,11-11V143.4c0-6.1-4.9-11-11-11H89.2c-6.1,0-11,4.9-11,11v166.4
	c0,6.1,4.9,11,11,11s11-4.9,11-11V154.4h311.7V309.9L411.8,309.9z"/>
<path class="st0" d="M502.1,349.2h-20.3V117.8c0-18.4-14.9-33.3-33.3-33.3h-385c-18.4,0-33.3,14.9-33.3,33.3v231.4H9.9
	c-5.5,0-9.9,4.4-9.9,9.9v19.5c0,27,21.9,48.9,48.9,48.9h414.2c27,0,48.9-21.9,48.9-48.9v-19.5C512,353.6,507.6,349.2,502.1,349.2z
	 M52.2,117.8c0-6.2,5.1-11.3,11.3-11.3h385c6.2,0,11.3,5.1,11.3,11.3v231.4H310.5c-0.7,0-1.4,0-2.1,0.2c-4.7,0.9-8,5-8,9.7
	c0,8.4-6.8,15.2-15.2,15.2h-58.4c-8.4,0-15.2-6.8-15.2-15.2c0-5.6-4.6-10-10.1-9.9H52.2V117.8z M492.2,378.6
	c0,16-13.1,29.1-29.1,29.1H48.9c-16,0-29.1-13-29.1-29.1V369h173.4c4.3,14.5,17.7,25.1,33.6,25.1h58.4c15.9,0,29.3-10.6,33.6-25.1
	h173.4L492.2,378.6L492.2,378.6z"/>
<path class="st0" d="M272.3,212c4.3-4.3,4.3-11.3,0-15.6c-4.3-4.3-11.3-4.3-15.6,0l-69.3,69.3c-4.3,4.3-4.3,11.3,0,15.6
	c2.2,2.2,5,3.2,7.8,3.2s5.6-1.1,7.8-3.2L272.3,212z"/>
<path class="st0" d="M297.8,236.6l-27.6,27.6c-4.3,4.3-4.3,11.3,0,15.6c2.2,2.2,5,3.2,7.8,3.2c2.8,0,5.6-1.1,7.8-3.2l27.6-27.6
	c4.3-4.3,4.3-11.3,0-15.6C309.1,232.3,302.1,232.3,297.8,236.6z"/>
</svg>
