<?xml version="1.0" encoding="utf-8"?>
<!-- Generator: Adobe Illustrator 21.0.0, SVG Export Plug-In . SVG Version: 6.00 Build 0)  -->
<svg version="1.1" id="Layer_1" xmlns="http://www.w3.org/2000/svg" xmlns:xlink="http://www.w3.org/1999/xlink" x="0px" y="0px"
	 viewBox="0 0 512 512" style="enable-background:new 0 0 512 512;" xml:space="preserve">
<style type="text/css">
	.st0{fill:#FFFFFF;}
</style>
<g>
	<circle class="st0" cx="256" cy="256.4" r="52.9"/>
	<circle class="st0" cx="112.8" cy="132.2" r="16.2"/>
	<circle class="st0" cx="155.9" cy="487" r="16.2"/>
	<circle class="st0" cx="358.3" cy="187.9" r="16.2"/>
	<path class="st0" d="M324.4,154.8c2.8-4.2,0-6.3,0-6.3c-20.5-13.4-43-20.5-69.1-20.5c-70.5,0-127.6,57.1-127.6,127.6
		s57.1,127.6,127.6,127.6s127.6-57.1,127.6-127.6c0-12.7-0.7-21.2-4.2-32.4c0,0-1.4-4.9-5.6-3.5c-2.8,0.7-2.8,4.9-2.8,6.3
		c2.1,9.2,2.8,19.7,2.8,29.6c0,64.9-52.2,117.1-117.1,117.1s-117.1-52.2-117.1-117.1s52.2-117,117.1-117c22.6,0,43.7,6.3,61.4,16.9
		C318.8,156.9,322.3,157.6,324.4,154.8z"/>
	<path class="st0" d="M91.7,166.8c-1.4-0.7-4.2-1.4-7.1,0.7c-14.1,26.8-21.9,56.4-21.9,88.9c0,106.5,86,192.5,192.5,192.5
		s192.5-86,192.5-192.5C448.5,149.9,362.5,63.8,256,63.8c-42.3,0-81.8,13.4-113.5,36.7c0,0-1.4,4.2,0.7,7.1c1.4,1.4,4.9,2.1,7.1,1.4
		c29.6-21.2,65.6-33.1,104.4-33.1c100.1,0,181.2,81.1,181.2,181.2s-81.1,181.2-181.2,181.2S73.3,357.2,73.3,257.1
		c0-31,7.8-59.9,21.2-85.3l0,0C94.5,171.7,95.9,168.9,91.7,166.8z M142.5,101.2L142.5,101.2L142.5,101.2z"/>
	<path class="st0" d="M209.5,507.4c14.8,2.8,31,4.2,46.5,4.2c141,0,256-114.2,256-256S397,0.4,256,0.4C114.2,0.4,0,114.6,0,256.4
		c0,86.7,43,162.2,105.8,207.3c0.7,0.7,4.2,3.5,5.6,0c2.1-3.5,1.4-4.9-2.1-7.8c-39.5-29.6-71.2-70.5-88.2-120.6
		C-21.9,207,46.5,68.1,174.9,25s267.3,25.4,310.3,153.7c43,128.4-25.4,267.3-153.7,310.3c-39.5,13.5-79.7,16.3-118.5,10l0,0
		c0,0-5.6-1.4-6.3,4.2C205.9,506,206.6,507.4,209.5,507.4z"/>
</g>
</svg>
