<?xml version="1.0" encoding="iso-8859-1"?>
<!-- Generator: Adobe Illustrator 18.1.1, SVG Export Plug-In . SVG Version: 6.00 Build 0)  -->
<svg version="1.1" id="Calque_1" xmlns="http://www.w3.org/2000/svg" xmlns:xlink="http://www.w3.org/1999/xlink" x="0px" y="0px"
	 viewBox="0 0 1000 1000" style="enable-background:new 0 0 1000 1000;" xml:space="preserve">
<g transform="scale(1 -1)">
	<g transform="translate(0 -96)">
		<g>
			<linearGradient id="SVGID_1_" gradientUnits="userSpaceOnUse" x1="499.2975" y1="-70.7404" x2="499.2975" y2="-729.9512">
				<stop  offset="0" style="stop-color:#4BADDC"/>
				<stop  offset="1" style="stop-color:#976CAC"/>
			</linearGradient>
			<path marker-start="none" marker-end="none" style="fill:url(#SVGID_1_);" d="M154.804-714.321
				c-1.809,0.699-3.768,1.61-4.916,2.134l-12.715,5.815l-2.471,37.883l-2.059,1.36c-8.186,5.89-15.722,12.453-22.598,19.566
				l-1.36,1.535l-37.933-3.082l-7.574,11.892c-24.207,38.021-35.425,83.803-30.384,129.747l1.535,13.988l35.388,14.075l0.574,2.084
				c1.535,4.754,3.282,9.458,5.228,14.1c1.959,4.667,4.105,9.209,6.439,13.614l1.073,1.847l-14.662,35.201l8.947,10.881
				c29.323,35.65,69.877,59.645,113.987,68.904l13.801,2.907l24.332-29.298l2.034,0.1c9.883,0.05,19.84-0.761,29.76-2.471
				l2.396-0.537l28.862,24.756l13.052-5.054c1.485-0.574,3.07-1.21,4.667-1.872c42.188-17.781,75.168-48.377,96.293-85.312
				l6.988-12.216l-20.364-32.231l0.774-2.059c3.107-9.433,5.391-19.154,6.825-29.036l0.237-2.308l32.605-19.878l-0.861-14.075
				c-1.36-22.061-6.376-44.26-15.373-65.697c-9.084-21.487-21.462-40.666-36.324-57.05l-9.471-10.432l-36.973,9.446l-1.784-1.435
				c-8.073-5.902-16.633-11.068-25.568-15.435l-1.984-0.873l-8.81-37.047l-13.601-3.556
				C241.639-734.186,196.655-731.953,154.804-714.321z M246.855-682.452l10.818,1.922l7.574,31.856l11.517,4.43
				c13.426,5.153,25.942,12.69,36.91,22.298l9.271,8.136l31.619-8.098l7.337,9.596c4.667,7.3,8.797,15.123,12.291,23.409
				c3.456,8.236,6.152,16.608,8.111,25.043l2.196,11.68l-28.3,17.257l-0.699,12.266c-0.811,14.574-4.193,28.837-9.87,42.126
				l-4.841,11.305l17.457,27.626l-6.189,9.072c-12.89,15.984-29.124,29.573-48.215,39.58l-2.795,1.31l-25.143-21.55l-11.917,3.182
				c-14.25,3.818-28.774,4.941-42.949,3.619l-12.278-1.135l-21.188,25.493l-11.48-3.968c-16.084-6.326-31.095-15.323-44.297-26.666
				l-9.134-8.56l12.79-30.646l-6.701-10.344c-3.856-5.965-7.25-12.366-10.095-19.116c-2.87-6.85-5.091-13.776-6.638-20.651
				l-2.708-12.041l-30.871-12.278L78.7-538.83c1.111-17.382,5.178-34.402,11.892-50.312l5.203-10.993l33.029,2.683l7.774-9.571
				c8.959-11.056,19.927-20.651,32.643-28.2l10.619-6.289l2.109-32.792l-9.658,3.394
				C196.83-681.255,222.323-684.798,246.855-682.452z M697.762-643.671l-29.311,0.487c-11.193,0.05-21.649,6.264-27.14,16.271
				l-21.35,39.331l-17.095,5.253l-39.393-20.776c-10.207-5.453-22.273-4.617-31.657,1.348l-25.193,16.309l-2.92,2.383
				l-30.983,27.864l-2.259,2.346l-26.429,33.104l-1.235,1.622l-0.487,0.749l-0.574,0.849l-15.011,26.828
				c-5.665,10.032-5.253,22.186,0.649,31.744l23.334,37.896l-2.321,8.859l-1.784,8.747l-37.759,23.808
				c-9.446,6.039-15.073,16.633-14.524,28.038l1.635,31.058l0.474,3.12l9.309,42.226l0.487,1.46l0.599,1.697l15.66,39.306
				l1.398,2.783l15.273,25.505c5.84,9.396,16.159,15.398,27.689,15.049l44.547-1.185l13.114,12.303l1.722,44.609
				c0.449,11.442,7.088,21.425,16.933,26.591l26.815,13.639l2.907,1.086l41.14,13.239l3.082,0.724l42.812,6.351l3.194,0.312
				l30.147-0.449c10.419-0.449,21.213-5.79,26.828-16.546l21.163-39.006l17.332-5.303l39.268,20.676
				c9.758,5.241,22.211,5.029,31.881-1.51l24.295-15.697l2.234-1.547l1.173-1.048l31.07-28.051l2.259-2.321l27.102-33.816
				l0.649-1.023l0.998-1.447l15.148-27.065c5.241-9.533,5.603-21.899-0.911-31.857l-23.134-37.659l2.321-8.884l1.772-8.71
				l37.409-23.584c10.307-6.102,15.348-17.432,14.836-28.238l-1.597-30.646l-0.387-3.219l-9.408-42.226l-0.923-3.007l-15.785-39.568
				l-1.373-2.808l-15.311-25.555c-5.915-9.82-16.471-15.348-27.539-15.198l-44.821,1.173L836.83-537.07l-1.76-44.622
				c-0.387-11.006-6.751-21.649-17.22-26.778l-26.241-13.426l-2.957-1.173l-40.978-13.052l-2.982-0.824l-43.149-6.414l-1.997-0.225
				l-0.848-0.037L697.762-643.671z M200.736-604.302c-41.44,17.457-60.943,65.235-43.474,106.675
				c17.407,41.465,65.235,60.955,106.662,43.474c41.465-17.407,60.943-65.223,43.474-106.662
				C289.991-602.243,242.163-621.734,200.736-604.302z M696.227-596.865l38.57,5.752l37.696,11.991l16.172,8.273l2.209,55.989
				l13.389,11.318c5.016,4.292,9.733,8.685,14.237,13.376l12.366,12.603l55.802-1.485l9.496,15.847l14.188,35.562l8.373,37.546
				l1.023,19.578l-47.217,29.785l-3.282,17.569c-0.512,3.057-1.16,6.114-1.922,9.421c-0.711,3.132-1.51,6.177-2.408,9.221
				l-4.941,17.082l29.336,47.741l-9.496,16.958l-24.058,30.01l-28.438,25.692l-15.623,10.07l-49.575-26.092l-16.621,6.152
				c-5.977,2.121-12.278,4.03-18.468,5.64l-17.033,4.018l-26.84,49.401l-18.006,0.274l-38.907-5.777l-37.522-12.066l-16.109-8.186
				l-2.146-55.964l-13.489-11.318c-4.904-4.155-9.658-8.647-14.225-13.364l-12.353-12.665l-55.864,1.472l-9.496-15.86
				l-14.213-35.687l-8.298-37.646l-1.011-19.304l47.167-29.723l3.394-17.582c0.487-3.144,1.111-6.114,1.909-9.471
				c0.724-3.232,1.472-6.114,2.408-9.134l4.891-17.32l-29.311-47.604l9.371-16.733l24.158-30.272l28.712-25.817l15.36-9.933
				l49.351,26.017l16.82-5.89c6.089-2.234,12.303-4.118,18.655-5.727l17.057-4.38l26.603-49.064L696.227-596.865z M264.261-542.661
				c7.437,17.631-0.861,37.971-18.493,45.37c-17.619,7.449-37.971-0.836-45.37-18.492c-7.437-17.607,0.836-37.958,18.492-45.383
				C236.51-568.59,256.862-560.28,264.261-542.661z M590.001-434.763c-42.85,50.037-36.972,125.429,13.114,168.192
				c50.012,42.862,125.417,36.985,168.179-13.114c42.837-50,36.948-125.392-13.127-168.179
				C708.169-490.677,632.776-484.787,590.001-434.763z M727.759-412.315c30.434,26.017,34.003,71.836,7.961,102.22
				c-25.967,30.434-71.799,34.015-102.195,7.973c-30.422-25.992-34.003-71.811-7.974-102.208
				C651.556-434.738,697.4-438.307,727.759-412.315z"/>
		</g>
	</g>
</g>
<g>
</g>
<g>
</g>
<g>
</g>
<g>
</g>
<g>
</g>
<g>
</g>
</svg>
