<?xml version="1.0" encoding="iso-8859-1"?>
<!-- Generator: Adobe Illustrator 18.1.1, SVG Export Plug-In . SVG Version: 6.00 Build 0)  -->
<svg version="1.1" id="Calque_1" xmlns="http://www.w3.org/2000/svg" xmlns:xlink="http://www.w3.org/1999/xlink" x="0px" y="0px"
	 viewBox="0 0 1000 1000" style="enable-background:new 0 0 1000 1000;" xml:space="preserve">
<g>
	<linearGradient id="SVGID_1_" gradientUnits="userSpaceOnUse" x1="644.2971" y1="96.6897" x2="644.2971" y2="617.5078">
		<stop  offset="0" style="stop-color:#4BADDC"/>
		<stop  offset="1" style="stop-color:#976CAC"/>
	</linearGradient>
	<path style="fill:url(#SVGID_1_);" d="M473.015,147.477H815.58c20.912,0,38.837,16.929,38.837,38.837v342.565
		c0,20.912-16.929,38.837-38.837,38.837v49.791c48.796,0,88.629-39.833,88.629-88.629V185.318c0-48.796-39.833-88.629-88.629-88.629
		H473.015c-48.796,0-88.629,39.833-88.629,88.629h49.791C434.177,164.406,451.107,147.477,473.015,147.477z"/>
	<linearGradient id="SVGID_2_" gradientUnits="userSpaceOnUse" x1="499.9021" y1="240.0889" x2="499.9021" y2="759.9111">
		<stop  offset="0" style="stop-color:#4BADDC"/>
		<stop  offset="1" style="stop-color:#976CAC"/>
	</linearGradient>
	<path style="fill:url(#SVGID_2_);" d="M328.62,289.88h342.565c20.912,0,38.837,16.929,38.837,38.837v342.565
		c0,20.912-16.929,38.837-38.837,38.837v49.791c48.796,0,88.629-39.833,88.629-88.629V328.718c0-48.796-39.833-88.629-88.629-88.629
		H328.62c-48.796,0-88.629,39.833-88.629,88.629h49.791C289.782,307.805,306.711,289.88,328.62,289.88z"/>
	<linearGradient id="SVGID_3_" gradientUnits="userSpaceOnUse" x1="356.5029" y1="383.4882" x2="356.5029" y2="903.3104">
		<stop  offset="0" style="stop-color:#4BADDC"/>
		<stop  offset="1" style="stop-color:#976CAC"/>
	</linearGradient>
	<path style="fill:url(#SVGID_3_);" d="M185.22,903.31h342.565c48.796,0,88.629-39.833,88.629-88.629V472.117
		c0-48.796-39.833-88.629-88.629-88.629H185.22c-48.796,0-88.629,39.833-88.629,88.629v342.565
		C96.592,863.477,136.425,903.31,185.22,903.31z M146.383,472.117c0-20.912,16.929-38.837,38.837-38.837h342.565
		c20.912,0,38.837,16.929,38.837,38.837v342.565c0,20.912-16.929,38.837-38.837,38.837H185.22
		c-20.912,0-38.837-16.929-38.837-38.837V472.117z"/>
</g>
<g>
</g>
<g>
</g>
<g>
</g>
<g>
</g>
<g>
</g>
<g>
</g>
</svg>
