<?xml version="1.0" encoding="utf-8"?>
<!-- Generator: Adobe Illustrator 21.0.0, SVG Export Plug-In . SVG Version: 6.00 Build 0)  -->
<svg version="1.1" id="Calque_1" xmlns="http://www.w3.org/2000/svg" xmlns:xlink="http://www.w3.org/1999/xlink" x="0px" y="0px"
	 viewBox="0 0 316.1 53.8" style="enable-background:new 0 0 316.1 53.8;" xml:space="preserve">
<style type="text/css">
	.st0{fill:url(#SVGID_1_);}
	.st1{fill:url(#SVGID_2_);}
	.st2{fill:url(#SVGID_3_);}
	.st3{fill:url(#SVGID_4_);}
	.st4{fill:url(#SVGID_5_);}
	.st5{fill:#FFFFFF;}
	.st6{fill:#4CAED0;}
	.st7{fill:url(#SVGID_6_);}
</style>
<g>
	<g>
		<linearGradient id="SVGID_1_" gradientUnits="userSpaceOnUse" x1="47.4716" y1="40.6229" x2="62.4102" y2="40.6229">
			<stop  offset="0.1022" style="stop-color:#8D6FAD"/>
			<stop  offset="1" style="stop-color:#4CAED0"/>
		</linearGradient>
		<path class="st0" d="M53.3,44.9c2.4,2.6,6.5,2.8,9.1,0.4l-10-11c-0.7,2.3-1.7,4.5-2.9,6.5L53.3,44.9z"/>
		<linearGradient id="SVGID_2_" gradientUnits="userSpaceOnUse" x1="55.2345" y1="13.1027" x2="69.4096" y2="13.1027">
			<stop  offset="0.1022" style="stop-color:#8D6FAD"/>
			<stop  offset="1" style="stop-color:#4CAED0"/>
		</linearGradient>
		<path class="st1" d="M67.5,12.6l-3.1-3.4c-2.4-2.6-6.5-2.8-9.1-0.4l9.4,10.3l0,0l0,0C65.3,16.8,66.3,14.6,67.5,12.6z"/>
		<linearGradient id="SVGID_3_" gradientUnits="userSpaceOnUse" x1="-4.524331e-06" y1="34.248" x2="116.9757" y2="34.248">
			<stop  offset="0.1022" style="stop-color:#8D6FAD"/>
			<stop  offset="1" style="stop-color:#4CAED0"/>
		</linearGradient>
		<polygon class="st2" points="52.4,34.3 52.4,34.2 52.4,34.3 		"/>
		<linearGradient id="SVGID_4_" gradientUnits="userSpaceOnUse" x1="47.4716" y1="37.4829" x2="62.4102" y2="37.4829">
			<stop  offset="0.1022" style="stop-color:#8D6FAD"/>
			<stop  offset="1" style="stop-color:#4CAED0"/>
		</linearGradient>
		<path class="st3" d="M49.6,40.7c1.2-2,2.2-4.2,2.9-6.5l-0.1-0.1l-4.9,4.2L49.6,40.7z"/>
		<linearGradient id="SVGID_5_" gradientUnits="userSpaceOnUse" x1="55.2345" y1="15.8624" x2="69.4096" y2="15.8624">
			<stop  offset="0.1022" style="stop-color:#8D6FAD"/>
			<stop  offset="1" style="stop-color:#4CAED0"/>
		</linearGradient>
		<path class="st4" d="M67.5,12.6c-1.2,2-2.2,4.1-2.9,6.4l0,0l4.8-4.4L67.5,12.6z"/>
		<path class="st5" d="M51.4,14.2l0.2,0.2C51.5,14.3,51.4,14.2,51.4,14.2z"/>
		<path class="st5" d="M47,18.9l-0.2-0.2C46.8,18.8,46.9,18.9,47,18.9z"/>
		<path class="st5" d="M66.2,40L66.2,40C66.2,40,66.2,40,66.2,40z"/>
		<path class="st5" d="M70.6,35.2l0.4,0.4C70.8,35.5,70.7,35.4,70.6,35.2z"/>
		<path class="st6" d="M116.9,24.8c-1-13.1-11.5-23.7-24.6-24.7C81.9-0.7,72.6,4.5,67.5,12.6c-1.2,2-2.2,4.1-2.9,6.4l0,0l0,0
			c2.1,2.3,5.9,1.7,7.3-1.1C75.5,10.7,83.3,5.8,92,6.6c9.8,0.9,17.7,8.9,18.4,18.8c0.8,11.8-8.6,21.7-20.2,21.7
			c-6.6,0-12.1-3.4-16.1-8L71,35.6l-0.4-0.4c-0.3-0.3-0.6-0.5-1-0.6c-1.7-0.6-3.6,0.2-4.2,1.9c-0.5,1.3-0.1,2.6,0.8,3.5l0,0l2.6,3
			l0.1,0.1l0.2,0.2l0.1,0.1c6.8,7.6,12.5,10.1,20.9,10.1C105.6,53.5,118,40.4,116.9,24.8z"/>
		<linearGradient id="SVGID_6_" gradientUnits="userSpaceOnUse" x1="0" y1="26.7637" x2="52.442" y2="26.7637">
			<stop  offset="0.1022" style="stop-color:#8D6FAD"/>
			<stop  offset="1" style="stop-color:#4CAED0"/>
		</linearGradient>
		<path class="st7" d="M52.4,34.2c-2.1-2.3-5.9-1.7-7.3,1.2C41.6,42.8,33.8,47.7,25,47c-9.9-0.8-17.8-8.9-18.5-18.8
			C5.7,16.4,15.1,6.5,26.8,6.5c6.7,0,11.9,2.8,16.5,8.4l3.6,3.9l0.2,0.2c0.3,0.3,0.7,0.5,1.1,0.7c1.7,0.6,3.6-0.2,4.2-1.9
			c0.5-1.2,0.2-2.5-0.7-3.3l-0.2-0.2l-1.2-1.3l0,0l-2.5-2.8l-0.1-0.1C42.1,3.6,33.8-0.7,24.5,0.1C11.5,1.2,1,11.8,0.1,24.8
			C-1,40.5,11.4,53.5,26.8,53.5c9.6,0,18.1-5.1,22.8-12.8C50.8,38.7,51.8,36.6,52.4,34.2L52.4,34.2z"/>
	</g>
	<g>
		<path class="st5" d="M136.6,51c0,1.3-0.8,2.2-2.2,2.2h-2c-1.3,0-2.2-0.8-2.2-2.2V3c0-1.3,0.8-2.2,2.2-2.2h2c1.3,0,2.2,0.8,2.2,2.2
			V51z"/>
		<path class="st5" d="M168.3,5.7h-1.6c-6,0-8.7,3.3-8.7,8.7s2.4,7.3,6.5,8.5L168,24c5.5,1.7,12.6,4.6,12.6,14.7c0,9-6,15-16.9,15
			H162c-4.3,0-8.5-1.3-10.1-1.7c-1.3-0.3-1.4-1-1.4-2.4v-1.7c0-1,0.5-1.5,1.3-1.5c0.3,0,0.6,0.1,0.9,0.2c1.7,0.5,5.3,1.7,9.3,1.7
			h1.7c6.5,0,10.6-3,10.6-9.6c0-5.7-3.5-7.9-8.2-9.3l-3.8-1c-4.8-1.4-10.6-5-10.6-14c0-7.3,5.2-14.2,15.2-14.2h1.4
			c3.8,0,7.9,1.1,9.6,1.7c1.1,0.3,1.3,1,1.3,2.4v1.5c0,1-0.5,1.4-1.2,1.4c-0.3,0-0.6-0.1-1-0.1C174.4,6.5,171.8,5.7,168.3,5.7z"/>
		<path class="st5" d="M228.4,51.7c0,1-0.5,1.5-1.6,1.5h-2.4c-1.4,0-2-0.8-2.4-2.2c-0.9-3.8-1.7-7.3-2.5-10.7h-20.3
			c-0.8,3.4-1.7,6.9-2.5,10.7c-0.3,1.3-1,2.2-2.4,2.2h-2.2c-1.2,0-1.9-0.6-1.9-1.5c0-0.3,0.1-1,0.3-1.5
			c5.4-23.1,11.5-42.6,14.7-49.4h8.2c3.3,6.8,9.5,26.8,15,50.2V51.7z M200.5,34.6H218c-2.8-11.2-5.4-20.3-8.7-28.6
			C205.9,14.3,203.3,23.4,200.5,34.6z"/>
		<path class="st5" d="M274,51.7c0,1-0.5,1.5-1.6,1.5h-2.4c-1.4,0-2-0.8-2.4-2.2c-0.9-3.8-1.7-7.3-2.5-10.7h-20.3
			c-0.8,3.4-1.7,6.9-2.5,10.7c-0.3,1.3-1,2.2-2.4,2.2h-2.2c-1.2,0-1.9-0.6-1.9-1.5c0-0.3,0.1-1,0.3-1.5
			c5.4-23.1,11.5-42.6,14.7-49.4h8.2c3.3,6.8,9.5,26.8,14.9,50.2V51.7z M246.2,34.6h17.5c-2.8-11.2-5.4-20.3-8.7-28.6
			C251.5,14.3,248.9,23.4,246.2,34.6z"/>
		<path class="st5" d="M305.4,53.8h-1.6c-15.9,0-20.2-9.9-20.2-23.5v-6.6c0-14.7,7.9-23.5,21-23.5c5.2,0,9.2,1.4,11.5,2.4v9.6
			c0,1.4-0.8,2.2-2.2,2.2h-1.3c-1.4,0-2.2-0.8-2.2-2.2V6.5c-2-0.6-4.1-0.8-6-0.8c-8.7,0-14.5,5.7-14.5,18v6.6c0,11.5,3.6,18,13.9,18
			h1.6c3.8,0,7.4-1.5,8.5-1.9c0.4-0.1,0.8-0.2,1-0.2c0.7,0,1.2,0.4,1.2,1.4v1.7c0,1.4-0.1,2.1-1.4,2.5
			C313.6,52.4,309.5,53.8,305.4,53.8z"/>
	</g>
</g>
</svg>
