<?xml version="1.0" encoding="utf-8"?>
<!-- Generator: Adobe Illustrator 21.0.0, SVG Export Plug-In . SVG Version: 6.00 Build 0)  -->
<svg version="1.1" id="Calque_1" xmlns="http://www.w3.org/2000/svg" xmlns:xlink="http://www.w3.org/1999/xlink" x="0px" y="0px"
	 viewBox="0 0 116.9 53.5" style="enable-background:new 0 0 116.9 53.5;" xml:space="preserve">
<style type="text/css">
	.st0{fill:url(#SVGID_1_);}
	.st1{fill:url(#SVGID_2_);}
	.st2{fill:url(#SVGID_3_);}
	.st3{fill:url(#SVGID_4_);}
	.st4{fill:url(#SVGID_5_);}
	.st5{fill:#FFFFFF;}
	.st6{fill:#4CAED0;}
	.st7{fill:url(#SVGID_6_);}
</style>
<g>
	<g>
		
			<linearGradient id="SVGID_1_" gradientUnits="userSpaceOnUse" x1="47.4395" y1="15.3547" x2="62.3781" y2="15.3547" gradientTransform="matrix(1 0 0 -1 0 55.9911)">
			<stop  offset="0.1022" style="stop-color:#8D6FAD"/>
			<stop  offset="1" style="stop-color:#4CAED0"/>
		</linearGradient>
		<path class="st0" d="M53.3,44.9c2.4,2.6,6.5,2.8,9.1,0.4l-10-11c-0.7,2.3-1.7,4.5-2.9,6.5L53.3,44.9z"/>
		
			<linearGradient id="SVGID_2_" gradientUnits="userSpaceOnUse" x1="55.2024" y1="42.8864" x2="69.3775" y2="42.8864" gradientTransform="matrix(1 0 0 -1 0 55.9911)">
			<stop  offset="0.1022" style="stop-color:#8D6FAD"/>
			<stop  offset="1" style="stop-color:#4CAED0"/>
		</linearGradient>
		<path class="st1" d="M67.5,12.6l-3.1-3.4c-2.4-2.6-6.5-2.8-9.1-0.4l9.4,10.3l0,0l0,0C65.3,16.8,66.3,14.6,67.5,12.6z"/>
		
			<linearGradient id="SVGID_3_" gradientUnits="userSpaceOnUse" x1="52.368" y1="21.7456" x2="52.368" y2="21.7456" gradientTransform="matrix(1 0 0 -1 0 55.9911)">
			<stop  offset="0.1022" style="stop-color:#8D6FAD"/>
			<stop  offset="1" style="stop-color:#4CAED0"/>
		</linearGradient>
		<path class="st2" d="M52.4,34.3L52.4,34.3L52.4,34.3z"/>
		
			<linearGradient id="SVGID_4_" gradientUnits="userSpaceOnUse" x1="47.4395" y1="18.5956" x2="62.3781" y2="18.5956" gradientTransform="matrix(1 0 0 -1 0 55.9911)">
			<stop  offset="0.1022" style="stop-color:#8D6FAD"/>
			<stop  offset="1" style="stop-color:#4CAED0"/>
		</linearGradient>
		<path class="st3" d="M49.6,40.7c1.2-2,2.2-4.2,2.9-6.5l-0.1-0.1l-4.9,4.2L49.6,40.7z"/>
		
			<linearGradient id="SVGID_5_" gradientUnits="userSpaceOnUse" x1="55.2024" y1="40.1956" x2="69.3775" y2="40.1956" gradientTransform="matrix(1 0 0 -1 0 55.9911)">
			<stop  offset="0.1022" style="stop-color:#8D6FAD"/>
			<stop  offset="1" style="stop-color:#4CAED0"/>
		</linearGradient>
		<path class="st4" d="M67.5,12.6c-1.2,2-2.2,4.1-2.9,6.4l0,0l4.8-4.4L67.5,12.6z"/>
		<path class="st5" d="M51.4,14.2l0.2,0.2C51.5,14.3,51.4,14.2,51.4,14.2z"/>
		<path class="st5" d="M47,18.9l-0.2-0.2C46.8,18.8,46.9,18.9,47,18.9z"/>
		<path class="st5" d="M66.2,40L66.2,40L66.2,40z"/>
		<path class="st5" d="M70.6,35.2l0.4,0.4C70.8,35.5,70.7,35.4,70.6,35.2z"/>
		<path class="st6" d="M116.9,24.8c-1-13.1-11.5-23.7-24.6-24.7C81.9-0.7,72.6,4.5,67.5,12.6c-1.2,2-2.2,4.1-2.9,6.4l0,0l0,0
			c2.1,2.3,5.9,1.7,7.3-1.1C75.5,10.7,83.3,5.8,92,6.6c9.8,0.9,17.7,8.9,18.4,18.8c0.8,11.8-8.6,21.7-20.2,21.7
			c-6.6,0-12.1-3.4-16.1-8L71,35.6l-0.4-0.4c-0.3-0.3-0.6-0.5-1-0.6c-1.7-0.6-3.6,0.2-4.2,1.9c-0.5,1.3-0.1,2.6,0.8,3.5l0,0l2.6,3
			l0.1,0.1l0.2,0.2l0.1,0.1C76,51,81.7,53.5,90.1,53.5C105.6,53.5,118,40.4,116.9,24.8z"/>
		
			<linearGradient id="SVGID_6_" gradientUnits="userSpaceOnUse" x1="0" y1="29.2433" x2="52.442" y2="29.2433" gradientTransform="matrix(1 0 0 -1 0 55.9911)">
			<stop  offset="0.1022" style="stop-color:#8D6FAD"/>
			<stop  offset="1" style="stop-color:#4CAED0"/>
		</linearGradient>
		<path class="st7" d="M52.4,34.2c-2.1-2.3-5.9-1.7-7.3,1.2C41.6,42.8,33.8,47.7,25,47c-9.9-0.8-17.8-8.9-18.5-18.8
			C5.7,16.4,15.1,6.5,26.8,6.5c6.7,0,11.9,2.8,16.5,8.4l3.6,3.9l0.2,0.2c0.3,0.3,0.7,0.5,1.1,0.7c1.7,0.6,3.6-0.2,4.2-1.9
			c0.5-1.2,0.2-2.5-0.7-3.3l-0.2-0.2L50.3,13l0,0l-2.5-2.8l-0.1-0.1c-5.6-6.5-13.9-10.8-23.2-10C11.5,1.2,1,11.8,0.1,24.8
			C-1,40.5,11.4,53.5,26.8,53.5c9.6,0,18.1-5.1,22.8-12.8C50.8,38.7,51.8,36.6,52.4,34.2L52.4,34.2z"/>
	</g>
</g>
</svg>
