<svg id="Calque_1" data-name="Calque 1" xmlns="http://www.w3.org/2000/svg" viewBox="0 0 245.83 130.5"><defs><style>.cls-1{fill:#fff;}</style></defs><title>Plan de travail 2</title><circle class="cls-1" cx="5.5" cy="28.33" r="5"/><path class="cls-1" d="M5.5,33.83a5.5,5.5,0,1,1,5.5-5.5A5.51,5.51,0,0,1,5.5,33.83Zm0-10a4.5,4.5,0,1,0,4.5,4.5A4.5,4.5,0,0,0,5.5,23.83Z"/><circle class="cls-1" cx="61.83" cy="4.17" r="3.67"/><path class="cls-1" d="M61.83,8.33A4.17,4.17,0,1,1,66,4.17,4.17,4.17,0,0,1,61.83,8.33Zm0-7.33A3.17,3.17,0,1,0,65,4.17,3.17,3.17,0,0,0,61.83,1Z"/><line class="cls-1" x1="6" y1="27.83" x2="62.33" y2="4"/><rect class="cls-1" x="3.58" y="15.42" width="61.17" height="1" transform="translate(-3.5 14.56) rotate(-22.91)"/><circle class="cls-1" cx="56.67" cy="33" r="3.67"/><path class="cls-1" d="M56.67,37.17A4.17,4.17,0,1,1,60.83,33,4.17,4.17,0,0,1,56.67,37.17Zm0-7.33A3.17,3.17,0,1,0,59.83,33,3.17,3.17,0,0,0,56.67,29.83Z"/><line class="cls-1" x1="56.67" y1="32.33" x2="61.67" y2="5"/><rect class="cls-1" x="45.27" y="18.17" width="27.79" height="1" transform="translate(30.18 73.52) rotate(-79.66)"/><line class="cls-1" x1="55.33" y1="32.67" x2="8" y2="28.67"/><rect class="cls-1" x="31.17" y="6.92" width="1" height="47.5" transform="translate(-1.56 59.64) rotate(-85.17)"/><circle class="cls-1" cx="89.08" cy="44.92" r="4.25"/><path class="cls-1" d="M89.08,49.67a4.75,4.75,0,1,1,4.75-4.75A4.76,4.76,0,0,1,89.08,49.67Zm0-8.5a3.75,3.75,0,1,0,3.75,3.75A3.75,3.75,0,0,0,89.08,41.17Z"/><line class="cls-1" x1="62.83" y1="5.33" x2="88.83" y2="44.5"/><rect class="cls-1" x="75.33" y="1.41" width="1" height="47.01" transform="translate(-1.13 46.1) rotate(-33.58)"/><line class="cls-1" x1="58.33" y1="33.67" x2="90.5" y2="45.33"/><rect class="cls-1" x="73.92" y="22.39" width="1" height="34.22" transform="translate(11.91 95.99) rotate(-70.06)"/><circle class="cls-1" cx="40.25" cy="55.92" r="4.25"/><path class="cls-1" d="M40.25,60.67A4.75,4.75,0,1,1,45,55.92,4.76,4.76,0,0,1,40.25,60.67Zm0-8.5A3.75,3.75,0,1,0,44,55.92,3.75,3.75,0,0,0,40.25,52.17Z"/><line class="cls-1" x1="8" y1="30.5" x2="39.17" y2="55.17"/><rect class="cls-1" x="23.08" y="22.96" width="1" height="39.75" transform="translate(-24.64 34.74) rotate(-51.64)"/><line class="cls-1" x1="41.5" y1="53.5" x2="56" y2="33.67"/><rect class="cls-1" x="36.47" y="43.08" width="24.57" height="1" transform="translate(-15.2 57.25) rotate(-53.86)"/><line class="cls-1" x1="42.33" y1="55.17" x2="88.67" y2="45"/><rect class="cls-1" x="41.78" y="49.58" width="47.44" height="1" transform="translate(-9.2 15.17) rotate(-12.35)"/><circle class="cls-1" cx="49.08" cy="89.08" r="4.25"/><path class="cls-1" d="M49.08,93.83a4.75,4.75,0,1,1,4.75-4.75A4.76,4.76,0,0,1,49.08,93.83Zm0-8.5a3.75,3.75,0,1,0,3.75,3.75A3.75,3.75,0,0,0,49.08,85.33Z"/><line class="cls-1" x1="39.83" y1="55.33" x2="48.67" y2="89.17"/><rect class="cls-1" x="43.75" y="54.77" width="1" height="34.97" transform="translate(-16.82 13.52) rotate(-14.63)"/><circle class="cls-1" cx="18.42" cy="103.42" r="3.25"/><path class="cls-1" d="M18.42,107.17a3.75,3.75,0,1,1,3.75-3.75A3.75,3.75,0,0,1,18.42,107.17Zm0-6.5a2.75,2.75,0,1,0,2.75,2.75A2.75,2.75,0,0,0,18.42,100.67Z"/><line class="cls-1" x1="38.83" y1="58" x2="18.42" y2="103.42"/><rect class="cls-1" x="3.73" y="80.21" width="49.79" height="1" transform="matrix(0.41, -0.91, 0.91, 0.41, -56.72, 73.71)"/><line class="cls-1" x1="20.17" y1="102.67" x2="49.08" y2="89.08"/><rect class="cls-1" x="18.65" y="95.37" width="31.95" height="1" transform="translate(-37.48 23.82) rotate(-25.16)"/><line class="cls-1" x1="5.67" y1="30.83" x2="18.5" y2="104.33"/><rect class="cls-1" x="11.58" y="30.28" width="1" height="74.61" transform="translate(-11.44 3.09) rotate(-9.9)"/><line class="cls-1" x1="89.08" y1="44.92" x2="50.17" y2="87.83"/><rect class="cls-1" x="40.66" y="65.87" width="57.93" height="1" transform="translate(-26.32 73.32) rotate(-47.77)"/><circle class="cls-1" cx="93.5" cy="77.83" r="5"/><path class="cls-1" d="M93.5,83.33a5.5,5.5,0,1,1,5.5-5.5A5.51,5.51,0,0,1,93.5,83.33Zm0-10a4.5,4.5,0,1,0,4.5,4.5A4.5,4.5,0,0,0,93.5,73.33Z"/><line class="cls-1" x1="89.08" y1="44.92" x2="93.33" y2="77.17"/><rect class="cls-1" x="90.71" y="44.78" width="1" height="32.53" transform="translate(-7.19 12.44) rotate(-7.51)"/><line class="cls-1" x1="49.83" y1="89" x2="93.5" y2="77.83"/><rect class="cls-1" x="49.13" y="82.92" width="45.07" height="1" transform="translate(-18.45 20.38) rotate(-14.36)"/><line class="cls-1" x1="101.33" y1="113.67" x2="93.5" y2="77.83"/><rect class="cls-1" x="96.92" y="77.41" width="1" height="36.68" transform="matrix(0.98, -0.21, 0.21, 0.98, -18.2, 23.01)"/><line class="cls-1" x1="99.67" y1="113" x2="50.5" y2="90.17"/><rect class="cls-1" x="74.58" y="74.48" width="1" height="54.21" transform="translate(-48.67 126.89) rotate(-65.09)"/><circle class="cls-1" cx="123.5" cy="20.83" r="2.67"/><path class="cls-1" d="M123.5,24a3.17,3.17,0,1,1,3.17-3.17A3.17,3.17,0,0,1,123.5,24Zm0-5.33a2.17,2.17,0,1,0,2.17,2.17A2.17,2.17,0,0,0,123.5,18.67Z"/><line class="cls-1" x1="90.67" y1="43.33" x2="123.5" y2="20.83"/><rect class="cls-1" x="87.18" y="31.58" width="39.8" height="1" transform="translate(0.6 66.12) rotate(-34.4)"/><circle class="cls-1" cx="143.75" cy="54.58" r="3.25"/><path class="cls-1" d="M143.75,58.33a3.75,3.75,0,1,1,3.75-3.75A3.75,3.75,0,0,1,143.75,58.33Zm0-6.5a2.75,2.75,0,1,0,2.75,2.75A2.75,2.75,0,0,0,143.75,51.83Z"/><line class="cls-1" x1="123.5" y1="20.83" x2="143.5" y2="54"/><rect class="cls-1" x="133" y="18.05" width="1" height="38.73" transform="translate(-0.14 74.31) rotate(-31.09)"/><line class="cls-1" x1="90.83" y1="45" x2="143.75" y2="54.58"/><rect class="cls-1" x="116.79" y="22.9" width="1" height="53.78" transform="translate(47.4 156.33) rotate(-79.74)"/><line class="cls-1" x1="142.17" y1="55.17" x2="93.5" y2="77.83"/><rect class="cls-1" x="90.99" y="66" width="53.69" height="1" transform="translate(-17.06 55.94) rotate(-24.96)"/><line class="cls-1" x1="101.33" y1="113.17" x2="144.33" y2="54.17"/><rect class="cls-1" x="86.33" y="83.17" width="73.01" height="1" transform="matrix(0.59, -0.81, 0.81, 0.59, -17.15, 133.59)"/><circle class="cls-1" cx="170.58" cy="11.92" r="4.25"/><path class="cls-1" d="M170.58,16.67a4.75,4.75,0,1,1,4.75-4.75A4.76,4.76,0,0,1,170.58,16.67Zm0-8.5a3.75,3.75,0,1,0,3.75,3.75A3.75,3.75,0,0,0,170.58,8.17Z"/><line class="cls-1" x1="123.83" y1="20.33" x2="169.33" y2="11.83"/><rect class="cls-1" x="123.44" y="15.58" width="46.29" height="1" transform="translate(-0.46 27.2) rotate(-10.59)"/><line class="cls-1" x1="125" y1="21.5" x2="185.17" y2="40.5"/><rect class="cls-1" x="154.58" y="-0.55" width="1" height="63.1" transform="translate(78.82 169.55) rotate(-72.47)"/><line class="cls-1" x1="184.5" y1="39.17" x2="170.67" y2="12.67"/><rect class="cls-1" x="177.08" y="10.97" width="1" height="29.89" transform="translate(8.16 85.12) rotate(-27.56)"/><circle class="cls-1" cx="185.08" cy="40.42" r="3.25"/><path class="cls-1" d="M185.08,44.17a3.75,3.75,0,1,1,3.75-3.75A3.75,3.75,0,0,1,185.08,44.17Zm0-6.5a2.75,2.75,0,1,0,2.75,2.75A2.75,2.75,0,0,0,185.08,37.67Z"/><circle class="cls-1" cx="157.58" cy="98.92" r="3.25"/><path class="cls-1" d="M157.58,102.67a3.75,3.75,0,1,1,3.75-3.75A3.75,3.75,0,0,1,157.58,102.67Zm0-6.5a2.75,2.75,0,1,0,2.75,2.75A2.75,2.75,0,0,0,157.58,96.17Z"/><line class="cls-1" x1="144.67" y1="54" x2="185.08" y2="40.42"/><rect class="cls-1" x="143.56" y="46.71" width="42.64" height="1" transform="translate(-6.45 54.98) rotate(-18.58)"/><line class="cls-1" x1="144.17" y1="55.5" x2="157.58" y2="98.92"/><rect class="cls-1" x="150.38" y="54.49" width="1" height="45.44" transform="translate(-16.07 47.99) rotate(-17.17)"/><line class="cls-1" x1="101.33" y1="113.17" x2="158.17" y2="98.67"/><rect class="cls-1" x="100.42" y="105.42" width="58.65" height="1" transform="translate(-22.22 35.49) rotate(-14.36)"/><circle class="cls-1" cx="228.75" cy="125.75" r="4.25"/><path class="cls-1" d="M228.75,130.5a4.75,4.75,0,1,1,4.75-4.75A4.76,4.76,0,0,1,228.75,130.5Zm0-8.5a3.75,3.75,0,1,0,3.75,3.75A3.75,3.75,0,0,0,228.75,122Z"/><circle class="cls-1" cx="220.08" cy="77.58" r="4.25"/><path class="cls-1" d="M220.08,82.33a4.75,4.75,0,1,1,4.75-4.75A4.76,4.76,0,0,1,220.08,82.33Zm0-8.5a3.75,3.75,0,1,0,3.75,3.75A3.75,3.75,0,0,0,220.08,73.83Z"/><circle class="cls-1" cx="240.33" cy="34.17" r="5"/><path class="cls-1" d="M240.33,39.67a5.5,5.5,0,1,1,5.5-5.5A5.51,5.51,0,0,1,240.33,39.67Zm0-10a4.5,4.5,0,1,0,4.5,4.5A4.5,4.5,0,0,0,240.33,29.67Z"/><line class="cls-1" x1="185.83" y1="40.5" x2="240.33" y2="34.17"/><rect class="cls-1" x="185.65" y="36.83" width="54.87" height="1" transform="translate(-2.88 24.78) rotate(-6.61)"/><line class="cls-1" x1="220.08" y1="77.58" x2="240.33" y2="34.17"/><rect class="cls-1" x="206.25" y="55.37" width="47.91" height="1" transform="translate(82.4 241) rotate(-65.04)"/><line class="cls-1" x1="185.17" y1="40.5" x2="220.83" y2="79"/><rect class="cls-1" x="202.5" y="33.51" width="1" height="52.48" transform="translate(13.48 153.87) rotate(-42.81)"/><line class="cls-1" x1="219.5" y1="77.83" x2="145" y2="54.83"/><rect class="cls-1" x="181.75" y="27.35" width="1" height="77.97" transform="translate(65.11 220.91) rotate(-72.84)"/><line class="cls-1" x1="228.75" y1="125.75" x2="240.5" y2="33.08"/><rect class="cls-1" x="187.92" y="78.92" width="93.41" height="1" transform="translate(126.5 302.27) rotate(-82.82)"/><line class="cls-1" x1="219.75" y1="77.08" x2="228.75" y2="125.75"/><rect class="cls-1" x="223.75" y="76.67" width="1" height="49.49" transform="translate(-14.7 42.47) rotate(-10.48)"/><line class="cls-1" x1="143.5" y1="54" x2="228.25" y2="125.08"/><rect class="cls-1" x="185.38" y="34.23" width="1" height="110.61" transform="translate(-2.18 174.41) rotate(-50.01)"/><line class="cls-1" x1="157.58" y1="98.92" x2="228.75" y2="125.75"/><rect class="cls-1" x="192.67" y="74.3" width="1" height="76.06" transform="translate(19.91 253.45) rotate(-69.34)"/></svg>