<?xml version="1.0" encoding="utf-8"?>
<!-- Generator: Adobe Illustrator 21.0.0, SVG Export Plug-In . SVG Version: 6.00 Build 0)  -->
<svg version="1.1" id="Calque_1" xmlns="http://www.w3.org/2000/svg" xmlns:xlink="http://www.w3.org/1999/xlink" x="0px" y="0px"
	 viewBox="0 0 416 419" style="enable-background:new 0 0 416 419;" xml:space="preserve">
<style type="text/css">
	.st0{fill:#DFECF7;}
	.st1{fill:#45ACDE;}
	.st2{fill:#FFFFFF;}
	.st3{fill:#B265D7;}
</style>
<g>
	<g>
		<path class="st0" d="M207.8,412.1C96.3,412.1,5.5,321.3,5.5,209.8S96.3,7.5,207.8,7.5s202.3,90.8,202.3,202.3
			S319.3,412.1,207.8,412.1z"/>
		<path class="st1" d="M207.8,10c26.9,0,53,5.3,77.6,15.7c23.8,10.1,45.2,24.5,63.5,42.9c18.4,18.4,32.8,39.8,42.9,63.5
			c10.4,24.6,15.7,50.7,15.7,77.6s-5.3,53-15.7,77.6c-10.1,23.8-24.5,45.2-42.9,63.5c-18.4,18.4-39.8,32.8-63.5,42.9
			c-24.6,10.4-50.7,15.7-77.6,15.7s-53-5.3-77.6-15.7C106.4,383.8,85,369.3,66.6,351c-18.4-18.4-32.8-39.8-42.9-63.5
			C13.3,262.8,8,236.7,8,209.8s5.3-53,15.7-77.6C33.8,108.4,48.3,87,66.6,68.6c18.4-18.4,39.8-32.8,63.5-42.9
			C154.8,15.3,180.9,10,207.8,10 M207.8,5C95,5,3,97,3,209.8s92,204.8,204.8,204.8s204.8-92,204.8-204.8S320.6,5,207.8,5L207.8,5z"
			/>
	</g>
	<path class="st1" d="M298.8,349l-16-68.4c0,0,54.6-52.5,48.5-119.8c-6.1-67.3-74-109.7-142.8-91.3c-68.9,18.4-80.3,73.5-80.6,82.6
		c-0.3,9.1,8.2,32.2,2,48c-6.1,15.8-28,40.6-26,47.9c2,7.4,20.9,8.7,20.9,8.7s0.2,7.2-2.3,8.7c-2.5,1.5-1.1,7.5,3,10.8
		c4.1,3.3,11,5.6,11,5.6s-7.9,1.8-6.9,7.4c1,5.6,3.8,8.4,9.7,8.7c5.9,0.3,7.4-2.5,8.4,0.5c1,3.1,1.7,3.3,1.7,3.3s-5.9,15.2-0.8,26.4
		c5.1,11.2,13,11.2,22.2,8.9c9.2-2.3,27-7.4,27-7.4l4.9,24.9c5.1,36.2-19.6,54.8-20.1,55.2c14.5,3.3,29.6,5,45.1,5
		c45.6,0,87.7-14.9,121.8-40.1C326.3,372.9,300,350.2,298.8,349L298.8,349z"/>
	<path class="st2" d="M130.4,331.1c5.1,8.1,12.3,7.8,20.5,5.8c9.2-2.3,27-7.4,27-7.4l4.9,24.9c1.7,12.4,0,22.7-3,30.9l0,0
		c17.1-24.3,4.5-42.9,6.7-52.2c2.2-9.2,37.9-18,45.4-23.7c7.5-5.7,12.8-21.6,12.8-21.6s-7.5,11.5-15.5,18.5c-8,7-70,25.2-81.8,29.2
		C136.2,339.3,130.9,331.9,130.4,331.1L130.4,331.1z"/>
	<path class="st2" d="M171.6,75.2c42.9-15.7,93.7-7.2,124.5,24.3c36.7,37.5,45.3,105.9-18.8,178.2l21.6,71.4l-16-68.4
		c0,0,54.6-52.5,48.5-119.8c-6.1-67.3-74-109.7-142.8-91.3C182.4,71.1,176.8,73,171.6,75.2L171.6,75.2z"/>
	<path class="st2" d="M220.3,102.9c22.3,0,40.4,18.5,40.4,41.3c0,15.4-8.3,28.9-20.6,36v18.9c0,2.3-1.8,4.1-4,4.1h-29.6
		c-2.2,0-4-1.8-4-4.1v-17.8c-13.4-6.7-22.6-20.8-22.6-37.1C179.9,121.4,198,102.9,220.3,102.9L220.3,102.9L220.3,102.9z"/>
	<path class="st3" d="M208,202.6h24.7c1.8,0,3.2,1.1,3.2,2.5c0,1.4-1.5,2.5-3.2,2.5c1.8,0,3.2,1.1,3.2,2.5c0,1.4-1.5,2.5-3.2,2.5
		c1.8,0,3.2,1.1,3.2,2.5s-1.5,2.5-3.2,2.5H208c-1.8,0-3.2-1.1-3.2-2.5s1.5-2.5,3.2-2.5c-1.8,0-3.2-1.1-3.2-2.5s1.5-2.5,3.2-2.5
		c-1.8,0-3.2-1.1-3.2-2.5C204.7,203.8,206.2,202.6,208,202.6L208,202.6z"/>
	<path class="st3" d="M209.2,143.1l6.4,52.2h9.4l6.4-52.2l2.3,0.4l-6.6,53.4l-0.1,1.2h-13.5l-0.1-1.2l-6.6-53.4L209.2,143.1
		L209.2,143.1z"/>
	<path class="st3" d="M224.1,136.5l-0.9,5.8l21.9-3.3l-29.7,12.4l1.1-8l-19.5,3.7L224.1,136.5L224.1,136.5z"/>
	<path class="st2" d="M218.4,228.3v0.7H216v-0.7H215c-0.9,0-1.7-0.6-2.1-1.4h-0.1c-1.3,0-2.4-1.1-2.4-2.5c0-0.9,0.4-1.7,1.1-2.1
		h-3.6c-1.3,0-2.4-1.1-2.4-2.5c0-1.4,1.1-2.5,2.4-2.5h24.8c1.3,0,2.4,1.1,2.4,2.5c0,1.4-1.1,2.5-2.4,2.5h-3.6
		c0.6,0.4,1.1,1.2,1.1,2.1c0,1.4-1.1,2.5-2.3,2.5h-0.1c-0.4,0.8-1.2,1.4-2.1,1.4h-1v0.7h-2.4v-0.7H218.4L218.4,228.3z"/>
</g>
</svg>
