<?xml version="1.0" encoding="iso-8859-1"?>
<!-- Generator: Adobe Illustrator 18.1.1, SVG Export Plug-In . SVG Version: 6.00 Build 0)  -->
<svg version="1.1" id="Layer_1" xmlns="http://www.w3.org/2000/svg" xmlns:xlink="http://www.w3.org/1999/xlink" x="0px" y="0px"
	 viewBox="-49 141 512 512" style="enable-background:new -49 141 512 512;" xml:space="preserve">
<g>
	<path style="fill:#E5D1F3;" d="M-1,598.472V513.28L17.424,501H47v-16H12.576L-17,504.72v93.752c-9.296,3.312-16,12.112-16,22.528
		c0,13.232,10.768,24,24,24s24-10.768,24-24C15,610.584,8.288,601.784-1,598.472z M-9,629c-4.416,0-8-3.584-8-8s3.584-8,8-8
		s8,3.584,8,8S-4.584,629-9,629z"/>
	<path style="fill:#E5D1F3;" d="M5.528,469H47v-16H5.528C2.216,443.712-6.584,437-17,437c-13.232,0-24,10.768-24,24s10.768,24,24,24
		C-6.584,485,2.216,478.288,5.528,469z M-25,461c0-4.416,3.584-8,8-8s8,3.584,8,8s-3.584,8-8,8S-25,465.416-25,461z"/>
	<path style="fill:#E5D1F3;" d="M-17,421c10.416,0,19.216-6.712,22.528-16H47v-16H5.528C2.216,379.704-6.584,373-17,373
		c-13.232,0-24,10.768-24,24S-30.232,421-17,421z M-17,389c4.416,0,8,3.584,8,8s-3.584,8-8,8s-8-3.584-8-8S-21.416,389-17,389z"/>
	<rect x="15" y="421" style="fill:#E5D1F3;" width="32" height="16"/>
	<rect x="15" y="357" style="fill:#E5D1F3;" width="32" height="16"/>
	<rect x="-41" y="325" style="fill:#E5D1F3;" width="88" height="16"/>
	<path style="fill:#E5D1F3;" d="M19.688,309H47v-16H26.312L7,273.688v-14.16c9.288-3.312,16-12.112,16-22.528
		c0-13.232-10.768-24-24-24s-24,10.768-24,24c0,10.416,6.704,19.216,16,22.528v20.784L19.688,309z M-1,229c4.416,0,8,3.584,8,8
		s-3.584,8-8,8s-8-3.584-8-8S-5.416,229-1,229z"/>
	<polygon style="fill:#E5D1F3;" points="103,216.312 103,237 119,237 119,209.688 90.312,181 -41,181 -41,197 83.688,197 	"/>
	<polygon style="fill:#E5D1F3;" points="135,184.312 135,237 151,237 151,177.688 122.312,149 -41,149 -41,165 115.688,165 	"/>
	<rect x="167" y="205" style="fill:#E5D1F3;" width="16" height="32"/>
	<rect x="263" y="149" style="fill:#E5D1F3;" width="16" height="88"/>
	<path style="fill:#E5D1F3;" d="M199,195.528V237h16v-28.688l16,16V237h16v-19.312l-25.608-25.608
		c5.8-4.384,9.608-11.264,9.608-19.08c0-13.232-10.768-24-24-24s-24,10.768-24,24C183,183.416,189.704,192.216,199,195.528z
		 M207,165c4.416,0,8,3.584,8,8s-3.584,8-8,8c-4.416,0-8-3.584-8-8S202.584,165,207,165z"/>
	<path style="fill:#E5D1F3;" d="M311,200.312L330.312,181h78.16c2.416,6.776,7.752,12.112,14.528,14.528v110.16L403.688,325H367v16
		h43.312L439,312.312V195.528c9.288-3.312,16-12.112,16-22.528c0-13.232-10.768-24-24-24c-10.416,0-19.216,6.712-22.528,16h-84.784
		L295,193.688V237h16V200.312z M431,165c4.416,0,8,3.584,8,8s-3.584,8-8,8s-8-3.584-8-8S426.584,165,431,165z"/>
	<path style="fill:#E5D1F3;" d="M373.08,246.392l17.92,17.92v9.376L371.688,293H367v16h11.312L407,280.312v-22.624L378.312,229
		h-4.784c-3.312-9.288-12.112-16-22.528-16c-13.232,0-24,10.768-24,24s10.768,24,24,24C360.904,261,369.416,254.968,373.08,246.392z
		 M351,245c-4.416,0-8-3.584-8-8s3.584-8,8-8s8,3.584,8,8S355.416,245,351,245z"/>
	<rect x="367" y="357" style="fill:#E5D1F3;" width="88" height="16"/>
	<path style="fill:#E5D1F3;" d="M439,598.472V417.688L410.312,389H367v16h36.688L423,424.312v41.376L410.312,453H367v16h36.688
		L423,488.312v110.16c-9.296,3.312-16,12.112-16,22.528c0,13.232,10.768,24,24,24s24-10.768,24-24
		C455,610.584,448.288,601.784,439,598.472z M431,629c-4.416,0-8-3.584-8-8s3.584-8,8-8s8,3.584,8,8S435.416,629,431,629z"/>
	<rect x="367" y="421" style="fill:#E5D1F3;" width="32" height="16"/>
	<path style="fill:#E5D1F3;" d="M407,600.312v-86.624L378.312,485H367v16h4.688L391,520.312V565h-80v-8h-16v24h96v12.688
		L371.688,613h-14.16c-3.312-9.288-12.112-16-22.528-16c-13.232,0-24,10.768-24,24s10.768,24,24,24c10.416,0,19.216-6.712,22.528-16
		h20.784L407,600.312z M335,629c-4.416,0-8-3.584-8-8s3.584-8,8-8s8,3.584,8,8S339.416,629,335,629z"/>
	<path style="fill:#E5D1F3;" d="M119,581v-24h-16v8H61.528c-3.312-9.288-12.112-16-22.528-16c-13.232,0-24,10.768-24,24
		s10.768,24,24,24c10.416,0,19.216-6.712,22.528-16H119z M39,581c-4.416,0-8-3.584-8-8s3.584-8,8-8s8,3.584,8,8S43.416,581,39,581z"
		/>
	<rect x="263" y="557" style="fill:#E5D1F3;" width="16" height="88"/>
	<rect x="231" y="557" style="fill:#E5D1F3;" width="16" height="88"/>
	<path style="fill:#E5D1F3;" d="M199,569.688l-16,16V557h-16v41.472c-9.296,3.312-16,12.112-16,22.528c0,13.232,10.768,24,24,24
		s24-10.768,24-24c0-7.816-3.808-14.696-9.608-19.08L215,576.312V557h-16V569.688z M175,629c-4.416,0-8-3.584-8-8s3.584-8,8-8
		s8,3.584,8,8S179.416,629,175,629z"/>
	<polygon style="fill:#E5D1F3;" points="151,557 135,557 135,577.688 111,601.688 111,645 127,645 127,608.312 151,584.312 	"/>
	<path style="fill:#E5D1F3;" d="M295,525v16h16v-16h24v-24h16v-16h-16v-16h16v-16h-16v-16h16v-16h-16v-16h16v-16h-16v-16h16v-16h-16
		v-16h16v-16h-16v-16h16v-16h-16v-24h-24v-16h-16v16h-16v-16h-16v16h-16v-16h-16v16h-16v-16h-16v16h-16v-16h-16v16h-16v-16h-16v16
		h-16v-16h-16v16h-3.312L79,289.688V293H63v16h16v16H63v16h16v16H63v16h16v16H63v16h16v16H63v16h16v16H63v16h16v16H63v16h16v24h24
		v16h16v-16h16v16h16v-16h16v16h16v-16h16v16h16v-16h16v16h16v-16h16v16h16v-16H295z M95,296.312L106.312,285H319v224H95V296.312z"
		/>
	<path style="fill:#E5D1F3;" d="M277.888,360.048l13.96-13.96l-33.936-33.936l-13.96,13.96c-4.16-2.184-8.488-3.976-12.952-5.384
		V301h-48v19.728c-4.472,1.408-8.8,3.2-12.952,5.384l-13.96-13.96l-33.936,33.936l13.96,13.96c-2.176,4.16-3.976,8.488-5.384,12.952
		H111v48h19.728c1.408,4.472,3.2,8.8,5.384,12.952l-13.96,13.96l33.936,33.936l13.96-13.96c4.16,2.176,8.48,3.976,12.952,5.384V493
		h48v-19.728c4.472-1.408,8.8-3.2,12.952-5.384l13.96,13.96l33.936-33.936l-13.96-13.96c2.176-4.152,3.976-8.48,5.384-12.952H303
		v-48h-19.728C281.864,368.528,280.072,364.2,277.888,360.048z M287,405h-16.224l-1.416,6.224c-1.6,7.016-4.368,13.672-8.216,19.792
		l-3.408,5.408l11.496,11.496l-11.312,11.312l-11.496-11.496l-5.408,3.408c-6.12,3.848-12.776,6.616-19.792,8.216L215,460.776V477
		h-16v-16.224l-6.224-1.416c-7.016-1.6-13.672-4.368-19.792-8.216l-5.408-3.408l-11.496,11.496l-11.312-11.312l11.496-11.496
		l-3.408-5.408c-3.848-6.12-6.616-12.776-8.216-19.792L143.224,405H127v-16h16.224l1.416-6.224c1.6-7.016,4.368-13.672,8.216-19.792
		l3.408-5.408l-11.496-11.496l11.312-11.312l11.496,11.488l5.408-3.408c6.12-3.848,12.776-6.616,19.792-8.216l6.224-1.408V317h16
		v16.224l6.224,1.416c7.016,1.6,13.672,4.368,19.792,8.216l5.408,3.408l11.496-11.488l11.312,11.312l-11.496,11.496l3.408,5.408
		c3.848,6.12,6.616,12.776,8.216,19.792l1.416,6.216H287V405z"/>
	<path style="fill:#E5D1F3;" d="M207,357c-22.056,0-40,17.944-40,40s17.944,40,40,40s40-17.944,40-40S229.056,357,207,357z M207,421
		c-13.232,0-24-10.768-24-24s10.768-24,24-24s24,10.768,24,24S220.232,421,207,421z"/>
</g>
</svg>
