<svg xmlns:dc="http://purl.org/dc/elements/1.1/" xmlns:inkscape="http://www.inkscape.org/namespaces/inkscape" xmlns:cc="http://creativecommons.org/ns#" xmlns:sodipodi="http://sodipodi.sourceforge.net/DTD/sodipodi-0.dtd" xmlns:svg="http://www.w3.org/2000/svg" xmlns:rdf="http://www.w3.org/1999/02/22-rdf-syntax-ns#" xmlns="http://www.w3.org/2000/svg" xmlns:xlink="http://www.w3.org/1999/xlink" version="1.1" x="0px" y="0px" viewBox="0 0 800 1000" enable-background="new 0 0 800 800" xml:space="preserve"><g><path fill="#000000" d="M88.941,700.206h622.118c7.895,0,14.294-6.401,14.294-14.294c0-7.895-6.399-14.295-14.294-14.295H556.845   V277.327c0-7.887-6.399-14.293-14.294-14.293h-64.902V136.786c0-7.887-6.401-14.294-14.295-14.294h-49.06V63.794   c0-7.894-6.399-14.294-14.294-14.294c-7.894,0-14.294,6.4-14.294,14.294v58.698h-49.059c-7.894,0-14.294,6.407-14.294,14.294   v126.247h-64.904c-7.894,0-14.294,6.407-14.294,14.293v394.291H88.941c-7.894,0-14.294,6.4-14.294,14.295   C74.647,693.805,81.047,700.206,88.941,700.206z M350.941,151.081h98.119v111.953h-98.119V151.081z M271.743,291.621h256.513   v379.996H271.743V291.621z"/><path fill="#000000" d="M188.658,721.912c-7.887,0-14.294,6.399-14.294,14.294s6.407,14.294,14.294,14.294h422.676   c7.895,0,14.295-6.399,14.295-14.294s-6.4-14.294-14.295-14.294H188.658z"/><path fill="#000000" d="M336.646,318.325c-7.894,0-14.294,6.394-14.294,14.294v298.014c0,7.894,6.4,14.295,14.294,14.295   s14.294-6.401,14.294-14.295V332.619C350.941,324.719,344.541,318.325,336.646,318.325z"/><path fill="#000000" d="M400,318.325c-7.894,0-14.294,6.394-14.294,14.294v298.014c0,7.894,6.4,14.295,14.294,14.295   c7.895,0,14.294-6.401,14.294-14.295V332.619C414.294,324.719,407.895,318.325,400,318.325z"/><path fill="#000000" d="M425.085,169.577h-50.163c-7.894,0-14.294,6.393-14.294,14.294c0,7.887,6.4,14.294,14.294,14.294h50.163   c7.893,0,14.294-6.408,14.294-14.294C439.379,175.97,432.978,169.577,425.085,169.577z"/><path fill="#000000" d="M425.085,214.748h-50.163c-7.894,0-14.294,6.394-14.294,14.294c0,7.887,6.4,14.294,14.294,14.294h50.163   c7.893,0,14.294-6.407,14.294-14.294C439.379,221.142,432.978,214.748,425.085,214.748z"/><path fill="#000000" d="M463.354,318.325c-7.894,0-14.294,6.394-14.294,14.294v298.014c0,7.894,6.4,14.295,14.294,14.295   s14.295-6.401,14.295-14.295V332.619C477.648,324.719,471.247,318.325,463.354,318.325z"/></g><text x="0" y="815" fill="#000000" font-size="5px" font-weight="bold" font-family="'Helvetica Neue', Helvetica, Arial-Unicode, Arial, Sans-serif">Created by abderraouf omara</text><text x="0" y="820" fill="#000000" font-size="5px" font-weight="bold" font-family="'Helvetica Neue', Helvetica, Arial-Unicode, Arial, Sans-serif">from the Noun Project</text></svg>