<?xml version="1.0" encoding="utf-8"?>
<!-- Generator: Adobe Illustrator 21.0.0, SVG Export Plug-In . SVG Version: 6.00 Build 0)  -->
<svg version="1.1" id="Calque_1" xmlns="http://www.w3.org/2000/svg" xmlns:xlink="http://www.w3.org/1999/xlink" x="0px" y="0px"
	 viewBox="0 0 16 16" style="enable-background:new 0 0 16 16;" xml:space="preserve">
<style type="text/css">
	.st0{fill:#51ADD5;}
</style>
<g>
	<path class="st0" d="M12.2,6.4L12.2,6.4l-0.1-2.1c0-2.3-1.9-4.1-4.1-4.1S3.9,2.1,3.9,4.4v2.1H3.8c-1.1,0-2,0.9-2,2V14
		c0,1.1,0.9,2,2,2h8.5c0.5,0,1-0.2,1.4-0.6c0.4-0.4,0.6-0.9,0.6-1.4V8.4C14.2,7.3,13.3,6.4,12.2,6.4z M4.4,4.4c0-2,1.6-3.6,3.6-3.6
		s3.6,1.6,3.6,3.6v2.1H4.4V4.4z M12.2,15.3H3.8c-0.7,0-1.3-0.6-1.3-1.3V8.4c0-0.7,0.6-1.3,1.3-1.3h8.5c0.7,0,1.3,0.6,1.3,1.3V14
		C13.5,14.7,12.9,15.3,12.2,15.3z"/>
	<path class="st0" d="M8,9.3c-0.7,0-1.3,0.6-1.3,1.3c0,0.6,0.3,1,0.8,1.2v2.1h1v-2.1c0.5-0.2,0.8-0.7,0.8-1.2C9.3,9.9,8.7,9.3,8,9.3
		z"/>
</g>
</svg>
