<svg xmlns:dc="http://purl.org/dc/elements/1.1/" xmlns:cc="http://creativecommons.org/ns#" xmlns:rdf="http://www.w3.org/1999/02/22-rdf-syntax-ns#" xmlns:svg="http://www.w3.org/2000/svg" xmlns="http://www.w3.org/2000/svg" xmlns:sodipodi="http://sodipodi.sourceforge.net/DTD/sodipodi-0.dtd" xmlns:inkscape="http://www.inkscape.org/namespaces/inkscape" version="1.1" x="0px" y="0px" viewBox="0 0 100 125"><g transform="translate(0,-952.36218)"><path style="text-indent:0;text-transform:none;direction:ltr;block-progression:tb;baseline-shift:baseline;color:#000000;enable-background:accumulate;" d="m 49.96875,959.37953 c -14.88724,0 -26.96875,12.098 -26.96875,27 0,3.5639 0.95754,7.6838 2.125,10.7187 7.71398,15.69127 15.40212,31.43857 23.09375,47.15627 0.33318,0.6522 1.04883,1.0903 1.78125,1.0903 0.73242,0 1.44806,-0.4381 1.78125,-1.0903 7.78274,-15.6715 15.26103,-31.5253 23.09375,-47.15627 1.17572,-3.0405 2.125,-7.1561 2.125,-10.7187 0,-14.9081 -12.14386,-27 -27.03125,-27 z m 0,4 c 12.72942,0 23.03125,10.2566 23.03125,23 0,2.7903 -0.89054,6.7353 -1.875,9.2812 L 50,1038.8482 28.875,995.66073 c -0.98068,-2.5494 -1.875,-6.495 -1.875,-9.2812 0,-12.7494 10.23951,-23 22.96875,-23 z m 0,8 c -8.25927,0 -14.96875,6.7343 -14.96875,15 0,8.2656 6.70946,14.99997 14.96875,14.99997 8.25936,0 15.03125,-6.72827 15.03125,-14.99997 0,-8.2717 -6.77191,-15 -15.03125,-15 z m 0,4 c 6.10138,0 11.03125,4.893 11.03125,11 0,6.107 -4.92989,11 -11.03125,11 -6.10127,0 -10.96875,-4.8869 -10.96875,-11 0,-6.1131 4.86746,-11 10.96875,-11 z" fill="#000000" fill-opacity="1" fill-rule="nonzero" stroke="none" marker="none" visibility="visible" display="inline" overflow="visible"/></g><text x="0" y="115" fill="#000000" font-size="5px" font-weight="bold" font-family="'Helvetica Neue', Helvetica, Arial-Unicode, Arial, Sans-serif">Created by Aya Sofya</text><text x="0" y="120" fill="#000000" font-size="5px" font-weight="bold" font-family="'Helvetica Neue', Helvetica, Arial-Unicode, Arial, Sans-serif">from the Noun Project</text></svg>