<svg xmlns="http://www.w3.org/2000/svg" xmlns:xlink="http://www.w3.org/1999/xlink" version="1.1" x="0px" y="0px" viewBox="0 0 512 640" enable-background="new 0 0 512 512" xml:space="preserve"><g><path d="M69.1,83.5h24.2c7.8,0,14.1-6.3,14.1-14.1c0-7.8-6.3-14.1-14.1-14.1H69.1c-7.8,0-14.1,6.3-14.1,14.1   C55,77.2,61.3,83.5,69.1,83.5z"/><path d="M152.6,83.5h24.2c7.8,0,14.1-6.3,14.1-14.1c0-7.8-6.3-14.1-14.1-14.1h-24.2c-7.8,0-14.1,6.3-14.1,14.1   C138.5,77.2,144.8,83.5,152.6,83.5z"/><path d="M236.2,83.5h24.2c7.8,0,14.1-6.3,14.1-14.1c0-7.8-6.3-14.1-14.1-14.1h-24.2c-7.8,0-14.1,6.3-14.1,14.1   C222.1,77.2,228.4,83.5,236.2,83.5z"/><path d="M69.1,149.6h24.2c7.8,0,14.1-6.3,14.1-14.1s-6.3-14.1-14.1-14.1H69.1c-7.8,0-14.1,6.3-14.1,14.1S61.3,149.6,69.1,149.6z"/><path d="M152.6,149.6h24.2c7.8,0,14.1-6.3,14.1-14.1s-6.3-14.1-14.1-14.1h-24.2c-7.8,0-14.1,6.3-14.1,14.1S144.8,149.6,152.6,149.6   z"/><path d="M236.2,149.6h24.2c7.8,0,14.1-6.3,14.1-14.1s-6.3-14.1-14.1-14.1h-24.2c-7.8,0-14.1,6.3-14.1,14.1S228.4,149.6,236.2,149.6   z"/><path d="M69.1,215.7h24.2c7.8,0,14.1-6.3,14.1-14.1s-6.3-14.1-14.1-14.1H69.1c-7.8,0-14.1,6.3-14.1,14.1S61.3,215.7,69.1,215.7z"/><path d="M152.6,215.7h24.2c7.8,0,14.1-6.3,14.1-14.1s-6.3-14.1-14.1-14.1h-24.2c-7.8,0-14.1,6.3-14.1,14.1S144.8,215.7,152.6,215.7   z"/><path d="M236.2,215.7h24.2c7.8,0,14.1-6.3,14.1-14.1s-6.3-14.1-14.1-14.1h-24.2c-7.8,0-14.1,6.3-14.1,14.1S228.4,215.7,236.2,215.7   z"/><path d="M69.1,281.7h24.2c7.8,0,14.1-6.3,14.1-14.1c0-7.8-6.3-14.1-14.1-14.1H69.1c-7.8,0-14.1,6.3-14.1,14.1   C55,275.4,61.3,281.7,69.1,281.7z"/><path d="M152.6,281.7h24.2c7.8,0,14.1-6.3,14.1-14.1c0-7.8-6.3-14.1-14.1-14.1h-24.2c-7.8,0-14.1,6.3-14.1,14.1   C138.5,275.4,144.8,281.7,152.6,281.7z"/><path d="M236.2,281.7h24.2c7.8,0,14.1-6.3,14.1-14.1c0-7.8-6.3-14.1-14.1-14.1h-24.2c-7.8,0-14.1,6.3-14.1,14.1   C222.1,275.4,228.4,281.7,236.2,281.7z"/><path d="M107.4,333.7c0-7.8-6.3-14.1-14.1-14.1H69.1c-7.8,0-14.1,6.3-14.1,14.1c0,7.8,6.3,14.1,14.1,14.1h24.2   C101.1,347.8,107.4,341.5,107.4,333.7z"/><path d="M152.6,347.8h24.2c7.8,0,14.1-6.3,14.1-14.1c0-7.8-6.3-14.1-14.1-14.1h-24.2c-7.8,0-14.1,6.3-14.1,14.1   C138.5,341.5,144.8,347.8,152.6,347.8z"/><path d="M236.2,347.8h24.2c7.8,0,14.1-6.3,14.1-14.1c0-7.8-6.3-14.1-14.1-14.1h-24.2c-7.8,0-14.1,6.3-14.1,14.1   C222.1,341.5,228.4,347.8,236.2,347.8z"/><path d="M495.9,163.6H327.5V16.1c0-7.8-6.3-14.1-14.1-14.1H16.1C8.3,2,2,8.3,2,16.1v479.8c0,7.8,6.3,14.1,14.1,14.1h479.8   c7.8,0,14.1-6.3,14.1-14.1V177.8C510,170,503.7,163.6,495.9,163.6z M30.2,30.2h269v451.6h-76.1v-91c0-7.8-6.3-14.1-14.1-14.1h-88.6   c-7.8,0-14.1,6.3-14.1,14.1v91H30.2V30.2z M134.5,481.8v-76.8h60.4v76.8H134.5z M481.8,481.8H327.5V191.9h154.3V481.8z"/><path d="M366.7,248.8h75.9c7.8,0,14.1-6.3,14.1-14.1c0-7.8-6.3-14.1-14.1-14.1h-75.9c-7.8,0-14.1,6.3-14.1,14.1   C352.6,242.5,358.9,248.8,366.7,248.8z"/><path d="M366.7,316.9h75.9c7.8,0,14.1-6.3,14.1-14.1c0-7.8-6.3-14.1-14.1-14.1h-75.9c-7.8,0-14.1,6.3-14.1,14.1   C352.6,310.6,358.9,316.9,366.7,316.9z"/><path d="M366.7,385h75.9c7.8,0,14.1-6.3,14.1-14.1c0-7.8-6.3-14.1-14.1-14.1h-75.9c-7.8,0-14.1,6.3-14.1,14.1   C352.6,378.6,358.9,385,366.7,385z"/><path d="M366.7,453h75.9c7.8,0,14.1-6.3,14.1-14.1c0-7.8-6.3-14.1-14.1-14.1h-75.9c-7.8,0-14.1,6.3-14.1,14.1   C352.6,446.7,358.9,453,366.7,453z"/></g><text x="0" y="527" fill="#000000" font-size="5px" font-weight="bold" font-family="'Helvetica Neue', Helvetica, Arial-Unicode, Arial, Sans-serif">Created by Icon Fair</text><text x="0" y="532" fill="#000000" font-size="5px" font-weight="bold" font-family="'Helvetica Neue', Helvetica, Arial-Unicode, Arial, Sans-serif">from the Noun Project</text></svg>