<?xml version="1.0" encoding="utf-8"?>
<!-- Generator: Adobe Illustrator 21.0.0, SVG Export Plug-In . SVG Version: 6.00 Build 0)  -->
<svg version="1.1" id="Layer_1" xmlns="http://www.w3.org/2000/svg" xmlns:xlink="http://www.w3.org/1999/xlink" x="0px" y="0px"
	 viewBox="0 0 512 512" style="enable-background:new 0 0 512 512;" xml:space="preserve">
<style type="text/css">
	.st0{fill:#DFECF7;}
	.st1{fill:#45ACDE;}
	.st2{fill:#FFFFFF;}
	.st3{fill:#242D3C;}
	.st4{fill:#B265D7;}
</style>
<g>
	<path class="st0" d="M256,509.5c-67.7,0-131.4-26.4-179.3-74.2S2.5,323.7,2.5,256c0-67.7,26.4-131.4,74.2-179.3S188.3,2.5,256,2.5
		c67.7,0,131.4,26.4,179.3,74.2s74.2,111.5,74.2,179.3c0,67.7-26.4,131.4-74.2,179.3S323.7,509.5,256,509.5z"/>
	<path class="st1" d="M256,5c33.9,0,66.8,6.6,97.7,19.7c29.9,12.6,56.7,30.7,79.8,53.8c23.1,23.1,41.2,49.9,53.8,79.8
		c13.1,30.9,19.7,63.8,19.7,97.7s-6.6,66.8-19.7,97.7c-12.6,29.9-30.7,56.7-53.8,79.8c-23.1,23.1-49.9,41.2-79.8,53.8
		C322.8,500.4,289.9,507,256,507s-66.8-6.6-97.7-19.7c-29.9-12.6-56.7-30.7-79.8-53.8c-23.1-23.1-41.2-49.9-53.8-79.8
		C11.6,322.8,5,289.9,5,256s6.6-66.8,19.7-97.7c12.6-29.9,30.7-56.7,53.8-79.8c23.1-23.1,49.9-41.2,79.8-53.8
		C189.2,11.6,222.1,5,256,5 M256,0C114.6,0,0,114.6,0,256s114.6,256,256,256s256-114.6,256-256S397.4,0,256,0L256,0z"/>
</g>
<path class="st2" d="M256,187.6c-54.6,0-102.8,27-132.1,68.4c29.3,41.4,77.5,68.4,132.1,68.4c54.6,0,102.8-27,132.1-68.4
	C358.8,214.6,310.6,187.6,256,187.6z"/>
<circle class="st1" cx="256" cy="256" r="68.4"/>
<circle class="st3" cx="256" cy="256" r="32.3"/>
<g>
	<path class="st2" d="M249.3,233.1c0,8.9-7.2,16.2-16.2,16.2c-8.9,0-16.2-7.2-16.2-16.2c0-8.9,7.2-16.2,16.2-16.2
		C242.1,217,249.3,224.2,249.3,233.1z"/>
	<rect x="253.7" y="96.1" class="st4" width="4.7" height="17.5"/>
	
		<rect x="222.2" y="99.4" transform="matrix(0.9783 -0.2072 0.2072 0.9783 -17.5364 48.881)" class="st4" width="4.7" height="17.5"/>
	
		<rect x="192.2" y="109.1" transform="matrix(0.9136 -0.4066 0.4066 0.9136 -31.1372 89.2817)" class="st4" width="4.7" height="17.5"/>
	
		<rect x="164.8" y="124.9" transform="matrix(0.809 -0.5878 0.5878 0.809 -46.6663 123.796)" class="st4" width="4.7" height="17.5"/>
	
		<rect x="141.3" y="146.1" transform="matrix(0.6695 -0.7429 0.7429 0.6695 -67.556 157.9215)" class="st4" width="4.7" height="17.5"/>
	
		<rect x="122.8" y="171.7" transform="matrix(0.4994 -0.8664 0.8664 0.4994 -93.6964 198.7209)" class="st4" width="4.7" height="17.5"/>
	
		<rect x="109.9" y="200.5" transform="matrix(0.309 -0.9511 0.9511 0.309 -121.494 251.3828)" class="st4" width="4.7" height="17.5"/>
	
		<rect x="103.4" y="231.5" transform="matrix(0.1036 -0.9946 0.9946 0.1036 -144.1771 320.4843)" class="st4" width="4.7" height="17.5"/>
	
		<rect x="96.9" y="269.5" transform="matrix(0.9945 -0.1046 0.1046 0.9945 -27.8519 12.5431)" class="st4" width="17.5" height="4.7"/>
	
		<rect x="103.5" y="300.4" transform="matrix(0.9511 -0.3088 0.3088 0.9511 -87.9935 49.4551)" class="st4" width="17.5" height="4.7"/>
	<rect x="116.3" y="329.2" transform="matrix(0.866 -0.5 0.5 0.866 -149.039 106.9724)" class="st4" width="17.5" height="4.7"/>
	
		<rect x="134.9" y="354.8" transform="matrix(0.7431 -0.6691 0.6691 0.7431 -202.0617 187.8545)" class="st4" width="17.5" height="4.7"/>
	
		<rect x="158.4" y="375.9" transform="matrix(0.5879 -0.8089 0.8089 0.5879 -237.1162 291.0838)" class="st4" width="17.5" height="4.7"/>
	
		<rect x="185.8" y="391.7" transform="matrix(0.4065 -0.9136 0.9136 0.4065 -244.6168 411.613)" class="st4" width="17.5" height="4.7"/>
	
		<rect x="215.8" y="401.5" transform="matrix(0.2078 -0.9782 0.9782 0.2078 -217.1539 539.6008)" class="st4" width="17.5" height="4.7"/>
	<rect x="253.7" y="398.4" class="st4" width="4.7" height="17.5"/>
	
		<rect x="285.1" y="395.1" transform="matrix(0.978 -0.2085 0.2085 0.978 -77.8854 68.8018)" class="st4" width="4.7" height="17.5"/>
	
		<rect x="315.1" y="385.3" transform="matrix(0.9138 -0.4061 0.4061 0.9138 -132.6782 162.89)" class="st4" width="4.7" height="17.5"/>
	
		<rect x="342.5" y="369.5" transform="matrix(0.8092 -0.5875 0.5875 0.8092 -156.4534 274.7587)" class="st4" width="4.7" height="17.5"/>
	
		<rect x="366" y="348.3" transform="matrix(0.6698 -0.7425 0.7425 0.6698 -143.5527 391.3886)" class="st4" width="4.7" height="17.5"/>
	
		<rect x="384.5" y="322.8" transform="matrix(0.5002 -0.8659 0.8659 0.5002 -93.7365 500.7175)" class="st4" width="4.7" height="17.5"/>
	
		<rect x="397.4" y="294" transform="matrix(0.3092 -0.951 0.951 0.3092 -11.7356 589.2919)" class="st4" width="4.7" height="17.5"/>
	
		<rect x="404" y="263.1" transform="matrix(0.1037 -0.9946 0.9946 0.1037 93.8155 647.7559)" class="st4" width="4.7" height="17.5"/>
	
		<rect x="397.6" y="237.8" transform="matrix(0.9945 -0.1051 0.1051 0.9945 -22.992 44.0322)" class="st4" width="17.5" height="4.7"/>
	
		<rect x="391" y="206.9" transform="matrix(0.951 -0.3092 0.3092 0.951 -45.1241 133.8664)" class="st4" width="17.5" height="4.7"/>
	
		<rect x="378.1" y="178.1" transform="matrix(0.8659 -0.5003 0.5003 0.8659 -38.3617 217.7643)" class="st4" width="17.5" height="4.7"/>
	
		<rect x="359.6" y="152.5" transform="matrix(0.7427 -0.6696 0.6696 0.7427 -8.9362 286.4747)" class="st4" width="17.5" height="4.7"/>
	
		<rect x="336.1" y="131.4" transform="matrix(0.5877 -0.8091 0.8091 0.5877 33.9892 334.1436)" class="st4" width="17.5" height="4.7"/>
	
		<rect x="308.7" y="115.6" transform="matrix(0.4063 -0.9137 0.9137 0.4063 80.6947 360.0967)" class="st4" width="17.5" height="4.7"/>
	
		<rect x="278.7" y="105.8" transform="matrix(0.2077 -0.9782 0.9782 0.2077 121.9321 366.8314)" class="st4" width="17.5" height="4.7"/>
</g>
</svg>
