<?xml version="1.0" encoding="iso-8859-1"?>
<!-- Generator: Adobe Illustrator 18.1.1, SVG Export Plug-In . SVG Version: 6.00 Build 0)  -->
<svg version="1.1" id="Calque_1" xmlns="http://www.w3.org/2000/svg" xmlns:xlink="http://www.w3.org/1999/xlink" x="0px" y="0px"
	 viewBox="0 0 1000 1000" style="enable-background:new 0 0 1000 1000;" xml:space="preserve">
<g>
	<linearGradient id="SVGID_1_" gradientUnits="userSpaceOnUse" x1="501.2" y1="39.6" x2="501.2" y2="962">
		<stop  offset="0" style="stop-color:#4AACDC"/>
		<stop  offset="1" style="stop-color:#966CAB"/>
	</linearGradient>
	<path style="fill:url(#SVGID_1_);" d="M501.2,39.6c-122.916,0-239.53,47.276-326.728,135.524
		C88.326,261.27,41.05,376.834,41.05,499.75s48.326,239.53,133.422,326.726C261.67,913.674,377.232,962,501.2,962
		c122.916,0,239.53-47.276,324.626-135.524c87.198-87.198,135.524-202.76,135.524-326.728c0-122.916-48.326-237.428-135.524-324.626
		C739.68,86.876,624.116,39.6,501.2,39.6z M501.2,99.482c96.652,0,189.102,34.668,260.542,97.702l0,0L644.078,314.848l0,0
		c-81.944-63.034-204.862-63.034-286.806,0l0,0L239.608,197.184l0,0C312.098,134.152,403.498,99.482,501.2,99.482z M625.168,623.716
		c-67.236,67.236-181.748,67.236-248.984,0c-68.288-68.286-68.288-179.648,0-248.984c33.618-32.568,77.742-51.478,123.968-51.478
		s90.348,18.91,123.968,51.478C693.454,444.07,693.454,555.43,625.168,623.716z M99.882,499.75
		c0-96.652,34.668-188.052,96.652-260.542l0,0l117.664,117.664c-65.136,84.046-66.186,201.71,0,285.754l0,0L197.584,761.34l0,0
		C134.552,688.852,99.882,596.402,99.882,499.75z M501.2,901.066c-96.652,0-189.102-34.668-260.542-97.704l0,0l116.614-116.614l0,0
		c40.972,32.568,90.348,49.376,143.928,49.376s102.956-16.81,142.878-49.376l0,0l116.614,117.664l0,0
		C689.252,866.398,597.852,901.066,501.2,901.066z M803.764,760.29L686.1,642.626l0,0c67.236-85.096,65.136-202.76,0-285.754
		l117.664-117.664c63.034,72.49,97.704,163.888,97.704,259.49C901.466,596.402,866.798,687.802,803.764,760.29z"/>
</g>
</svg>
