<?xml version="1.0" encoding="utf-8"?>
<!-- Generator: Adobe Illustrator 21.0.0, SVG Export Plug-In . SVG Version: 6.00 Build 0)  -->
<svg version="1.1" id="Layer_1" xmlns="http://www.w3.org/2000/svg" xmlns:xlink="http://www.w3.org/1999/xlink" x="0px" y="0px"
	 viewBox="0 0 512 512" style="enable-background:new 0 0 512 512;" xml:space="preserve">
<style type="text/css">
	.st0{fill:#DFECF7;}
	.st1{fill:#45ACDE;}
	.st2{fill:#FFFFFF;}
	.st3{fill:#B265D7;}
</style>
<g>
	<path class="st0" d="M256,509.5c-67.7,0-131.4-26.4-179.2-74.2C28.9,387.4,2.5,323.7,2.5,256c0-67.7,26.4-131.4,74.2-179.2
		C124.6,28.9,188.3,2.5,256,2.5c67.7,0,131.4,26.4,179.2,74.2c47.9,47.9,74.2,111.5,74.2,179.2c0,67.7-26.4,131.4-74.2,179.2
		C387.4,483.1,323.7,509.5,256,509.5z"/>
	<path class="st1" d="M256,5.1c33.9,0,66.7,6.6,97.7,19.7c29.9,12.6,56.7,30.7,79.8,53.8c23,23,41.1,49.9,53.8,79.8
		c13.1,30.9,19.7,63.8,19.7,97.7s-6.6,66.7-19.7,97.7c-12.6,29.9-30.7,56.7-53.8,79.8c-23,23-49.9,41.1-79.8,53.8
		c-30.9,13.1-63.8,19.7-97.7,19.7s-66.7-6.6-97.7-19.7c-29.9-12.6-56.7-30.7-79.8-53.8c-23-23-41.1-49.9-53.8-79.8
		C11.7,322.7,5.1,289.9,5.1,256s6.6-66.7,19.7-97.7c12.6-29.9,30.7-56.7,53.8-79.8c23-23,49.9-41.1,79.8-53.8
		C189.3,11.7,222.1,5.1,256,5.1 M256,0C114.6,0,0,114.6,0,256s114.6,256,256,256s256-114.6,256-256S397.4,0,256,0L256,0z"/>
</g>
<path class="st1" d="M363.3,321.3l33.9-33.9L380,270.2c5.4-8.8,9.2-18.3,11.7-28H416V194h-24.3c-2.4-9.8-6.3-19.2-11.7-28l17.2-17.2
	l-33.9-34L346.1,132c-8.8-5.4-18.3-9.2-28-11.7V96H270v24.3c-9.8,2.4-19.2,6.3-28,11.7l-17.3-17.2l-33.9,33.9l17.2,17.2
	c-5.4,8.8-9.2,18.3-11.7,28H172V242h24.3c2.4,9.8,6.3,19.2,11.7,28l-17.2,17.2l33.9,33.9l17.2-17.2c8.8,5.4,18.3,9.2,28,11.7v24.3
	H318v-24.3c9.8-2.4,19.2-6.3,28-11.7L363.3,321.3z M241,271c-29.3-29.3-29.3-76.7,0-106s76.7-29.3,106,0c29.3,29.3,29.3,76.7,0,106
	C317.7,300.3,270.2,300.3,241,271z"/>
<rect x="179.6" y="292" transform="matrix(0.7071 -0.7071 0.7071 0.7071 -165.9731 231.1979)" class="st2" width="32.9" height="47.9"/>
<path class="st1" d="M165.3,308.5l-61.4,61.4c-10.6,10.6-10.6,27.6,0,38.2s27.6,10.6,38.2,0l61.4-61.4L165.3,308.5z"/>
<rect x="243.5" y="213.9" class="st3" width="27" height="49.5"/>
<rect x="280.5" y="191.4" class="st3" width="27" height="72"/>
<rect x="317.5" y="172.6" class="st3" width="27" height="90.8"/>
</svg>
