<?xml version="1.0" encoding="iso-8859-1"?>
<!-- Generator: Adobe Illustrator 18.1.1, SVG Export Plug-In . SVG Version: 6.00 Build 0)  -->
<svg version="1.1" id="Calque_1" xmlns="http://www.w3.org/2000/svg" xmlns:xlink="http://www.w3.org/1999/xlink" x="0px" y="0px"
	 viewBox="0 0 1000 1000" style="enable-background:new 0 0 1000 1000;" xml:space="preserve">
<g>
	<linearGradient id="SVGID_1_" gradientUnits="userSpaceOnUse" x1="613.835" y1="134.468" x2="613.835" y2="379.742">
		<stop  offset="0" style="stop-color:#4AACDC"/>
		<stop  offset="1" style="stop-color:#966CAB"/>
	</linearGradient>
	<path style="fill:url(#SVGID_1_);" d="M522.936,134.468c-16.708,0-30.308,13.59-30.308,30.308c0,16.74,13.6,30.308,30.308,30.308
		c68.172,0,151.478,61.988,151.478,154.338c0,16.774,13.6,30.32,30.308,30.32c16.72,0,30.32-13.546,30.32-30.32
		C735.03,211.2,627.094,134.468,522.936,134.468z"/>
	<linearGradient id="SVGID_2_" gradientUnits="userSpaceOnUse" x1="492.621" y1="13.288" x2="492.621" y2="984.7121">
		<stop  offset="0" style="stop-color:#4AACDC"/>
		<stop  offset="1" style="stop-color:#966CAB"/>
	</linearGradient>
	<path style="fill:url(#SVGID_2_);" d="M492.628,13.288c-200.426,0-363.572,163.124-363.572,363.604
		c0,117.208,56.958,227.82,152.448,295.982l4.5,2.958c22.18,13.028,24.382,54.962,23.864,62.678l-0.108,3.734v119.41
		c0,22.786,12.704,43.542,32.996,53.968l122.324,62.452c8.634,4.414,18.09,6.638,27.546,6.638c9.348,0,18.726-2.192,27.34-6.498
		l123.728-62.494c20.422-10.276,33.276-31.182,33.276-54.076V742.98c0-59.796,36.494-79.57,36.892-79.678l13.394-8.688
		c81.978-69.36,128.93-170.518,128.93-277.73C856.2,176.412,693.118,13.288,492.628,13.288z M492.628,924.128L370.39,861.654
		h246.018L492.628,924.128z M616.312,742.978v58.058H370.39V742.34v-1.888h246.18L616.312,742.978z M688.164,608.372
		c0,0-40.638,19.008-60.714,71.496H360.666c-7.502-20.982-20.584-42.57-43.94-56.376C239.864,568.65,189.674,478.598,189.674,376.88
		c0-167.3,135.632-303.008,302.954-303.008c167.376,0,303.008,135.708,303.008,303.008
		C795.636,469.716,753.832,552.72,688.164,608.372z"/>
</g>
</svg>
