<?xml version="1.0" encoding="utf-8"?>
<!-- Generator: Adobe Illustrator 21.0.0, SVG Export Plug-In . SVG Version: 6.00 Build 0)  -->
<svg version="1.1" id="Layer_1" xmlns="http://www.w3.org/2000/svg" xmlns:xlink="http://www.w3.org/1999/xlink" x="0px" y="0px"
	 viewBox="0 0 512 512" style="enable-background:new 0 0 512 512;" xml:space="preserve">
<style type="text/css">
	.st0{fill:#DFECF7;}
	.st1{fill:#45ACDE;}
	.st2{fill:#FFFFFF;}
	.st3{fill:#A35CC4;}
</style>
<g>
	<path class="st0" d="M256,509.5c-67.7,0-131.4-26.4-179.3-74.2S2.5,323.7,2.5,256c0-67.7,26.4-131.4,74.2-179.3S188.3,2.5,256,2.5
		c67.7,0,131.4,26.4,179.3,74.2s74.2,111.5,74.2,179.3c0,67.7-26.4,131.4-74.2,179.3S323.7,509.5,256,509.5z"/>
	<path class="st1" d="M256,5c33.9,0,66.8,6.6,97.7,19.7c29.9,12.6,56.7,30.7,79.8,53.8c23.1,23.1,41.2,49.9,53.8,79.8
		c13.1,30.9,19.7,63.8,19.7,97.7s-6.6,66.8-19.7,97.7c-12.6,29.9-30.7,56.7-53.8,79.8c-23.1,23.1-49.9,41.2-79.8,53.8
		C322.8,500.4,289.9,507,256,507s-66.8-6.6-97.7-19.7c-29.9-12.6-56.7-30.7-79.8-53.8c-23.1-23.1-41.2-49.9-53.8-79.8
		C11.6,322.8,5,289.9,5,256s6.6-66.8,19.7-97.7c12.6-29.9,30.7-56.7,53.8-79.8c23.1-23.1,49.9-41.2,79.8-53.8
		C189.2,11.6,222.1,5,256,5 M256,0C114.6,0,0,114.6,0,256s114.6,256,256,256s256-114.6,256-256S397.4,0,256,0L256,0z"/>
</g>
<path class="st2" d="M345.4,135.6c-66.5-49.4-160.4-35.5-209.8,31s-35.5,160.4,31,209.8s160.4,35.5,209.8-31S411.9,185,345.4,135.6z
	 M211.3,316.2c-33.3-24.7-40.2-71.7-15.5-104.9s71.7-40.2,104.9-15.5s40.2,71.7,15.5,104.9S244.5,340.9,211.3,316.2z"/>
<path class="st3" d="M117.4,313.3l69.3-28.6c-7.5-18.1-7.7-38.8,0.1-57.4l-69.3-28.8C102,235.6,102.4,277,117.4,313.3z"/>
<path class="st3" d="M394.6,198.7l-69.3,28.6c7.5,18.1,7.7,38.8-0.1,57.4l69.3,28.8C410,276.4,409.6,235,394.6,198.7z"/>
<g>
	<path class="st3" d="M198.7,117.4l28.6,69.3c18.1-7.5,38.8-7.7,57.4,0.1l28.8-69.3C276.4,102,235,102.4,198.7,117.4z"/>
	<path class="st3" d="M313.3,394.6l-28.6-69.3c-18.1,7.5-38.8,7.7-57.4-0.1l-28.8,69.3C235.6,410,277,409.6,313.3,394.6z"/>
</g>
</svg>
