<?xml version="1.0" encoding="utf-8"?>
<!-- Generator: Adobe Illustrator 21.0.0, SVG Export Plug-In . SVG Version: 6.00 Build 0)  -->
<svg version="1.1" id="Calque_1" xmlns="http://www.w3.org/2000/svg" xmlns:xlink="http://www.w3.org/1999/xlink" x="0px" y="0px"
	 viewBox="0 0 1000 1000" style="enable-background:new 0 0 1000 1000;" xml:space="preserve">
<style type="text/css">
	.st0{fill:url(#SVGID_1_);}
</style>
<g transform="scale(1 -1)">
	<g transform="translate(0 -96)">
		<g>
			
				<linearGradient id="SVGID_1_" gradientUnits="userSpaceOnUse" x1="499.2974" y1="-70.7379" x2="499.2974" y2="-729.9504" gradientTransform="matrix(-1.836970e-16 1 -1 -1.836970e-16 98.9532 -899.6415)">
				<stop  offset="0" style="stop-color:#4BADDC"/>
				<stop  offset="1" style="stop-color:#976CAC"/>
			</linearGradient>
			<path marker-end="none" marker-start="none" class="st0" d="M813.3-744.8c-0.7-1.8-1.6-3.8-2.1-4.9l-5.8-12.7l-37.9-2.5l-1.4-2.1
				c-5.9-8.2-12.5-15.7-19.6-22.6L745-791l3.1-37.9l-11.9-7.6c-38-24.2-83.8-35.4-129.7-30.4l-14,1.5l-14.1,35.4l-2.1,0.6
				c-4.8,1.5-9.5,3.3-14.1,5.2c-4.7,2-9.2,4.1-13.6,6.4l-1.8,1.1l-35.2-14.7l-10.9,8.9c-35.6,29.3-59.6,69.9-68.9,114l-2.9,13.8
				l29.3,24.3l-0.1,2c0,9.9,0.8,19.8,2.5,29.8l0.5,2.4l-24.8,28.9l5.1,13.1c0.6,1.5,1.2,3.1,1.9,4.7c17.8,42.2,48.4,75.2,85.3,96.3
				l12.2,7l32.2-20.4l2.1,0.8c9.4,3.1,19.2,5.4,29,6.8l2.3,0.2l19.9,32.6l14.1-0.9c22.1-1.4,44.3-6.4,65.7-15.4
				c21.5-9.1,40.7-21.5,57-36.3l10.4-9.5l-9.4-37l1.4-1.8c5.9-8.1,11.1-16.6,15.4-25.6l0.9-2l37-8.8l3.6-13.6
				C833.1-658,830.9-703,813.3-744.8z M781.4-652.8l-1.9,10.8l-31.9,7.6l-4.4,11.5c-5.2,13.4-12.7,25.9-22.3,36.9l-8.1,9.3l8.1,31.6
				l-9.6,7.3c-7.3,4.7-15.1,8.8-23.4,12.3c-8.2,3.5-16.6,6.2-25,8.1l-11.7,2.2l-17.3-28.3l-12.3-0.7c-14.6-0.8-28.8-4.2-42.1-9.9
				l-11.3-4.8l-27.6,17.5l-9.1-6.2c-16-12.9-29.6-29.1-39.6-48.2l-1.3-2.8l21.5-25.1l-3.2-11.9c-3.8-14.2-4.9-28.8-3.6-42.9
				l1.1-12.3L481-712.1l4-11.5c6.3-16.1,15.3-31.1,26.7-44.3l8.6-9.1l30.6,12.8l10.3-6.7c6-3.9,12.4-7.2,19.1-10.1
				c6.9-2.9,13.8-5.1,20.7-6.6l12-2.7l12.3-30.9l12.5,0.3c17.4,1.1,34.4,5.2,50.3,11.9l11,5.2l-2.7,33l9.6,7.8
				c11.1,9,20.7,19.9,28.2,32.6l6.3,10.6l32.8,2.1l-3.4-9.7C780.2-702.8,783.8-677.3,781.4-652.8z M742.6-201.9l-0.5-29.3
				c0-11.2-6.3-21.6-16.3-27.1l-39.3-21.3l-5.3-17.1l20.8-39.4c5.5-10.2,4.6-22.3-1.3-31.7L684.4-393l-2.4-2.9l-27.9-31l-2.3-2.3
				l-33.1-26.4l-1.6-1.2l-0.7-0.5l-0.8-0.6l-26.8-15c-10-5.7-22.2-5.3-31.7,0.6L519-448.9l-8.9-2.3l-8.7-1.8l-23.8-37.8
				c-6-9.4-16.6-15.1-28-14.5l-31.1,1.6l-3.1,0.5l-42.2,9.3l-1.5,0.5l-1.7,0.6l-39.3,15.7l-2.8,1.4l-25.5,15.3
				c-9.4,5.8-15.4,16.2-15,27.7l1.2,44.5l-12.3,13.1l-44.6,1.7c-11.4,0.4-21.4,7.1-26.6,16.9l-13.6,26.8l-1.1,2.9l-13.2,41.1
				l-0.7,3.1l-6.4,42.8l-0.3,3.2l0.4,30.1c0.4,10.4,5.8,21.2,16.5,26.8l39,21.2l5.3,17.3l-20.7,39.3c-5.2,9.8-5,22.2,1.5,31.9
				l15.7,24.3l1.5,2.2l1,1.2l28.1,31.1l2.3,2.3l33.8,27.1l1,0.6l1.4,1L323.8,35c9.5,5.2,21.9,5.6,31.9-0.9L393.4,11l8.9,2.3l8.7,1.8
				l23.6,37.4c6.1,10.3,17.4,15.3,28.2,14.8l30.6-1.6l3.2-0.4l42.2-9.4l3-0.9l39.6-15.8l2.8-1.4l25.6-15.3
				C619.6,16.6,625.2,6.1,625-5l-1.2-44.8l12.2-13l44.6-1.8c11-0.4,21.6-6.8,26.8-17.2l13.4-26.2l1.2-3l13.1-41l0.8-3l6.4-43.1
				l0.2-2l0-0.8L742.6-201.9z M703.3-698.9c-17.5-41.4-65.2-60.9-106.7-43.5c-41.5,17.4-61,65.2-43.5,106.7
				c17.4,41.5,65.2,60.9,106.7,43.5C701.2-609.7,720.7-657.5,703.3-698.9z M695.8-203.4l-5.8,38.6l-12,37.7l-8.3,16.2l-56,2.2
				l-11.3,13.4c-4.3,5-8.7,9.7-13.4,14.2l-12.6,12.4L578-13l-15.8,9.5l-35.6,14.2L489,19.1l-19.6,1l-29.8-47.2l-17.6-3.3
				c-3.1-0.5-6.1-1.2-9.4-1.9c-3.1-0.7-6.2-1.5-9.2-2.4l-17.1-4.9l-47.7,29.3l-17-9.5l-30-24.1L266-72.3l-10.1-15.6l26.1-49.6
				l-6.2-16.6c-2.1-6-4-12.3-5.6-18.5l-4-17l-49.4-26.8l-0.3-18l5.8-38.9l12.1-37.5l8.2-16.1l56-2.1l11.3-13.5
				c4.2-4.9,8.6-9.7,13.4-14.2l12.7-12.4l-1.5-55.9l15.9-9.5l35.7-14.2l37.6-8.3l19.3-1l29.7,47.2l17.6,3.4c3.1,0.5,6.1,1.1,9.5,1.9
				c3.2,0.7,6.1,1.5,9.1,2.4l17.3,4.9l47.6-29.3l16.7,9.4l30.3,24.2l25.8,28.7l9.9,15.4l-26,49.4l5.9,16.8
				c2.2,6.1,4.1,12.3,5.7,18.7l4.4,17.1l49.1,26.6L695.8-203.4z M641.6-635.4c-17.6,7.4-38-0.9-45.4-18.5
				c-7.4-17.6,0.8-38,18.5-45.4c17.6-7.4,38,0.8,45.4,18.5C667.5-663.1,659.2-642.8,641.6-635.4z M533.7-309.6
				c-50-42.8-125.4-37-168.2,13.1c-42.9,50-37,125.4,13.1,168.2c50,42.8,125.4,36.9,168.2-13.1C589.6-191.5,583.7-266.9,533.7-309.6
				z M511.3-171.9c-26,30.4-71.8,34-102.2,8c-30.4-26-34-71.8-8-102.2c26-30.4,71.8-34,102.2-8C533.7-248.1,537.3-202.2,511.3-171.9
				z"/>
		</g>
	</g>
</g>
</svg>
