<?xml version="1.0" encoding="utf-8"?>
<!-- Generator: Adobe Illustrator 21.0.0, SVG Export Plug-In . SVG Version: 6.00 Build 0)  -->
<svg version="1.1" id="Calque_1" xmlns="http://www.w3.org/2000/svg" xmlns:xlink="http://www.w3.org/1999/xlink" x="0px" y="0px"
	 viewBox="0 0 316.1 102.7" style="enable-background:new 0 0 316.1 102.7;" xml:space="preserve">
<style type="text/css">
	.st0{fill:#FFFFFF;}
</style>
<g>
	<path class="st0" d="M92.3,70.1h2.5c1.7,0,2.7-1.1,2.7-2.7V6.4c0-1.7-1.1-2.7-2.7-2.7h-2.5c-1.7,0-2.7,1.1-2.7,2.7v60.9
		C89.6,69,90.6,70.1,92.3,70.1z"/>
	<path class="st0" d="M135.1,33.1l-4.5-1.4c-5.1-1.5-8.2-3.8-8.2-10.7c0-6.9,3.5-11.1,11.1-11.1h2c4.5,0,7.8,1,11.1,1.9
		c0.4,0.1,0.9,0.2,1.2,0.2c0.9,0,1.5-0.4,1.5-1.8V8.2c0-1.8-0.3-2.7-1.7-3.1c-2.1-0.7-7.3-2.1-12.1-2.1h-1.8
		c-12.7,0-19.3,8.7-19.3,18c0,11.4,7.4,15.9,13.5,17.7l4.9,1.3c5.9,1.8,10.4,4.5,10.4,11.8c0,8.3-5.2,12.1-13.5,12.1h-2.1
		c-5,0-9.6-1.6-11.8-2.2c-0.4-0.2-0.8-0.3-1.2-0.3c-1,0-1.6,0.6-1.6,1.9v2.2c0,1.8,0.2,2.7,1.8,3.1c2,0.6,7.3,2.2,12.7,2.2h2.1
		c13.8,0,21.4-7.6,21.4-19C151.1,38.9,142.1,35.2,135.1,33.1z"/>
	<path class="st0" d="M207.4,70.1c1.4,0,2-0.6,2-1.9v-0.9c-6.9-29.7-14.8-55-18.9-63.6H180c-4,8.6-11.8,33.4-18.6,62.6
		c-0.2,0.6-0.4,1.4-0.4,1.9c0,1.2,0.9,1.9,2.4,1.9h2.7c1.8,0,2.7-1.1,3-2.7c1.1-4.8,2.1-9.2,3.2-13.5h25.7c1,4.2,2,8.8,3.2,13.5
		c0.4,1.7,1.2,2.7,3,2.7H207.4z M174.2,46.5c3.5-14.2,6.7-25.8,11.1-36.3c4.2,10.5,7.5,22,11.1,36.3H174.2z"/>
	<path class="st0" d="M235.6,3.7c-4,8.6-11.8,33.4-18.6,62.6c-0.2,0.6-0.4,1.4-0.4,1.9c0,1.2,0.9,1.9,2.4,1.9h2.7
		c1.8,0,2.7-1.1,3-2.7c1.1-4.8,2.1-9.2,3.2-13.5h25.7c1,4.2,2,8.8,3.2,13.5c0.4,1.7,1.2,2.7,3,2.7h3.1c1.4,0,2-0.6,2-1.9v-0.9
		c-6.9-29.7-14.8-55-18.9-63.6H235.6z M229.8,46.5c3.5-14.2,6.7-25.8,11.1-36.3c4.2,10.5,7.5,22,11.1,36.3H229.8z"/>
	<path class="st0" d="M311.6,20.9h1.7c1.8,0,2.8-1,2.8-2.7V6.1c-2.8-1.3-8-3.1-14.5-3.1C285,3,275,14,275,32.7V41
		c0,17.3,5.5,29.7,25.6,29.7h2c5.2,0,10.4-1.8,11.8-2.4c1.6-0.5,1.8-1.4,1.8-3.2V63c0-1.2-0.6-1.8-1.5-1.8c-0.4,0-0.8,0.1-1.3,0.3
		c-1.3,0.5-5.8,2.4-10.7,2.4h-2c-13.1,0-17.6-8.3-17.6-22.8v-8.3c0-15.6,7.3-22.8,18.3-22.8c2.4,0,5.1,0.4,7.6,1.1v7.3
		C308.9,20,309.8,20.9,311.6,20.9z"/>
	<path class="st0" d="M8,82.6H7.2c-0.5,0-0.8,0.3-0.8,0.8v18.3c0,0.5,0.3,0.8,0.8,0.8H8c0.5,0,0.8-0.3,0.8-0.8V83.4
		C8.8,82.9,8.5,82.6,8,82.6z"/>
	<path class="st0" d="M25.8,82.6h-0.7c-0.5,0-0.8,0.3-0.8,0.8v13.8l-8.9-14.1c-0.2-0.3-0.4-0.5-0.9-0.5h-0.2c-0.5,0-0.8,0.3-0.8,0.8
		v18.3c0,0.5,0.3,0.8,0.8,0.8h0.7c0.5,0,0.8-0.3,0.8-0.8V88l8.9,14c0.2,0.3,0.4,0.5,0.9,0.5h0.2c0.5,0,0.8-0.3,0.8-0.8V83.4
		C26.6,82.9,26.3,82.6,25.8,82.6z"/>
	<path class="st0" d="M41.3,82.6H30.2c-0.5,0-0.8,0.3-0.8,0.8v0.4c0,0.5,0.3,0.8,0.8,0.8h4.4v17c0,0.5,0.3,0.8,0.8,0.8h0.7
		c0.5,0,0.8-0.3,0.8-0.8v-17h4.4c0.5,0,0.8-0.3,0.8-0.8v-0.4C42.1,82.9,41.8,82.6,41.3,82.6z"/>
	<path class="st0" d="M54.1,100.3H50c-1.6,0-2.8-0.9-2.8-3v-4.2h6c0.5,0,0.8-0.3,0.8-0.8v-0.5c0-0.5-0.3-0.8-0.8-0.8h-6v-6.1h6.6
		c0.5,0,0.8-0.3,0.8-0.8v-0.5c0-0.5-0.3-0.8-0.8-0.8h-8.2c-0.5,0-0.8,0.3-0.8,0.8v13.7c0,3.7,1.9,5.4,5.4,5.4h3.9
		c0.5,0,0.8-0.3,0.8-0.8v-0.5C55,100.6,54.6,100.3,54.1,100.3z"/>
	<path class="st0" d="M67.4,100.3h-3.7c-1.6,0-2.8-0.9-2.8-3V83.4c0-0.5-0.3-0.8-0.8-0.8h-0.7c-0.5,0-0.8,0.3-0.8,0.8v13.7
		c0,3.7,1.9,5.4,5.4,5.4h3.5c0.5,0,0.8-0.3,0.8-0.8v-0.5C68.2,100.6,67.9,100.3,67.4,100.3z"/>
	<path class="st0" d="M80.1,100.3h-3.7c-1.6,0-2.8-0.9-2.8-3V83.4c0-0.5-0.3-0.8-0.8-0.8H72c-0.5,0-0.8,0.3-0.8,0.8v13.7
		c0,3.7,1.9,5.4,5.4,5.4h3.5c0.5,0,0.8-0.3,0.8-0.8v-0.5C80.9,100.6,80.6,100.3,80.1,100.3z"/>
	<path class="st0" d="M85.4,82.6h-0.7c-0.5,0-0.8,0.3-0.8,0.8v18.3c0,0.5,0.3,0.8,0.8,0.8h0.7c0.5,0,0.8-0.3,0.8-0.8V83.4
		C86.2,82.9,85.9,82.6,85.4,82.6z"/>
	<path class="st0" d="M102.3,83c-0.6-0.2-2.2-0.7-4.3-0.7c-5.1,0-8.3,3.3-8.3,8.7v2.7c0,5.2,1.8,8.9,7.7,8.9h0.8
		c1.7,0,3.7-0.6,4.5-1v-8.1c0-0.5-0.3-0.8-0.7-0.8h-3.7c-0.5,0-0.8,0.3-0.8,0.8V94c0,0.5,0.3,0.8,0.8,0.8h2.3v5.5
		c-0.7,0.2-1.4,0.3-2.3,0.3h-0.8c-4.1,0-5.3-2.4-5.3-6.8v-2.7c0-4.6,2.3-6.6,5.9-6.6c1.9,0,3.2,0.5,4,0.6c0.2,0.1,0.3,0.1,0.4,0.1
		c0.3,0,0.4-0.1,0.4-0.5v-0.7C102.8,83.4,102.7,83.1,102.3,83z"/>
	<path class="st0" d="M115.9,100.3h-4.1c-1.6,0-2.8-0.9-2.8-3v-4.2h6c0.5,0,0.8-0.3,0.8-0.8v-0.5c0-0.5-0.3-0.8-0.8-0.8h-6v-6.1h6.6
		c0.5,0,0.8-0.3,0.8-0.8v-0.5c0-0.5-0.3-0.8-0.8-0.8h-8.2c-0.5,0-0.8,0.3-0.8,0.8v13.7c0,3.7,1.9,5.4,5.4,5.4h3.9
		c0.5,0,0.8-0.3,0.8-0.8v-0.5C116.7,100.6,116.4,100.3,115.9,100.3z"/>
	<path class="st0" d="M132.7,82.6H132c-0.5,0-0.8,0.3-0.8,0.8v13.8l-8.9-14.1c-0.2-0.3-0.4-0.5-0.9-0.5h-0.2c-0.5,0-0.8,0.3-0.8,0.8
		v18.3c0,0.5,0.3,0.8,0.8,0.8h0.7c0.5,0,0.8-0.3,0.8-0.8V88l8.9,14c0.2,0.3,0.4,0.5,0.9,0.5h0.2c0.5,0,0.8-0.3,0.8-0.8V83.4
		C133.5,82.9,133.2,82.6,132.7,82.6z"/>
	<path class="st0" d="M137,91.3v2.5c0,5.2,1.6,8.9,7.7,8.9h0.6c1.6,0,3.1-0.5,3.5-0.7c0.5-0.2,0.5-0.4,0.5-1v-0.7
		c0-0.4-0.2-0.5-0.5-0.5c-0.1,0-0.2,0-0.4,0.1c-0.4,0.2-1.8,0.7-3.2,0.7h-0.6c-3.9,0-5.3-2.5-5.3-6.8v-2.5c0-4.7,2.2-6.8,5.5-6.8
		c0.7,0,1.5,0.1,2.3,0.3v2.2c0,0.5,0.3,0.8,0.8,0.8h0.5c0.5,0,0.8-0.3,0.8-0.8v-3.6c-0.8-0.4-2.4-0.9-4.4-0.9
		C140,82.4,137,85.7,137,91.3z"/>
	<path class="st0" d="M161.9,100.3h-4.1c-1.6,0-2.8-0.9-2.8-3v-4.2h6c0.5,0,0.8-0.3,0.8-0.8v-0.5c0-0.5-0.3-0.8-0.8-0.8h-6v-6.1h6.6
		c0.5,0,0.8-0.3,0.8-0.8v-0.5c0-0.5-0.3-0.8-0.8-0.8h-8.2c-0.5,0-0.8,0.3-0.8,0.8v13.7c0,3.7,1.9,5.4,5.4,5.4h3.9
		c0.5,0,0.8-0.3,0.8-0.8v-0.5C162.8,100.6,162.5,100.3,161.9,100.3z"/>
	<path class="st0" d="M177.2,82.6c-1.2,2.6-3.5,10-5.6,18.8c-0.1,0.2-0.1,0.4-0.1,0.6c0,0.4,0.3,0.6,0.7,0.6h0.8
		c0.5,0,0.8-0.3,0.9-0.8c0.3-1.4,0.6-2.8,1-4.1h7.7c0.3,1.3,0.6,2.6,1,4.1c0.1,0.5,0.4,0.8,0.9,0.8h0.9c0.4,0,0.6-0.2,0.6-0.6v-0.3
		c-2.1-8.9-4.4-16.5-5.7-19.1H177.2z M175.4,95.4c1-4.2,2-7.7,3.3-10.9c1.3,3.2,2.3,6.6,3.3,10.9H175.4z"/>
	<path class="st0" d="M196.3,94.1c2.1-1,3.7-2.5,3.7-5.6c0-4.2-2.3-5.9-6.4-5.9h-4.1c-0.5,0-0.8,0.3-0.8,0.8v18.3
		c0,0.5,0.3,0.8,0.8,0.8h0.7c0.5,0,0.8-0.3,0.8-0.8v-6.7h3c1.9,1.5,3.6,5.1,4.3,6.7c0.2,0.5,0.4,0.8,0.9,0.8h1
		c0.4,0,0.7-0.2,0.7-0.5c0-0.1,0-0.2-0.1-0.3C200.3,100,198.6,96.1,196.3,94.1z M193.2,92.9h-2.1v-8.2h2.5c2.7,0,4,0.9,4,3.8
		C197.6,91,196.3,92.9,193.2,92.9z"/>
	<path class="st0" d="M214.3,82.6h-11.1c-0.5,0-0.8,0.3-0.8,0.8v0.4c0,0.5,0.3,0.8,0.8,0.8h4.4v17c0,0.5,0.3,0.8,0.8,0.8h0.7
		c0.5,0,0.8-0.3,0.8-0.8v-17h4.4c0.5,0,0.8-0.3,0.8-0.8v-0.4C215.2,82.9,214.8,82.6,214.3,82.6z"/>
	<path class="st0" d="M219.4,82.6h-0.7c-0.5,0-0.8,0.3-0.8,0.8v18.3c0,0.5,0.3,0.8,0.8,0.8h0.7c0.5,0,0.8-0.3,0.8-0.8V83.4
		C220.3,82.9,219.9,82.6,219.4,82.6z"/>
	<path class="st0" d="M233.3,82.6h-3.5c-3.5,0-5.3,1.9-5.3,5.4v13.7c0,0.5,0.3,0.8,0.8,0.8h0.7c0.5,0,0.8-0.3,0.8-0.8v-8.6h5.6
		c0.5,0,0.8-0.3,0.8-0.8v-0.5c0-0.5-0.3-0.8-0.8-0.8H227V88c0-2.3,0.8-3.2,2.9-3.2h3.5c0.5,0,0.8-0.3,0.8-0.8v-0.5
		C234.2,82.9,233.9,82.6,233.3,82.6z"/>
	<path class="st0" d="M238.6,82.6h-0.7c-0.5,0-0.8,0.3-0.8,0.8v18.3c0,0.5,0.3,0.8,0.8,0.8h0.7c0.5,0,0.8-0.3,0.8-0.8V83.4
		C239.5,82.9,239.1,82.6,238.6,82.6z"/>
	<path class="st0" d="M243,91.3v2.5c0,5.2,1.6,8.9,7.7,8.9h0.6c1.6,0,3.1-0.5,3.5-0.7c0.5-0.2,0.5-0.4,0.5-1v-0.7
		c0-0.4-0.2-0.5-0.5-0.5c-0.1,0-0.2,0-0.4,0.1c-0.4,0.2-1.8,0.7-3.2,0.7h-0.6c-3.9,0-5.3-2.5-5.3-6.8v-2.5c0-4.7,2.2-6.8,5.5-6.8
		c0.7,0,1.5,0.1,2.3,0.3v2.2c0,0.5,0.3,0.8,0.8,0.8h0.5c0.5,0,0.8-0.3,0.8-0.8v-3.6c-0.8-0.4-2.4-0.9-4.4-0.9
		C246,82.4,243,85.7,243,91.3z"/>
	<path class="st0" d="M260.1,82.6h-0.7c-0.5,0-0.8,0.3-0.8,0.8v18.3c0,0.5,0.3,0.8,0.8,0.8h0.7c0.5,0,0.8-0.3,0.8-0.8V83.4
		C260.9,82.9,260.6,82.6,260.1,82.6z"/>
	<path class="st0" d="M274.8,100.3h-4.1c-1.6,0-2.8-0.9-2.8-3v-4.2h6c0.5,0,0.8-0.3,0.8-0.8v-0.5c0-0.5-0.3-0.8-0.8-0.8h-6v-6.1h6.6
		c0.5,0,0.8-0.3,0.8-0.8v-0.5c0-0.5-0.3-0.8-0.8-0.8h-8.2c-0.5,0-0.8,0.3-0.8,0.8v13.7c0,3.7,1.9,5.4,5.4,5.4h3.9
		c0.5,0,0.8-0.3,0.8-0.8v-0.5C275.7,100.6,275.3,100.3,274.8,100.3z"/>
	<path class="st0" d="M288.1,100.3h-3.7c-1.6,0-2.8-0.9-2.8-3V83.4c0-0.5-0.3-0.8-0.8-0.8H280c-0.5,0-0.8,0.3-0.8,0.8v13.7
		c0,3.7,1.9,5.4,5.4,5.4h3.5c0.5,0,0.8-0.3,0.8-0.8v-0.5C288.9,100.6,288.6,100.3,288.1,100.3z"/>
	<path class="st0" d="M300.8,100.3H297c-1.6,0-2.8-0.9-2.8-3V83.4c0-0.5-0.3-0.8-0.8-0.8h-0.7c-0.5,0-0.8,0.3-0.8,0.8v13.7
		c0,3.7,1.9,5.4,5.4,5.4h3.5c0.5,0,0.8-0.3,0.8-0.8v-0.5C301.6,100.6,301.3,100.3,300.8,100.3z"/>
	<path class="st0" d="M313.8,100.3h-4.1c-1.6,0-2.8-0.9-2.8-3v-4.2h6c0.5,0,0.8-0.3,0.8-0.8v-0.5c0-0.5-0.3-0.8-0.8-0.8h-6v-6.1h6.6
		c0.5,0,0.8-0.3,0.8-0.8v-0.5c0-0.5-0.3-0.8-0.8-0.8h-8.2c-0.5,0-0.8,0.3-0.8,0.8v13.7c0,3.7,1.9,5.4,5.4,5.4h3.9
		c0.5,0,0.8-0.3,0.8-0.8v-0.5C314.7,100.6,314.4,100.3,313.8,100.3z"/>
	<circle class="st0" cx="36.3" cy="36.3" r="7.5"/>
	<circle class="st0" cx="16" cy="18.7" r="2.3"/>
	<circle class="st0" cx="22.1" cy="69" r="2.3"/>
	<circle class="st0" cx="50.8" cy="26.6" r="2.3"/>
	<path class="st0" d="M46,21.9c0.4-0.6,0-0.9,0-0.9c-2.9-1.9-6.1-2.9-9.8-2.9c-10,0-18.1,8.1-18.1,18.1c0,10,8.1,18.1,18.1,18.1
		c10,0,18.1-8.1,18.1-18.1c0-1.8-0.1-3-0.6-4.6c0,0-0.2-0.7-0.8-0.5c-0.4,0.1-0.4,0.7-0.4,0.9c0.3,1.3,0.4,2.8,0.4,4.2
		c0,9.2-7.4,16.6-16.6,16.6c-9.2,0-16.6-7.4-16.6-16.6c0-9.2,7.4-16.6,16.6-16.6c3.2,0,6.2,0.9,8.7,2.4C45.2,22.2,45.7,22.3,46,21.9
		z"/>
	<path class="st0" d="M13,23.6c-0.2-0.1-0.6-0.2-1,0.1c-2,3.8-3.1,8-3.1,12.6c0,15.1,12.2,27.3,27.3,27.3
		c15.1,0,27.3-12.2,27.3-27.3C63.6,21.2,51.4,9,36.3,9c-6,0-11.6,1.9-16.1,5.2c0,0-0.2,0.6,0.1,1c0.2,0.2,0.7,0.3,1,0.2
		c4.2-3,9.3-4.7,14.8-4.7c14.2,0,25.7,11.5,25.7,25.7S50.3,62.1,36.1,62.1S10.4,50.6,10.4,36.4c0-4.4,1.1-8.5,3-12.1l0,0
		C13.4,24.3,13.6,23.9,13,23.6z M20.2,14.3C20.2,14.3,20.2,14.3,20.2,14.3L20.2,14.3z"/>
	<path class="st0" d="M29.7,71.9c2.1,0.4,4.4,0.6,6.6,0.6c20,0,36.3-16.2,36.3-36.3S56.3,0,36.3,0C16.2,0,0,16.2,0,36.3
		c0,12.3,6.1,23,15,29.4c0.1,0.1,0.6,0.5,0.8,0c0.3-0.5,0.2-0.7-0.3-1.1C9.9,60.4,5.4,54.6,3,47.5c-6.1-18.2,3.6-37.9,21.8-44
		c18.2-6.1,37.9,3.6,44,21.8c6.1,18.2-3.6,37.9-21.8,44c-5.6,1.9-11.3,2.3-16.8,1.4l0,0c0,0-0.8-0.2-0.9,0.6
		C29.2,71.7,29.3,71.9,29.7,71.9z"/>
</g>
</svg>
