<?xml version="1.0" encoding="utf-8"?>
<!-- Generator: Adobe Illustrator 21.0.0, SVG Export Plug-In . SVG Version: 6.00 Build 0)  -->
<svg version="1.1" id="Calque_1" xmlns="http://www.w3.org/2000/svg" xmlns:xlink="http://www.w3.org/1999/xlink" x="0px" y="0px"
	 viewBox="0 0 72 72" style="enable-background:new 0 0 72 72;" xml:space="preserve">
<style type="text/css">
	.st0{fill:#FFFFFF;}
</style>
<g>
	<path class="st0" d="M72,13.6c-2.8,1.1-5.7,2.3-8.5,2.3c2.8-1.7,5.7-4.5,6.8-8.5c-2.8,1.7-6.2,2.8-9.6,3.4
		C57.9,8,53.9,6.3,49.9,6.3C42,6.2,35.1,13,35.1,21c0,1.1,0,2.3,0.6,3.4C23.2,23.8,12.5,17.6,5.1,9.1c-1.1,2.3-2.3,4.5-2.3,7.4
		c0,5.1,2.8,9.6,6.8,12.5c-2.3,0-4.5-0.6-6.8-1.7l0,0c0,7.4,5.1,13,11.9,14.7c-1.1,0.6-2.8,0.6-4,0.6s-1.7,0-2.8,0
		c1.7,5.7,7.4,10.2,14.2,10.2C17,56.7,10.8,59,3.4,59c-1.1,0-2.3,0-3.4,0c6.8,4,14.2,6.8,22.7,6.8c27.2,0,42.5-22.7,42.5-42.5v-1.7
		C67.5,19.3,69.7,17,72,13.6L72,13.6z"/>
</g>
</svg>
